<?xml version="1.0" encoding="utf-8" standalone="no"?>
<!DOCTYPE svg PUBLIC "-//W3C//DTD SVG 1.1//EN"
  "http://www.w3.org/Graphics/SVG/1.1/DTD/svg11.dtd">
<svg xmlns:xlink="http://www.w3.org/1999/xlink" width="455.621487pt" height="338.868301pt" viewBox="0 0 455.621487 338.868301" xmlns="http://www.w3.org/2000/svg" version="1.1">
 <metadata>
  <rdf:RDF xmlns:dc="http://purl.org/dc/elements/1.1/" xmlns:cc="http://creativecommons.org/ns#" xmlns:rdf="http://www.w3.org/1999/02/22-rdf-syntax-ns#">
   <cc:Work>
    <dc:type rdf:resource="http://purl.org/dc/dcmitype/StillImage"/>
    <dc:date>2024-01-20T22:19:32.484255</dc:date>
    <dc:format>image/svg+xml</dc:format>
    <dc:creator>
     <cc:Agent>
      <dc:title>Matplotlib v3.5.1, https://matplotlib.org/</dc:title>
     </cc:Agent>
    </dc:creator>
   </cc:Work>
  </rdf:RDF>
 </metadata>
 <defs>
  <style type="text/css">*{stroke-linejoin: round; stroke-linecap: butt}</style>
 </defs>
 <g id="figure_1">
  <g id="patch_1">
   <path d="M 0 338.868301 
L 455.621487 338.868301 
L 455.621487 0 
L 0 0 
z
" style="fill: #ffffff"/>
  </g>
  <g id="axes_1">
   <g id="patch_2">
    <path d="M 35.691294 325.264929 
L 433.391487 325.264929 
L 433.391487 7.2 
L 35.691294 7.2 
z
" style="fill: #ffffff"/>
   </g>
   <g id="matplotlib.axis_1">
    <g id="xtick_1">
     <g id="line2d_1">
      <defs>
       <path id="mf5dd1e3325" d="M 0 0 
L 0 3.5 
" style="stroke: #000000; stroke-width: 0.8"/>
      </defs>
      <g>
       <use xlink:href="#mf5dd1e3325" x="43.339375" y="213.254958" style="stroke: #000000; stroke-width: 0.8"/>
      </g>
     </g>
    </g>
    <g id="xtick_2">
     <g id="line2d_2">
      <g>
       <use xlink:href="#mf5dd1e3325" x="119.820181" y="213.254958" style="stroke: #000000; stroke-width: 0.8"/>
      </g>
     </g>
     <g id="text_1">
      <!-- 2 -->
      <g transform="translate(116.002681 229.373083)scale(0.12 -0.12)">
       <defs>
        <path id="DejaVuSans-32" d="M 1228 531 
L 3431 531 
L 3431 0 
L 469 0 
L 469 531 
Q 828 903 1448 1529 
Q 2069 2156 2228 2338 
Q 2531 2678 2651 2914 
Q 2772 3150 2772 3378 
Q 2772 3750 2511 3984 
Q 2250 4219 1831 4219 
Q 1534 4219 1204 4116 
Q 875 4013 500 3803 
L 500 4441 
Q 881 4594 1212 4672 
Q 1544 4750 1819 4750 
Q 2544 4750 2975 4387 
Q 3406 4025 3406 3419 
Q 3406 3131 3298 2873 
Q 3191 2616 2906 2266 
Q 2828 2175 2409 1742 
Q 1991 1309 1228 531 
z
" transform="scale(0.015625)"/>
       </defs>
       <use xlink:href="#DejaVuSans-32"/>
      </g>
     </g>
    </g>
    <g id="xtick_3">
     <g id="line2d_3">
      <g>
       <use xlink:href="#mf5dd1e3325" x="196.300987" y="213.254958" style="stroke: #000000; stroke-width: 0.8"/>
      </g>
     </g>
     <g id="text_2">
      <!-- 4 -->
      <g transform="translate(192.483487 229.373083)scale(0.12 -0.12)">
       <defs>
        <path id="DejaVuSans-34" d="M 2419 4116 
L 825 1625 
L 2419 1625 
L 2419 4116 
z
M 2253 4666 
L 3047 4666 
L 3047 1625 
L 3713 1625 
L 3713 1100 
L 3047 1100 
L 3047 0 
L 2419 0 
L 2419 1100 
L 313 1100 
L 313 1709 
L 2253 4666 
z
" transform="scale(0.015625)"/>
       </defs>
       <use xlink:href="#DejaVuSans-34"/>
      </g>
     </g>
    </g>
    <g id="xtick_4">
     <g id="line2d_4">
      <g>
       <use xlink:href="#mf5dd1e3325" x="272.781794" y="213.254958" style="stroke: #000000; stroke-width: 0.8"/>
      </g>
     </g>
     <g id="text_3">
      <!-- 6 -->
      <g transform="translate(268.964294 229.373083)scale(0.12 -0.12)">
       <defs>
        <path id="DejaVuSans-36" d="M 2113 2584 
Q 1688 2584 1439 2293 
Q 1191 2003 1191 1497 
Q 1191 994 1439 701 
Q 1688 409 2113 409 
Q 2538 409 2786 701 
Q 3034 994 3034 1497 
Q 3034 2003 2786 2293 
Q 2538 2584 2113 2584 
z
M 3366 4563 
L 3366 3988 
Q 3128 4100 2886 4159 
Q 2644 4219 2406 4219 
Q 1781 4219 1451 3797 
Q 1122 3375 1075 2522 
Q 1259 2794 1537 2939 
Q 1816 3084 2150 3084 
Q 2853 3084 3261 2657 
Q 3669 2231 3669 1497 
Q 3669 778 3244 343 
Q 2819 -91 2113 -91 
Q 1303 -91 875 529 
Q 447 1150 447 2328 
Q 447 3434 972 4092 
Q 1497 4750 2381 4750 
Q 2619 4750 2861 4703 
Q 3103 4656 3366 4563 
z
" transform="scale(0.015625)"/>
       </defs>
       <use xlink:href="#DejaVuSans-36"/>
      </g>
     </g>
    </g>
    <g id="xtick_5">
     <g id="line2d_5">
      <g>
       <use xlink:href="#mf5dd1e3325" x="349.2626" y="213.254958" style="stroke: #000000; stroke-width: 0.8"/>
      </g>
     </g>
     <g id="text_4">
      <!-- 8 -->
      <g transform="translate(345.4451 229.373083)scale(0.12 -0.12)">
       <defs>
        <path id="DejaVuSans-38" d="M 2034 2216 
Q 1584 2216 1326 1975 
Q 1069 1734 1069 1313 
Q 1069 891 1326 650 
Q 1584 409 2034 409 
Q 2484 409 2743 651 
Q 3003 894 3003 1313 
Q 3003 1734 2745 1975 
Q 2488 2216 2034 2216 
z
M 1403 2484 
Q 997 2584 770 2862 
Q 544 3141 544 3541 
Q 544 4100 942 4425 
Q 1341 4750 2034 4750 
Q 2731 4750 3128 4425 
Q 3525 4100 3525 3541 
Q 3525 3141 3298 2862 
Q 3072 2584 2669 2484 
Q 3125 2378 3379 2068 
Q 3634 1759 3634 1313 
Q 3634 634 3220 271 
Q 2806 -91 2034 -91 
Q 1263 -91 848 271 
Q 434 634 434 1313 
Q 434 1759 690 2068 
Q 947 2378 1403 2484 
z
M 1172 3481 
Q 1172 3119 1398 2916 
Q 1625 2713 2034 2713 
Q 2441 2713 2670 2916 
Q 2900 3119 2900 3481 
Q 2900 3844 2670 4047 
Q 2441 4250 2034 4250 
Q 1625 4250 1398 4047 
Q 1172 3844 1172 3481 
z
" transform="scale(0.015625)"/>
       </defs>
       <use xlink:href="#DejaVuSans-38"/>
      </g>
     </g>
    </g>
    <g id="xtick_6">
     <g id="line2d_6">
      <g>
       <use xlink:href="#mf5dd1e3325" x="425.743406" y="213.254958" style="stroke: #000000; stroke-width: 0.8"/>
      </g>
     </g>
     <g id="text_5">
      <!-- 10 -->
      <g transform="translate(418.108406 229.373083)scale(0.12 -0.12)">
       <defs>
        <path id="DejaVuSans-31" d="M 794 531 
L 1825 531 
L 1825 4091 
L 703 3866 
L 703 4441 
L 1819 4666 
L 2450 4666 
L 2450 531 
L 3481 531 
L 3481 0 
L 794 0 
L 794 531 
z
" transform="scale(0.015625)"/>
        <path id="DejaVuSans-30" d="M 2034 4250 
Q 1547 4250 1301 3770 
Q 1056 3291 1056 2328 
Q 1056 1369 1301 889 
Q 1547 409 2034 409 
Q 2525 409 2770 889 
Q 3016 1369 3016 2328 
Q 3016 3291 2770 3770 
Q 2525 4250 2034 4250 
z
M 2034 4750 
Q 2819 4750 3233 4129 
Q 3647 3509 3647 2328 
Q 3647 1150 3233 529 
Q 2819 -91 2034 -91 
Q 1250 -91 836 529 
Q 422 1150 422 2328 
Q 422 3509 836 4129 
Q 1250 4750 2034 4750 
z
" transform="scale(0.015625)"/>
       </defs>
       <use xlink:href="#DejaVuSans-31"/>
       <use xlink:href="#DejaVuSans-30" x="63.623047"/>
      </g>
     </g>
    </g>
    <g id="xtick_7">
     <g id="line2d_7">
      <defs>
       <path id="mcf6200f8c1" d="M 0 0 
L 0 2 
" style="stroke: #000000; stroke-width: 0.6"/>
      </defs>
      <g>
       <use xlink:href="#mcf6200f8c1" x="62.459577" y="213.254958" style="stroke: #000000; stroke-width: 0.6"/>
      </g>
     </g>
    </g>
    <g id="xtick_8">
     <g id="line2d_8">
      <g>
       <use xlink:href="#mcf6200f8c1" x="81.579778" y="213.254958" style="stroke: #000000; stroke-width: 0.6"/>
      </g>
     </g>
    </g>
    <g id="xtick_9">
     <g id="line2d_9">
      <g>
       <use xlink:href="#mcf6200f8c1" x="100.69998" y="213.254958" style="stroke: #000000; stroke-width: 0.6"/>
      </g>
     </g>
    </g>
    <g id="xtick_10">
     <g id="line2d_10">
      <g>
       <use xlink:href="#mcf6200f8c1" x="138.940383" y="213.254958" style="stroke: #000000; stroke-width: 0.6"/>
      </g>
     </g>
    </g>
    <g id="xtick_11">
     <g id="line2d_11">
      <g>
       <use xlink:href="#mcf6200f8c1" x="158.060584" y="213.254958" style="stroke: #000000; stroke-width: 0.6"/>
      </g>
     </g>
    </g>
    <g id="xtick_12">
     <g id="line2d_12">
      <g>
       <use xlink:href="#mcf6200f8c1" x="177.180786" y="213.254958" style="stroke: #000000; stroke-width: 0.6"/>
      </g>
     </g>
    </g>
    <g id="xtick_13">
     <g id="line2d_13">
      <g>
       <use xlink:href="#mcf6200f8c1" x="215.421189" y="213.254958" style="stroke: #000000; stroke-width: 0.6"/>
      </g>
     </g>
    </g>
    <g id="xtick_14">
     <g id="line2d_14">
      <g>
       <use xlink:href="#mcf6200f8c1" x="234.541391" y="213.254958" style="stroke: #000000; stroke-width: 0.6"/>
      </g>
     </g>
    </g>
    <g id="xtick_15">
     <g id="line2d_15">
      <g>
       <use xlink:href="#mcf6200f8c1" x="253.661592" y="213.254958" style="stroke: #000000; stroke-width: 0.6"/>
      </g>
     </g>
    </g>
    <g id="xtick_16">
     <g id="line2d_16">
      <g>
       <use xlink:href="#mcf6200f8c1" x="291.901995" y="213.254958" style="stroke: #000000; stroke-width: 0.6"/>
      </g>
     </g>
    </g>
    <g id="xtick_17">
     <g id="line2d_17">
      <g>
       <use xlink:href="#mcf6200f8c1" x="311.022197" y="213.254958" style="stroke: #000000; stroke-width: 0.6"/>
      </g>
     </g>
    </g>
    <g id="xtick_18">
     <g id="line2d_18">
      <g>
       <use xlink:href="#mcf6200f8c1" x="330.142398" y="213.254958" style="stroke: #000000; stroke-width: 0.6"/>
      </g>
     </g>
    </g>
    <g id="xtick_19">
     <g id="line2d_19">
      <g>
       <use xlink:href="#mcf6200f8c1" x="368.382801" y="213.254958" style="stroke: #000000; stroke-width: 0.6"/>
      </g>
     </g>
    </g>
    <g id="xtick_20">
     <g id="line2d_20">
      <g>
       <use xlink:href="#mcf6200f8c1" x="387.503003" y="213.254958" style="stroke: #000000; stroke-width: 0.6"/>
      </g>
     </g>
    </g>
    <g id="xtick_21">
     <g id="line2d_21">
      <g>
       <use xlink:href="#mcf6200f8c1" x="406.623205" y="213.254958" style="stroke: #000000; stroke-width: 0.6"/>
      </g>
     </g>
    </g>
    <g id="text_6">
     <!-- $t$ -->
     <g transform="translate(441.391487 213.254958)scale(0.19 -0.19)">
      <defs>
       <path id="Cmmi10-74" d="M 397 519 
Q 397 613 416 697 
L 878 2534 
L 206 2534 
Q 141 2534 141 2619 
Q 166 2759 225 2759 
L 934 2759 
L 1191 3803 
Q 1216 3888 1291 3947 
Q 1366 4006 1459 4006 
Q 1541 4006 1595 3957 
Q 1650 3909 1650 3828 
Q 1650 3809 1648 3798 
Q 1647 3788 1644 3775 
L 1388 2759 
L 2047 2759 
Q 2113 2759 2113 2675 
Q 2109 2659 2100 2621 
Q 2091 2584 2075 2559 
Q 2059 2534 2028 2534 
L 1331 2534 
L 872 684 
Q 825 503 825 372 
Q 825 97 1013 97 
Q 1294 97 1511 361 
Q 1728 625 1844 941 
Q 1869 978 1894 978 
L 1972 978 
Q 1997 978 2012 961 
Q 2028 944 2028 922 
Q 2028 909 2022 903 
Q 1881 516 1612 222 
Q 1344 -72 997 -72 
Q 744 -72 570 93 
Q 397 259 397 519 
z
" transform="scale(0.015625)"/>
      </defs>
      <use xlink:href="#Cmmi10-74" transform="translate(0 0.40625)"/>
     </g>
    </g>
   </g>
   <g id="matplotlib.axis_2">
    <g id="ytick_1">
     <g id="line2d_22">
      <defs>
       <path id="m119174e141" d="M 0 0 
L -3.5 0 
" style="stroke: #000000; stroke-width: 0.8"/>
      </defs>
      <g>
       <use xlink:href="#m119174e141" x="43.339375" y="324.613614" style="stroke: #000000; stroke-width: 0.8"/>
      </g>
     </g>
     <g id="text_7">
      <!-- −1.5 -->
      <g transform="translate(7.2 329.172676)scale(0.12 -0.12)">
       <defs>
        <path id="DejaVuSans-2212" d="M 678 2272 
L 4684 2272 
L 4684 1741 
L 678 1741 
L 678 2272 
z
" transform="scale(0.015625)"/>
        <path id="DejaVuSans-2e" d="M 684 794 
L 1344 794 
L 1344 0 
L 684 0 
L 684 794 
z
" transform="scale(0.015625)"/>
        <path id="DejaVuSans-35" d="M 691 4666 
L 3169 4666 
L 3169 4134 
L 1269 4134 
L 1269 2991 
Q 1406 3038 1543 3061 
Q 1681 3084 1819 3084 
Q 2600 3084 3056 2656 
Q 3513 2228 3513 1497 
Q 3513 744 3044 326 
Q 2575 -91 1722 -91 
Q 1428 -91 1123 -41 
Q 819 9 494 109 
L 494 744 
Q 775 591 1075 516 
Q 1375 441 1709 441 
Q 2250 441 2565 725 
Q 2881 1009 2881 1497 
Q 2881 1984 2565 2268 
Q 2250 2553 1709 2553 
Q 1456 2553 1204 2497 
Q 953 2441 691 2322 
L 691 4666 
z
" transform="scale(0.015625)"/>
       </defs>
       <use xlink:href="#DejaVuSans-2212"/>
       <use xlink:href="#DejaVuSans-31" x="83.789062"/>
       <use xlink:href="#DejaVuSans-2e" x="147.412109"/>
       <use xlink:href="#DejaVuSans-35" x="179.199219"/>
      </g>
     </g>
    </g>
    <g id="ytick_2">
     <g id="line2d_23">
      <g>
       <use xlink:href="#m119174e141" x="43.339375" y="287.494062" style="stroke: #000000; stroke-width: 0.8"/>
      </g>
     </g>
     <g id="text_8">
      <!-- −1.0 -->
      <g transform="translate(7.2 292.053124)scale(0.12 -0.12)">
       <use xlink:href="#DejaVuSans-2212"/>
       <use xlink:href="#DejaVuSans-31" x="83.789062"/>
       <use xlink:href="#DejaVuSans-2e" x="147.412109"/>
       <use xlink:href="#DejaVuSans-30" x="179.199219"/>
      </g>
     </g>
    </g>
    <g id="ytick_3">
     <g id="line2d_24">
      <g>
       <use xlink:href="#m119174e141" x="43.339375" y="250.37451" style="stroke: #000000; stroke-width: 0.8"/>
      </g>
     </g>
     <g id="text_9">
      <!-- −0.5 -->
      <g transform="translate(7.2 254.933572)scale(0.12 -0.12)">
       <use xlink:href="#DejaVuSans-2212"/>
       <use xlink:href="#DejaVuSans-30" x="83.789062"/>
       <use xlink:href="#DejaVuSans-2e" x="147.412109"/>
       <use xlink:href="#DejaVuSans-35" x="179.199219"/>
      </g>
     </g>
    </g>
    <g id="ytick_4">
     <g id="line2d_25">
      <g>
       <use xlink:href="#m119174e141" x="43.339375" y="213.254958" style="stroke: #000000; stroke-width: 0.8"/>
      </g>
     </g>
    </g>
    <g id="ytick_5">
     <g id="line2d_26">
      <g>
       <use xlink:href="#m119174e141" x="43.339375" y="176.135406" style="stroke: #000000; stroke-width: 0.8"/>
      </g>
     </g>
     <g id="text_10">
      <!-- 0.5 -->
      <g transform="translate(17.255625 180.694469)scale(0.12 -0.12)">
       <use xlink:href="#DejaVuSans-30"/>
       <use xlink:href="#DejaVuSans-2e" x="63.623047"/>
       <use xlink:href="#DejaVuSans-35" x="95.410156"/>
      </g>
     </g>
    </g>
    <g id="ytick_6">
     <g id="line2d_27">
      <g>
       <use xlink:href="#m119174e141" x="43.339375" y="139.015854" style="stroke: #000000; stroke-width: 0.8"/>
      </g>
     </g>
     <g id="text_11">
      <!-- 1.0 -->
      <g transform="translate(17.255625 143.574917)scale(0.12 -0.12)">
       <use xlink:href="#DejaVuSans-31"/>
       <use xlink:href="#DejaVuSans-2e" x="63.623047"/>
       <use xlink:href="#DejaVuSans-30" x="95.410156"/>
      </g>
     </g>
    </g>
    <g id="ytick_7">
     <g id="line2d_28">
      <g>
       <use xlink:href="#m119174e141" x="43.339375" y="101.896302" style="stroke: #000000; stroke-width: 0.8"/>
      </g>
     </g>
     <g id="text_12">
      <!-- 1.5 -->
      <g transform="translate(17.255625 106.455365)scale(0.12 -0.12)">
       <use xlink:href="#DejaVuSans-31"/>
       <use xlink:href="#DejaVuSans-2e" x="63.623047"/>
       <use xlink:href="#DejaVuSans-35" x="95.410156"/>
      </g>
     </g>
    </g>
    <g id="ytick_8">
     <g id="line2d_29">
      <g>
       <use xlink:href="#m119174e141" x="43.339375" y="64.77675" style="stroke: #000000; stroke-width: 0.8"/>
      </g>
     </g>
     <g id="text_13">
      <!-- 2.0 -->
      <g transform="translate(17.255625 69.335813)scale(0.12 -0.12)">
       <use xlink:href="#DejaVuSans-32"/>
       <use xlink:href="#DejaVuSans-2e" x="63.623047"/>
       <use xlink:href="#DejaVuSans-30" x="95.410156"/>
      </g>
     </g>
    </g>
    <g id="ytick_9">
     <g id="line2d_30">
      <g>
       <use xlink:href="#m119174e141" x="43.339375" y="27.657198" style="stroke: #000000; stroke-width: 0.8"/>
      </g>
     </g>
     <g id="text_14">
      <!-- 2.5 -->
      <g transform="translate(17.255625 32.216261)scale(0.12 -0.12)">
       <use xlink:href="#DejaVuSans-32"/>
       <use xlink:href="#DejaVuSans-2e" x="63.623047"/>
       <use xlink:href="#DejaVuSans-35" x="95.410156"/>
      </g>
     </g>
    </g>
    <g id="ytick_10">
     <g id="line2d_31">
      <defs>
       <path id="m6d37a83b18" d="M 0 0 
L -2 0 
" style="stroke: #000000; stroke-width: 0.6"/>
      </defs>
      <g>
       <use xlink:href="#m6d37a83b18" x="43.339375" y="317.189703" style="stroke: #000000; stroke-width: 0.6"/>
      </g>
     </g>
    </g>
    <g id="ytick_11">
     <g id="line2d_32">
      <g>
       <use xlink:href="#m6d37a83b18" x="43.339375" y="309.765793" style="stroke: #000000; stroke-width: 0.6"/>
      </g>
     </g>
    </g>
    <g id="ytick_12">
     <g id="line2d_33">
      <g>
       <use xlink:href="#m6d37a83b18" x="43.339375" y="302.341883" style="stroke: #000000; stroke-width: 0.6"/>
      </g>
     </g>
    </g>
    <g id="ytick_13">
     <g id="line2d_34">
      <g>
       <use xlink:href="#m6d37a83b18" x="43.339375" y="294.917972" style="stroke: #000000; stroke-width: 0.6"/>
      </g>
     </g>
    </g>
    <g id="ytick_14">
     <g id="line2d_35">
      <g>
       <use xlink:href="#m6d37a83b18" x="43.339375" y="280.070152" style="stroke: #000000; stroke-width: 0.6"/>
      </g>
     </g>
    </g>
    <g id="ytick_15">
     <g id="line2d_36">
      <g>
       <use xlink:href="#m6d37a83b18" x="43.339375" y="272.646241" style="stroke: #000000; stroke-width: 0.6"/>
      </g>
     </g>
    </g>
    <g id="ytick_16">
     <g id="line2d_37">
      <g>
       <use xlink:href="#m6d37a83b18" x="43.339375" y="265.222331" style="stroke: #000000; stroke-width: 0.6"/>
      </g>
     </g>
    </g>
    <g id="ytick_17">
     <g id="line2d_38">
      <g>
       <use xlink:href="#m6d37a83b18" x="43.339375" y="257.79842" style="stroke: #000000; stroke-width: 0.6"/>
      </g>
     </g>
    </g>
    <g id="ytick_18">
     <g id="line2d_39">
      <g>
       <use xlink:href="#m6d37a83b18" x="43.339375" y="242.9506" style="stroke: #000000; stroke-width: 0.6"/>
      </g>
     </g>
    </g>
    <g id="ytick_19">
     <g id="line2d_40">
      <g>
       <use xlink:href="#m6d37a83b18" x="43.339375" y="235.526689" style="stroke: #000000; stroke-width: 0.6"/>
      </g>
     </g>
    </g>
    <g id="ytick_20">
     <g id="line2d_41">
      <g>
       <use xlink:href="#m6d37a83b18" x="43.339375" y="228.102779" style="stroke: #000000; stroke-width: 0.6"/>
      </g>
     </g>
    </g>
    <g id="ytick_21">
     <g id="line2d_42">
      <g>
       <use xlink:href="#m6d37a83b18" x="43.339375" y="220.678868" style="stroke: #000000; stroke-width: 0.6"/>
      </g>
     </g>
    </g>
    <g id="ytick_22">
     <g id="line2d_43">
      <g>
       <use xlink:href="#m6d37a83b18" x="43.339375" y="205.831048" style="stroke: #000000; stroke-width: 0.6"/>
      </g>
     </g>
    </g>
    <g id="ytick_23">
     <g id="line2d_44">
      <g>
       <use xlink:href="#m6d37a83b18" x="43.339375" y="198.407137" style="stroke: #000000; stroke-width: 0.6"/>
      </g>
     </g>
    </g>
    <g id="ytick_24">
     <g id="line2d_45">
      <g>
       <use xlink:href="#m6d37a83b18" x="43.339375" y="190.983227" style="stroke: #000000; stroke-width: 0.6"/>
      </g>
     </g>
    </g>
    <g id="ytick_25">
     <g id="line2d_46">
      <g>
       <use xlink:href="#m6d37a83b18" x="43.339375" y="183.559317" style="stroke: #000000; stroke-width: 0.6"/>
      </g>
     </g>
    </g>
    <g id="ytick_26">
     <g id="line2d_47">
      <g>
       <use xlink:href="#m6d37a83b18" x="43.339375" y="168.711496" style="stroke: #000000; stroke-width: 0.6"/>
      </g>
     </g>
    </g>
    <g id="ytick_27">
     <g id="line2d_48">
      <g>
       <use xlink:href="#m6d37a83b18" x="43.339375" y="161.287585" style="stroke: #000000; stroke-width: 0.6"/>
      </g>
     </g>
    </g>
    <g id="ytick_28">
     <g id="line2d_49">
      <g>
       <use xlink:href="#m6d37a83b18" x="43.339375" y="153.863675" style="stroke: #000000; stroke-width: 0.6"/>
      </g>
     </g>
    </g>
    <g id="ytick_29">
     <g id="line2d_50">
      <g>
       <use xlink:href="#m6d37a83b18" x="43.339375" y="146.439765" style="stroke: #000000; stroke-width: 0.6"/>
      </g>
     </g>
    </g>
    <g id="ytick_30">
     <g id="line2d_51">
      <g>
       <use xlink:href="#m6d37a83b18" x="43.339375" y="131.591944" style="stroke: #000000; stroke-width: 0.6"/>
      </g>
     </g>
    </g>
    <g id="ytick_31">
     <g id="line2d_52">
      <g>
       <use xlink:href="#m6d37a83b18" x="43.339375" y="124.168033" style="stroke: #000000; stroke-width: 0.6"/>
      </g>
     </g>
    </g>
    <g id="ytick_32">
     <g id="line2d_53">
      <g>
       <use xlink:href="#m6d37a83b18" x="43.339375" y="116.744123" style="stroke: #000000; stroke-width: 0.6"/>
      </g>
     </g>
    </g>
    <g id="ytick_33">
     <g id="line2d_54">
      <g>
       <use xlink:href="#m6d37a83b18" x="43.339375" y="109.320213" style="stroke: #000000; stroke-width: 0.6"/>
      </g>
     </g>
    </g>
    <g id="ytick_34">
     <g id="line2d_55">
      <g>
       <use xlink:href="#m6d37a83b18" x="43.339375" y="94.472392" style="stroke: #000000; stroke-width: 0.6"/>
      </g>
     </g>
    </g>
    <g id="ytick_35">
     <g id="line2d_56">
      <g>
       <use xlink:href="#m6d37a83b18" x="43.339375" y="87.048481" style="stroke: #000000; stroke-width: 0.6"/>
      </g>
     </g>
    </g>
    <g id="ytick_36">
     <g id="line2d_57">
      <g>
       <use xlink:href="#m6d37a83b18" x="43.339375" y="79.624571" style="stroke: #000000; stroke-width: 0.6"/>
      </g>
     </g>
    </g>
    <g id="ytick_37">
     <g id="line2d_58">
      <g>
       <use xlink:href="#m6d37a83b18" x="43.339375" y="72.200661" style="stroke: #000000; stroke-width: 0.6"/>
      </g>
     </g>
    </g>
    <g id="ytick_38">
     <g id="line2d_59">
      <g>
       <use xlink:href="#m6d37a83b18" x="43.339375" y="57.35284" style="stroke: #000000; stroke-width: 0.6"/>
      </g>
     </g>
    </g>
    <g id="ytick_39">
     <g id="line2d_60">
      <g>
       <use xlink:href="#m6d37a83b18" x="43.339375" y="49.92893" style="stroke: #000000; stroke-width: 0.6"/>
      </g>
     </g>
    </g>
    <g id="ytick_40">
     <g id="line2d_61">
      <g>
       <use xlink:href="#m6d37a83b18" x="43.339375" y="42.505019" style="stroke: #000000; stroke-width: 0.6"/>
      </g>
     </g>
    </g>
    <g id="ytick_41">
     <g id="line2d_62">
      <g>
       <use xlink:href="#m6d37a83b18" x="43.339375" y="35.081109" style="stroke: #000000; stroke-width: 0.6"/>
      </g>
     </g>
    </g>
    <g id="ytick_42">
     <g id="line2d_63">
      <g>
       <use xlink:href="#m6d37a83b18" x="43.339375" y="20.233288" style="stroke: #000000; stroke-width: 0.6"/>
      </g>
     </g>
    </g>
    <g id="ytick_43">
     <g id="line2d_64">
      <g>
       <use xlink:href="#m6d37a83b18" x="43.339375" y="12.809378" style="stroke: #000000; stroke-width: 0.6"/>
      </g>
     </g>
    </g>
   </g>
   <g id="line2d_65">
    <path d="M 43.339375 176.135406 
L 44.621516 174.990438 
L 46.809933 173.442502 
L 48.8715 172.368073 
L 50.851461 171.615907 
L 53.815705 170.889954 
L 56.032357 170.591885 
L 58.018409 170.464695 
L 60.342216 170.452676 
L 62.638385 170.560529 
L 65.751409 170.86272 
L 69.57906 171.437086 
L 73.279306 172.172563 
L 78.785812 173.558079 
L 83.35295 174.956961 
L 89.24857 177.092376 
L 95.077914 179.568987 
L 99.447699 181.661572 
L 105.425398 184.8415 
L 110.634434 187.893929 
L 116.121791 191.364671 
L 122.626146 195.765715 
L 130.866842 201.669457 
L 152.583892 217.560602 
L 159.348333 222.141144 
L 164.649643 225.464801 
L 170.080517 228.564325 
L 175.115252 231.114866 
L 181.030989 233.661736 
L 182.666777 234.273375 
L 188.392172 236.077652 
L 190.757962 236.664731 
L 194.259709 237.357791 
L 198.962528 237.951296 
L 200.000246 238.029553 
L 205.445369 238.126088 
L 207.726025 238.010052 
L 211.582766 237.605855 
L 215.872681 236.854938 
L 217.580216 236.469922 
L 221.160074 235.508575 
L 223.767612 234.681168 
L 227.68484 233.246618 
L 231.454194 231.662209 
L 236.541367 229.235394 
L 241.449003 226.61811 
L 247.108269 223.321549 
L 254.06082 218.967659 
L 267.516144 210.112777 
L 275.134212 205.188579 
L 282.5164 200.712849 
L 287.013892 198.201847 
L 290.323014 196.484156 
L 296.318821 193.69767 
L 301.886586 191.536287 
L 305.721532 190.311429 
L 309.521678 189.324306 
L 312.256153 188.759183 
L 316.311927 188.151637 
L 320.313099 187.828045 
L 323.19916 187.76684 
L 327.574536 187.950153 
L 329.230581 188.105978 
L 333.197724 188.670009 
L 337.768933 189.646699 
L 340.354367 190.349164 
L 345.0053 191.873508 
L 349.422656 193.61381 
L 353.126569 195.275635 
L 357.652398 197.533043 
L 364.290078 201.23153 
L 369.639647 204.4805 
L 378.661594 210.313022 
L 395.912385 221.636216 
L 401.914502 225.292036 
L 408.348627 228.879911 
L 412.292069 230.866683 
L 417.129194 233.046087 
L 422.938958 235.242879 
L 425.743406 236.124682 
L 425.743406 236.124682 
" clip-path="url(#p8542cc6a11)" style="fill: none; stroke: #0000ff; stroke-linecap: square"/>
   </g>
   <g id="line2d_66">
    <path d="M 43.339375 176.135406 
L 44.979596 183.4207 
L 46.628671 189.537948 
L 48.320746 194.770245 
L 50.156744 199.463335 
L 51.520131 202.398999 
L 53.022908 205.182972 
L 54.49929 207.528976 
L 56.079755 209.684043 
L 57.571453 211.437056 
L 60.201981 214.002442 
L 63.013688 216.191028 
L 66.187898 218.194099 
L 71.097207 220.70931 
L 75.711147 222.747159 
L 89.328701 228.3437 
L 101.06055 233.071874 
L 106.196786 235.012977 
L 113.138632 237.378145 
L 117.900325 238.765766 
L 123.246762 240.039582 
L 129.397059 241.07274 
L 135.069403 241.566942 
L 138.906998 241.633525 
L 142.720984 241.477226 
L 147.372073 240.980767 
L 151.943738 240.163778 
L 155.912258 239.192978 
L 160.770028 237.68279 
L 163.695129 236.608963 
L 169.777397 234.00502 
L 173.83091 232.013051 
L 179.583157 228.877153 
L 183.399661 226.623871 
L 191.267603 221.642915 
L 202.297897 214.221861 
L 212.367657 207.446674 
L 217.826366 203.939316 
L 224.191656 200.113327 
L 229.095251 197.421022 
L 234.169981 194.919001 
L 238.086374 193.212578 
L 241.72217 191.820362 
L 244.800596 190.795434 
L 250.148834 189.369842 
L 254.804012 188.513257 
L 256.222085 188.325541 
L 261.145025 187.944097 
L 264.683938 187.931188 
L 268.044559 188.121379 
L 271.907443 188.58145 
L 276.475396 189.452052 
L 279.684238 190.268854 
L 283.062884 191.304742 
L 288.087476 193.161183 
L 292.408889 195.037976 
L 298.179213 197.903919 
L 302.930312 200.530298 
L 308.049589 203.579965 
L 315.256763 208.155858 
L 336.676026 222.177997 
L 343.574117 226.310604 
L 348.021274 228.75866 
L 352.723185 231.118903 
L 357.512788 233.245985 
L 362.468944 235.117276 
L 366.046921 236.242033 
L 369.11411 237.046579 
L 374.289994 238.055356 
L 376.789151 238.380948 
L 378.941696 238.575472 
L 383.939844 238.717364 
L 387.206817 238.575301 
L 391.438685 238.117122 
L 394.696024 237.556927 
L 397.911449 236.831139 
L 402.09789 235.637519 
L 406.820389 233.97035 
L 410.550223 232.429236 
L 413.425077 231.116209 
L 419.496382 228.02155 
L 425.743406 224.450565 
L 425.743406 224.450565 
" clip-path="url(#p8542cc6a11)" style="fill: none; stroke: #ff0000; stroke-linecap: square"/>
   </g>
   <g id="line2d_67">
    <path d="M 43.339375 139.015854 
L 44.742188 136.623897 
L 45.926854 135.071303 
L 47.111521 133.88781 
L 48.032535 133.191543 
L 48.953549 132.668748 
L 50.146169 132.219924 
L 51.318259 131.998314 
L 52.490349 131.964744 
L 53.842975 132.126275 
L 56.226756 132.835697 
L 58.499827 133.901218 
L 61.690654 135.846814 
L 66.57515 139.45143 
L 73.365019 145.048691 
L 92.652606 161.599493 
L 108.381923 175.27892 
L 124.35729 189.549711 
L 139.20336 202.789509 
L 146.53956 209.074857 
L 152.15293 213.663983 
L 158.90512 218.838947 
L 163.648441 222.196713 
L 169.088916 225.715547 
L 173.295084 228.163329 
L 178.036993 230.609868 
L 181.570309 232.202396 
L 185.967998 233.894236 
L 188.431026 234.696021 
L 193.689838 236.046295 
L 196.547518 236.569403 
L 200.972329 237.082673 
L 204.391766 237.231533 
L 207.701182 237.1708 
L 212.288191 236.758012 
L 215.897935 236.170844 
L 221.206358 234.90403 
L 223.854785 234.100463 
L 227.912616 232.66065 
L 233.169525 230.447181 
L 237.848346 228.180756 
L 243.089351 225.357117 
L 250.136205 221.182013 
L 259.65863 215.094839 
L 275.131581 205.046026 
L 282.424276 200.647025 
L 287.666891 197.749718 
L 292.381755 195.385765 
L 296.572557 193.507515 
L 301.619405 191.55774 
L 305.693124 190.254821 
L 310.608199 189.027953 
L 315.528341 188.197108 
L 319.202053 187.844615 
L 321.062409 187.754853 
L 325.394202 187.778524 
L 328.978953 188.043985 
L 333.27966 188.652945 
L 338.729412 189.867912 
L 343.033889 191.163019 
L 347.649041 192.860615 
L 351.042994 194.299246 
L 353.72314 195.540998 
L 357.966845 197.6819 
L 364.987094 201.629116 
L 369.548791 204.411497 
L 376.120635 208.629353 
L 398.171925 223.035878 
L 404.849021 226.972113 
L 409.921139 229.68905 
L 415.036792 232.136513 
L 417.168704 233.059116 
L 422.680817 235.15265 
L 425.743406 236.121873 
L 425.743406 236.121873 
" clip-path="url(#p8542cc6a11)" style="fill: none; stroke: #0000ff; stroke-linecap: square"/>
   </g>
   <g id="line2d_68">
    <path d="M 43.339375 139.015854 
L 44.825015 157.558429 
L 46.142396 171.510011 
L 47.616765 184.74944 
L 48.984645 195.107418 
L 50.248597 203.263647 
L 51.894723 212.148049 
L 52.960837 216.99861 
L 54.427587 222.681334 
L 55.920347 227.4542 
L 57.279078 231.048534 
L 58.795747 234.349118 
L 60.58513 237.440664 
L 62.207747 239.628693 
L 63.976867 241.475993 
L 65.018063 242.345885 
L 66.183373 243.158951 
L 67.540139 243.923228 
L 69.75463 244.830809 
L 71.285561 245.265141 
L 73.765086 245.724269 
L 77.234937 246.029145 
L 81.07487 246.121124 
L 93.147922 246.181545 
L 100.719376 246.491073 
L 121.294237 247.639839 
L 126.938949 247.653801 
L 132.805626 247.378464 
L 138.813343 246.725159 
L 144.041631 245.812016 
L 147.334294 245.061719 
L 152.146357 243.714235 
L 157.765879 241.761164 
L 162.887693 239.631871 
L 166.883362 237.749661 
L 171.230131 235.496025 
L 177.145537 232.116996 
L 182.775965 228.614315 
L 190.68814 223.334314 
L 203.844995 214.098946 
L 212.805322 207.895426 
L 219.89142 203.273816 
L 225.444988 199.930651 
L 229.605405 197.629982 
L 233.337435 195.738009 
L 239.232139 193.121979 
L 244.654132 191.160877 
L 248.09348 190.155483 
L 253.440086 188.980587 
L 257.749865 188.389299 
L 262.226244 188.119012 
L 265.506855 188.145048 
L 270.281387 188.520264 
L 273.49411 188.994751 
L 277.144044 189.745337 
L 281.754382 191.00391 
L 286.254881 192.54969 
L 288.713937 193.518906 
L 294.363483 196.052419 
L 299.974286 198.945669 
L 304.903906 201.747981 
L 311.559678 205.830891 
L 321.797401 212.513781 
L 333.366702 220.11579 
L 340.971895 224.820078 
L 346.833825 228.146252 
L 352.333927 230.952422 
L 356.431066 232.809029 
L 360.592424 234.465726 
L 365.745301 236.168334 
L 370.276182 237.323693 
L 374.324726 238.071386 
L 378.904003 238.582314 
L 381.019952 238.696264 
L 386.054295 238.654507 
L 388.917989 238.434453 
L 392.973039 237.882097 
L 397.342215 236.977824 
L 399.816017 236.327856 
L 402.570103 235.49092 
L 408.210418 233.422721 
L 413.751762 230.964319 
L 419.281616 228.141169 
L 425.743406 224.453374 
L 425.743406 224.453374 
" clip-path="url(#p8542cc6a11)" style="fill: none; stroke: #ff0000; stroke-linecap: square"/>
   </g>
   <g id="line2d_69">
    <path d="M 43.339375 101.896302 
L 44.273152 99.422565 
L 45.206928 97.405377 
L 46.572943 95.178491 
L 47.938959 93.694754 
L 48.794298 93.092561 
L 50.068582 92.599589 
L 51.162705 92.513655 
L 52.256827 92.696619 
L 53.323191 93.099607 
L 54.389555 93.694836 
L 55.616438 94.583949 
L 57.909888 96.720232 
L 60.097404 99.194205 
L 63.777003 103.98202 
L 69.891295 112.779157 
L 80.19331 127.8143 
L 85.90236 135.758267 
L 91.423382 143.109747 
L 98.789625 152.460941 
L 106.017571 161.221926 
L 114.063403 170.598737 
L 122.163533 179.706921 
L 129.696751 187.887176 
L 138.479896 197.017767 
L 145.655874 204.07315 
L 151.299979 209.306251 
L 156.034225 213.443132 
L 160.415151 217.038883 
L 163.755445 219.61563 
L 168.536219 223.033606 
L 173.260786 226.074571 
L 178.527658 229.039562 
L 183.160696 231.254376 
L 187.019457 232.805148 
L 192.277131 234.473742 
L 196.475158 235.430046 
L 200.245718 236.001162 
L 203.900913 236.294541 
L 206.579209 236.347795 
L 210.476964 236.184018 
L 213.915849 235.806547 
L 217.542253 235.178634 
L 222.19811 234.040456 
L 227.392203 232.356372 
L 232.003833 230.524506 
L 235.839753 228.782566 
L 240.816201 226.261754 
L 246.51523 223.069433 
L 253.936709 218.545524 
L 264.624653 211.643382 
L 274.722336 205.157022 
L 280.921806 201.398253 
L 286.406583 198.314843 
L 290.767158 196.071198 
L 295.402748 193.924342 
L 298.236046 192.746781 
L 302.030696 191.343507 
L 305.770308 190.167867 
L 310.481036 188.997552 
L 314.247152 188.322423 
L 317.432663 187.937754 
L 322.061723 187.689135 
L 324.91343 187.720596 
L 330.318433 188.165861 
L 333.887605 188.733199 
L 337.91264 189.627094 
L 342.485709 190.95745 
L 344.547075 191.661957 
L 350.128896 193.876364 
L 354.379705 195.840502 
L 359.039432 198.238255 
L 364.148988 201.120624 
L 370.485322 204.987628 
L 377.733065 209.679919 
L 396.023271 221.693691 
L 402.174957 225.434194 
L 408.392944 228.89436 
L 411.558954 230.502746 
L 416.240759 232.661342 
L 421.295975 234.664716 
L 425.743406 236.119064 
L 425.743406 236.119064 
" clip-path="url(#p8542cc6a11)" style="fill: none; stroke: #0000ff; stroke-linecap: square"/>
   </g>
   <g id="line2d_70">
    <path d="M 43.339375 101.896302 
L 44.674553 129.483421 
L 45.997674 152.835697 
L 47.327443 172.847398 
L 48.539077 188.460739 
L 50.129168 205.692264 
L 51.312954 216.44777 
L 52.760674 227.546244 
L 54.045459 235.760185 
L 55.378554 242.889028 
L 56.79063 249.112304 
L 58.233375 254.270005 
L 59.497492 257.939905 
L 60.58298 260.546659 
L 62.060594 263.401304 
L 63.741417 265.829794 
L 64.895868 267.076097 
L 66.05032 268.03285 
L 67.034702 268.650509 
L 68.019084 269.10945 
L 69.06014 269.444206 
L 70.101197 269.644764 
L 71.564952 269.735237 
L 73.213136 269.619282 
L 75.645464 269.133652 
L 77.861384 268.465109 
L 82.341836 266.760843 
L 90.5617 263.420757 
L 96.233318 261.401261 
L 100.305491 260.159954 
L 106.276018 258.63032 
L 113.553271 257.106708 
L 131.727095 253.577203 
L 137.150145 252.263034 
L 143.159375 250.534636 
L 146.516044 249.424671 
L 150.946795 247.786822 
L 156.832273 245.293739 
L 160.959013 243.326762 
L 166.413035 240.45641 
L 172.431114 236.9529 
L 178.35982 233.194675 
L 185.112731 228.610492 
L 192.622756 223.245209 
L 212.020553 209.177419 
L 218.699343 204.657314 
L 223.201247 201.807562 
L 230.094462 197.840645 
L 234.492505 195.605527 
L 238.723607 193.702148 
L 242.55279 192.205711 
L 246.683287 190.848047 
L 250.135315 189.927369 
L 255.077145 188.961704 
L 259.431423 188.463866 
L 263.366574 188.302721 
L 265.443421 188.32854 
L 270.768257 188.742432 
L 274.025112 189.238543 
L 277.026467 189.854955 
L 281.920582 191.176299 
L 285.010711 192.203597 
L 289.561577 193.971313 
L 293.269895 195.620153 
L 298.830564 198.405969 
L 304.211929 201.40918 
L 309.762651 204.758845 
L 319.125227 210.789306 
L 334.909677 221.128213 
L 341.220145 224.992588 
L 347.722809 228.643766 
L 352.597991 231.097441 
L 357.585746 233.309434 
L 362.470819 235.147301 
L 367.170176 236.580093 
L 371.839288 237.65629 
L 376.330365 238.349628 
L 379.87733 238.653694 
L 382.979419 238.741014 
L 388.003404 238.527668 
L 391.057829 238.184832 
L 395.245948 237.457311 
L 397.925889 236.839127 
L 402.984144 235.360115 
L 406.536581 234.089011 
L 410.860717 232.300805 
L 416.316066 229.701289 
L 421.046161 227.175136 
L 425.743406 224.456183 
L 425.743406 224.456183 
" clip-path="url(#p8542cc6a11)" style="fill: none; stroke: #ff0000; stroke-linecap: square"/>
   </g>
   <g id="line2d_71">
    <path d="M 43.339375 64.77675 
L 43.973692 62.473269 
L 45.242326 58.754436 
L 46.426192 56.229433 
L 47.242728 54.953923 
L 48.059265 54.017496 
L 48.875802 53.38759 
L 50.170829 52.945105 
L 50.649318 52.93633 
L 51.606297 53.141394 
L 52.748948 53.733823 
L 53.644822 54.429801 
L 55.200288 56.04857 
L 55.85988 56.870803 
L 57.179064 58.719526 
L 59.631809 62.737062 
L 62.505 68.113834 
L 67.379831 78.107468 
L 75.099523 94.385318 
L 79.415738 103.189994 
L 84.869365 113.784964 
L 89.304505 121.931466 
L 92.911617 128.25473 
L 98.76381 137.983013 
L 104.359467 146.740766 
L 110.682496 156.09026 
L 116.242835 163.899027 
L 121.935551 171.539492 
L 129.3752 181.025675 
L 136.193312 189.233319 
L 141.632507 195.435498 
L 146.662807 200.879637 
L 150.062587 204.389219 
L 156.824088 210.927491 
L 162.486291 215.910756 
L 167.042273 219.565783 
L 170.046608 221.792119 
L 173.201266 223.9654 
L 178.121358 227.004678 
L 181.736343 228.955471 
L 185.627956 230.77941 
L 189.032341 232.134892 
L 192.538887 233.29294 
L 196.241509 234.250803 
L 201.514953 235.143339 
L 202.100308 235.208306 
L 206.873389 235.485952 
L 208.424147 235.4804 
L 211.668372 235.319542 
L 215.678585 234.847665 
L 218.008037 234.438986 
L 222.263872 233.447136 
L 227.194584 231.922884 
L 231.354704 230.347242 
L 235.702178 228.443842 
L 239.386315 226.646667 
L 244.495976 223.912192 
L 251.735608 219.65554 
L 258.271137 215.552684 
L 277.369018 203.386703 
L 284.053711 199.490866 
L 287.680159 197.534987 
L 292.848104 194.984408 
L 297.466094 192.975723 
L 301.53925 191.441289 
L 305.264563 190.248802 
L 309.65758 189.117921 
L 313.917434 188.319764 
L 318.40366 187.808466 
L 322.935985 187.642481 
L 326.632433 187.77011 
L 329.969832 188.087641 
L 334.638861 188.849404 
L 339.183097 189.936738 
L 343.482569 191.266083 
L 347.733456 192.8513 
L 352.656131 194.997919 
L 357.028846 197.157414 
L 361.69465 199.691016 
L 369.019801 204.056898 
L 372.966406 206.557952 
L 386.036678 215.192705 
L 395.130069 221.123775 
L 402.02069 225.338634 
L 407.762745 228.556546 
L 413.155987 231.265931 
L 417.172804 233.053803 
L 421.13553 234.60354 
L 425.743406 236.116256 
L 425.743406 236.116256 
" clip-path="url(#p8542cc6a11)" style="fill: none; stroke: #0000ff; stroke-linecap: square"/>
   </g>
   <g id="line2d_72">
    <path d="M 43.339375 64.77675 
L 44.717843 104.288591 
L 46.025692 136.223029 
L 47.439624 165.505802 
L 48.740589 188.294516 
L 50.043544 207.6743 
L 51.346499 224.069923 
L 52.891146 240.191657 
L 54.117707 250.793633 
L 55.317512 259.542797 
L 56.690926 267.853797 
L 58.108472 274.794511 
L 59.50559 280.251873 
L 60.515223 283.460568 
L 61.564683 286.226423 
L 62.614143 288.480222 
L 63.98776 290.758635 
L 65.361378 292.38668 
L 66.820762 293.52052 
L 68.080482 294.08643 
L 69.18775 294.31802 
L 70.295018 294.337884 
L 71.599891 294.131532 
L 72.904764 293.718444 
L 74.300707 293.090737 
L 76.422552 291.854774 
L 79.218365 289.872832 
L 85.924129 284.444101 
L 91.547449 279.944481 
L 94.927228 277.441448 
L 98.914617 274.73262 
L 101.98803 272.8289 
L 105.971513 270.58628 
L 110.700582 268.212631 
L 117.18058 265.351977 
L 124.83811 262.323724 
L 139.324765 256.696791 
L 145.765933 253.928189 
L 151.367014 251.289051 
L 157.701622 248.002869 
L 163.428252 244.74111 
L 169.441375 241.022558 
L 177.53882 235.582155 
L 185.016198 230.199933 
L 194.571986 223.009735 
L 208.212688 212.701023 
L 215.904347 207.190237 
L 221.669269 203.340349 
L 227.249877 199.918064 
L 232.485172 197.034556 
L 235.712279 195.43526 
L 239.083549 193.922257 
L 242.660594 192.50394 
L 244.607992 191.816396 
L 248.031676 190.757725 
L 253.617355 189.456181 
L 256.471061 189.000922 
L 260.662642 188.594419 
L 263.733594 188.496004 
L 268.614621 188.686129 
L 273.451605 189.2887 
L 277.033062 189.99369 
L 280.881648 190.987954 
L 284.956411 192.295841 
L 289.818706 194.178032 
L 294.131895 196.116152 
L 298.558624 198.339877 
L 303.215327 200.902127 
L 307.709816 203.556084 
L 315.554736 208.500452 
L 337.539377 222.798481 
L 344.33745 226.815084 
L 349.796692 229.740745 
L 354.351264 231.92957 
L 357.784667 233.407458 
L 362.638996 235.219026 
L 367.047537 236.560111 
L 370.55507 237.407727 
L 374.252257 238.082014 
L 378.085035 238.536932 
L 381.658973 238.733185 
L 384.707914 238.725284 
L 389.509127 238.385904 
L 393.58031 237.788414 
L 397.426252 236.969137 
L 402.144819 235.638209 
L 406.762296 234.006673 
L 410.363167 232.523593 
L 414.602881 230.559977 
L 419.475197 228.042969 
L 425.743406 224.458991 
L 425.743406 224.458991 
" clip-path="url(#p8542cc6a11)" style="fill: none; stroke: #ff0000; stroke-linecap: square"/>
   </g>
   <g id="line2d_73">
    <path d="M 43.339375 27.657198 
L 44.468711 22.811104 
L 45.598047 19.12747 
L 46.334265 17.281092 
L 47.347134 15.377941 
L 48.360003 14.133827 
L 49.20146 13.545086 
L 50.042916 13.316633 
L 50.884373 13.411597 
L 52.111743 14.061309 
L 53.273845 15.160973 
L 54.435946 16.661416 
L 55.900146 19.029547 
L 57.364346 21.833794 
L 59.63832 26.850606 
L 61.67577 31.840541 
L 65.436623 41.783944 
L 77.619908 75.011015 
L 83.637895 90.24679 
L 88.167958 100.953919 
L 91.78832 109.042609 
L 97.138296 120.280282 
L 100.427002 126.798086 
L 106.147628 137.503207 
L 111.201446 146.365716 
L 115.125572 152.905835 
L 120.984678 162.172709 
L 125.23872 168.557798 
L 131.59741 177.601343 
L 137.391674 185.339982 
L 142.865269 192.214265 
L 148.713657 199.08117 
L 153.173027 203.972734 
L 157.798085 208.716749 
L 161.824078 212.561214 
L 167.594644 217.585941 
L 172.382685 221.300091 
L 176.348087 224.050228 
L 180.989444 226.881369 
L 184.882539 228.925156 
L 189.390612 230.906806 
L 190.458665 231.315111 
L 195.514197 232.92754 
L 199.081655 233.746687 
L 203.341844 234.381092 
L 207.018055 234.631234 
L 210.199353 234.629389 
L 213.495083 234.418722 
L 217.292095 233.920455 
L 221.655045 233.024057 
L 226.169195 231.752693 
L 229.661858 230.54523 
L 233.458864 229.028273 
L 237.557554 227.173343 
L 242.56327 224.638761 
L 247.278781 222.023268 
L 253.904566 218.063325 
L 265.443397 210.737885 
L 276.65307 203.683708 
L 282.15311 200.44356 
L 287.115723 197.725602 
L 290.402902 196.057258 
L 295.852949 193.562365 
L 298.177199 192.612269 
L 302.462498 191.055876 
L 307.328502 189.617311 
L 310.958449 188.785936 
L 314.154719 188.2322 
L 318.415082 187.761105 
L 323.380143 187.604485 
L 327.366443 187.786744 
L 332.277988 188.386041 
L 335.329137 188.963037 
L 338.90268 189.832809 
L 342.543175 190.926746 
L 346.990858 192.533745 
L 351.987777 194.668716 
L 357.361995 197.314077 
L 363.319502 200.607941 
L 369.862601 204.571637 
L 378.179615 209.955416 
L 395.511191 221.358701 
L 399.881432 224.060422 
L 406.518265 227.881392 
L 411.567109 230.498602 
L 417.980936 233.384245 
L 423.264347 235.339363 
L 425.743406 236.113447 
L 425.743406 236.113447 
" clip-path="url(#p8542cc6a11)" style="fill: none; stroke: #0000ff; stroke-linecap: square"/>
   </g>
   <g id="line2d_74">
    <path d="M 43.339375 27.657198 
L 44.862158 83.103836 
L 46.333612 127.874995 
L 47.779401 164.689987 
L 49.055387 192.111886 
L 50.334574 215.483287 
L 51.735588 236.989687 
L 52.933275 252.438647 
L 54.271611 266.938006 
L 55.661181 279.329013 
L 57.05075 289.399248 
L 58.384438 297.200662 
L 59.673675 303.257186 
L 60.924366 307.934854 
L 62.175058 311.598324 
L 62.945929 313.413949 
L 63.7168 314.928803 
L 64.487672 316.170384 
L 65.258543 317.163964 
L 66.035338 317.937857 
L 66.812133 318.505317 
L 67.783955 318.954955 
L 68.755777 319.148295 
L 69.683987 319.123061 
L 70.612197 318.918174 
L 71.743934 318.457806 
L 72.87567 317.800016 
L 74.044222 316.947465 
L 76.566624 314.645345 
L 79.759221 311.133913 
L 86.053638 303.448391 
L 92.050717 296.261827 
L 96.182847 291.700587 
L 100.449037 287.405625 
L 104.571296 283.658559 
L 107.948578 280.864629 
L 112.959598 277.121334 
L 117.597461 274.01147 
L 123.631928 270.342579 
L 130.436202 266.525828 
L 149.372417 256.120481 
L 155.757024 252.317833 
L 162.115024 248.283488 
L 169.26981 243.430024 
L 175.766374 238.750017 
L 183.34331 233.018379 
L 196.542303 222.633484 
L 206.46498 214.865127 
L 214.707947 208.723012 
L 219.196048 205.579512 
L 225.282113 201.617654 
L 229.83414 198.923513 
L 235.42155 195.980793 
L 239.796319 193.987271 
L 243.675145 192.466432 
L 246.616448 191.475782 
L 250.284147 190.444527 
L 254.013614 189.634904 
L 256.265275 189.265127 
L 261.303077 188.766996 
L 265.508883 188.701544 
L 269.248549 188.910015 
L 274.438238 189.608114 
L 277.565967 190.252267 
L 282.49756 191.594947 
L 284.581915 192.27771 
L 289.167395 194.006535 
L 293.185135 195.760388 
L 298.578112 198.42826 
L 302.050923 200.313352 
L 308.709255 204.226553 
L 316.073995 208.887109 
L 337.140173 222.580656 
L 344.276998 226.804689 
L 350.186937 229.95808 
L 354.23588 231.895461 
L 357.812145 233.435246 
L 361.550857 234.85763 
L 366.878094 236.527251 
L 370.374557 237.380938 
L 374.946395 238.193595 
L 377.991139 238.538588 
L 381.072946 238.725219 
L 383.105278 238.758156 
L 388.021511 238.541172 
L 391.262962 238.169929 
L 395.806982 237.349914 
L 399.115528 236.538723 
L 404.10246 234.989911 
L 409.173666 233.03737 
L 413.775246 230.964594 
L 420.118426 227.69512 
L 425.743406 224.4618 
L 425.743406 224.4618 
" clip-path="url(#p8542cc6a11)" style="fill: none; stroke: #ff0000; stroke-linecap: square"/>
   </g>
   <g id="patch_3">
    <path d="M 43.339375 325.264929 
L 43.339375 7.2 
" style="fill: none; stroke: #000000; stroke-width: 0.8; stroke-linejoin: miter; stroke-linecap: square"/>
   </g>
   <g id="patch_4">
    <path d="M 35.691294 213.254958 
L 433.391487 213.254958 
" style="fill: none; stroke: #000000; stroke-width: 0.8; stroke-linejoin: miter; stroke-linecap: square"/>
   </g>
   <g id="legend_1">
    <g id="patch_5">
     <path d="M 388.091487 46.596875 
L 430.391487 46.596875 
L 430.391487 14.2 
L 388.091487 14.2 
z
" style="fill: #4c4c4c; opacity: 0.5; stroke: #4c4c4c; stroke-linejoin: miter"/>
    </g>
    <g id="patch_6">
     <path d="M 386.091487 44.596875 
L 428.391487 44.596875 
L 428.391487 12.2 
L 386.091487 12.2 
z
" style="fill: #ffffff; stroke: #cccccc; stroke-linejoin: miter"/>
    </g>
    <g id="line2d_75">
     <path d="M 395.091487 22.298438 
L 389.591487 22.298438 
" style="fill: none; stroke: #0000ff; stroke-linecap: square"/>
    </g>
    <g id="text_15">
     <!-- $x(t)$ -->
     <g transform="translate(397.591487 25.798438)scale(0.1 -0.1)">
      <defs>
       <path id="Cmmi10-78" d="M 500 184 
Q 613 97 819 97 
Q 1019 97 1172 289 
Q 1325 481 1381 709 
L 1672 1844 
Q 1741 2153 1741 2266 
Q 1741 2425 1652 2544 
Q 1563 2663 1403 2663 
Q 1200 2663 1022 2536 
Q 844 2409 722 2214 
Q 600 2019 550 1819 
Q 538 1778 500 1778 
L 422 1778 
Q 372 1778 372 1838 
L 372 1856 
Q 434 2094 584 2320 
Q 734 2547 951 2687 
Q 1169 2828 1416 2828 
Q 1650 2828 1839 2703 
Q 2028 2578 2106 2363 
Q 2216 2559 2386 2693 
Q 2556 2828 2759 2828 
Q 2897 2828 3040 2779 
Q 3184 2731 3275 2631 
Q 3366 2531 3366 2381 
Q 3366 2219 3261 2101 
Q 3156 1984 2994 1984 
Q 2891 1984 2822 2050 
Q 2753 2116 2753 2216 
Q 2753 2350 2845 2451 
Q 2938 2553 3066 2572 
Q 2950 2663 2747 2663 
Q 2541 2663 2389 2472 
Q 2238 2281 2175 2047 
L 1894 916 
Q 1825 659 1825 494 
Q 1825 331 1917 214 
Q 2009 97 2163 97 
Q 2463 97 2698 361 
Q 2934 625 3009 941 
Q 3022 978 3059 978 
L 3138 978 
Q 3163 978 3178 961 
Q 3194 944 3194 922 
Q 3194 916 3188 903 
Q 3097 522 2806 225 
Q 2516 -72 2150 -72 
Q 1916 -72 1727 54 
Q 1538 181 1459 397 
Q 1359 209 1182 68 
Q 1006 -72 806 -72 
Q 669 -72 523 -23 
Q 378 25 287 125 
Q 197 225 197 378 
Q 197 528 301 651 
Q 406 775 563 775 
Q 669 775 741 711 
Q 813 647 813 544 
Q 813 409 723 309 
Q 634 209 500 184 
z
" transform="scale(0.015625)"/>
       <path id="Cmr10-28" d="M 1984 -1588 
Q 1628 -1306 1370 -942 
Q 1113 -578 948 -165 
Q 784 247 703 697 
Q 622 1147 622 1600 
Q 622 2059 703 2509 
Q 784 2959 951 3375 
Q 1119 3791 1378 4153 
Q 1638 4516 1984 4788 
Q 1984 4800 2016 4800 
L 2075 4800 
Q 2094 4800 2109 4783 
Q 2125 4766 2125 4744 
Q 2125 4716 2113 4703 
Q 1800 4397 1592 4047 
Q 1384 3697 1257 3301 
Q 1131 2906 1075 2482 
Q 1019 2059 1019 1600 
Q 1019 -434 2106 -1491 
Q 2125 -1509 2125 -1544 
Q 2125 -1559 2108 -1579 
Q 2091 -1600 2075 -1600 
L 2016 -1600 
Q 1984 -1600 1984 -1588 
z
" transform="scale(0.015625)"/>
       <path id="Cmr10-29" d="M 416 -1600 
Q 359 -1600 359 -1544 
Q 359 -1516 372 -1503 
Q 1466 -434 1466 1600 
Q 1466 3634 384 4691 
Q 359 4706 359 4744 
Q 359 4766 376 4783 
Q 394 4800 416 4800 
L 475 4800 
Q 494 4800 506 4788 
Q 966 4425 1272 3906 
Q 1578 3388 1720 2800 
Q 1863 2213 1863 1600 
Q 1863 1147 1786 708 
Q 1709 269 1542 -157 
Q 1375 -584 1119 -945 
Q 863 -1306 506 -1588 
Q 494 -1600 475 -1600 
L 416 -1600 
z
" transform="scale(0.015625)"/>
      </defs>
      <use xlink:href="#Cmmi10-78"/>
      <use xlink:href="#Cmr10-28" transform="translate(57.080078 0)"/>
      <use xlink:href="#Cmmi10-74" transform="translate(95.898438 0)"/>
      <use xlink:href="#Cmr10-29" transform="translate(131.982422 0)"/>
     </g>
    </g>
    <g id="line2d_76">
     <path d="M 395.091487 32.596875 
L 389.591487 32.596875 
" style="fill: none; stroke: #ff0000; stroke-linecap: square"/>
    </g>
    <g id="text_16">
     <!-- $dx/dt$ -->
     <g transform="translate(397.591487 36.096875)scale(0.1 -0.1)">
      <defs>
       <path id="Cmmi10-64" d="M 1113 -72 
Q 709 -72 476 233 
Q 244 538 244 953 
Q 244 1363 456 1803 
Q 669 2244 1030 2536 
Q 1391 2828 1806 2828 
Q 1994 2828 2145 2723 
Q 2297 2619 2381 2444 
L 2741 3872 
Q 2766 3981 2772 4044 
Q 2772 4147 2356 4147 
Q 2291 4147 2291 4231 
Q 2294 4247 2305 4287 
Q 2316 4328 2333 4350 
Q 2350 4372 2381 4372 
L 3244 4441 
Q 3322 4441 3322 4359 
L 2400 678 
Q 2356 572 2356 372 
Q 2356 97 2541 97 
Q 2741 97 2845 351 
Q 2950 606 3022 941 
Q 3034 978 3072 978 
L 3150 978 
Q 3175 978 3190 956 
Q 3206 934 3206 916 
Q 3094 469 2961 198 
Q 2828 -72 2528 -72 
Q 2313 -72 2147 54 
Q 1981 181 1941 391 
Q 1528 -72 1113 -72 
z
M 1119 97 
Q 1350 97 1567 270 
Q 1784 444 1941 678 
Q 1947 684 1947 703 
L 2297 2113 
Q 2259 2338 2131 2500 
Q 2003 2663 1791 2663 
Q 1575 2663 1389 2486 
Q 1203 2309 1075 2069 
Q 950 1813 836 1366 
Q 722 919 722 672 
Q 722 450 817 273 
Q 913 97 1119 97 
z
" transform="scale(0.015625)"/>
       <path id="Cmmi10-3d" d="M 359 -1472 
Q 359 -1453 366 -1447 
L 2591 4722 
Q 2603 4759 2634 4779 
Q 2666 4800 2706 4800 
Q 2763 4800 2798 4765 
Q 2834 4731 2834 4672 
L 2834 4647 
L 609 -1522 
Q 572 -1600 488 -1600 
Q 434 -1600 396 -1562 
Q 359 -1525 359 -1472 
z
" transform="scale(0.015625)"/>
      </defs>
      <use xlink:href="#Cmmi10-64"/>
      <use xlink:href="#Cmmi10-78" transform="translate(52.001953 0)"/>
      <use xlink:href="#Cmmi10-3d" transform="translate(109.082031 0)"/>
      <use xlink:href="#Cmmi10-64" transform="translate(159.082031 0)"/>
      <use xlink:href="#Cmmi10-74" transform="translate(211.083984 0)"/>
     </g>
    </g>
   </g>
  </g>
 </g>
 <defs>
  <clipPath id="p8542cc6a11">
   <rect x="35.691294" y="7.2" width="397.700192" height="318.064929"/>
  </clipPath>
 </defs>
</svg>
