<?xml version="1.0" encoding="utf-8" standalone="no"?>
<!DOCTYPE svg PUBLIC "-//W3C//DTD SVG 1.1//EN"
  "http://www.w3.org/Graphics/SVG/1.1/DTD/svg11.dtd">
<svg xmlns:xlink="http://www.w3.org/1999/xlink" width="455.004702pt" height="343.332646pt" viewBox="0 0 455.004702 343.332646" xmlns="http://www.w3.org/2000/svg" version="1.1">
 <metadata>
  <rdf:RDF xmlns:dc="http://purl.org/dc/elements/1.1/" xmlns:cc="http://creativecommons.org/ns#" xmlns:rdf="http://www.w3.org/1999/02/22-rdf-syntax-ns#">
   <cc:Work>
    <dc:type rdf:resource="http://purl.org/dc/dcmitype/StillImage"/>
    <dc:date>2024-01-20T22:27:31.509036</dc:date>
    <dc:format>image/svg+xml</dc:format>
    <dc:creator>
     <cc:Agent>
      <dc:title>Matplotlib v3.5.1, https://matplotlib.org/</dc:title>
     </cc:Agent>
    </dc:creator>
   </cc:Work>
  </rdf:RDF>
 </metadata>
 <defs>
  <style type="text/css">*{stroke-linejoin: round; stroke-linecap: butt}</style>
 </defs>
 <g id="figure_1">
  <g id="patch_1">
   <path d="M 0 343.332646 
L 455.004702 343.332646 
L 455.004702 0 
L 0 0 
z
" style="fill: #ffffff"/>
  </g>
  <g id="axes_1">
   <g id="patch_2">
    <path d="M 29.748143 336.117538 
L 433.884702 336.117538 
L 433.884702 31.2 
L 29.748143 31.2 
z
" style="fill: #ffffff"/>
   </g>
   <g id="matplotlib.axis_1">
    <g id="xtick_1">
     <g id="line2d_1">
      <defs>
       <path id="m5f16cd5aa8" d="M 0 0 
L 0 3.5 
" style="stroke: #000000; stroke-width: 0.8"/>
      </defs>
      <g>
       <use xlink:href="#m5f16cd5aa8" x="37.52" y="183.658769" style="stroke: #000000; stroke-width: 0.8"/>
      </g>
     </g>
    </g>
    <g id="xtick_2">
     <g id="line2d_2">
      <g>
       <use xlink:href="#m5f16cd5aa8" x="115.238569" y="183.658769" style="stroke: #000000; stroke-width: 0.8"/>
      </g>
     </g>
     <g id="text_1">
      <!-- 1 -->
      <g transform="translate(112.057319 198.257207)scale(0.1 -0.1)">
       <defs>
        <path id="DejaVuSans-31" d="M 794 531 
L 1825 531 
L 1825 4091 
L 703 3866 
L 703 4441 
L 1819 4666 
L 2450 4666 
L 2450 531 
L 3481 531 
L 3481 0 
L 794 0 
L 794 531 
z
" transform="scale(0.015625)"/>
       </defs>
       <use xlink:href="#DejaVuSans-31"/>
      </g>
     </g>
    </g>
    <g id="xtick_3">
     <g id="line2d_3">
      <g>
       <use xlink:href="#m5f16cd5aa8" x="192.957138" y="183.658769" style="stroke: #000000; stroke-width: 0.8"/>
      </g>
     </g>
     <g id="text_2">
      <!-- 2 -->
      <g transform="translate(189.775888 198.257207)scale(0.1 -0.1)">
       <defs>
        <path id="DejaVuSans-32" d="M 1228 531 
L 3431 531 
L 3431 0 
L 469 0 
L 469 531 
Q 828 903 1448 1529 
Q 2069 2156 2228 2338 
Q 2531 2678 2651 2914 
Q 2772 3150 2772 3378 
Q 2772 3750 2511 3984 
Q 2250 4219 1831 4219 
Q 1534 4219 1204 4116 
Q 875 4013 500 3803 
L 500 4441 
Q 881 4594 1212 4672 
Q 1544 4750 1819 4750 
Q 2544 4750 2975 4387 
Q 3406 4025 3406 3419 
Q 3406 3131 3298 2873 
Q 3191 2616 2906 2266 
Q 2828 2175 2409 1742 
Q 1991 1309 1228 531 
z
" transform="scale(0.015625)"/>
       </defs>
       <use xlink:href="#DejaVuSans-32"/>
      </g>
     </g>
    </g>
    <g id="xtick_4">
     <g id="line2d_4">
      <g>
       <use xlink:href="#m5f16cd5aa8" x="270.675707" y="183.658769" style="stroke: #000000; stroke-width: 0.8"/>
      </g>
     </g>
     <g id="text_3">
      <!-- 3 -->
      <g transform="translate(267.494457 198.257207)scale(0.1 -0.1)">
       <defs>
        <path id="DejaVuSans-33" d="M 2597 2516 
Q 3050 2419 3304 2112 
Q 3559 1806 3559 1356 
Q 3559 666 3084 287 
Q 2609 -91 1734 -91 
Q 1441 -91 1130 -33 
Q 819 25 488 141 
L 488 750 
Q 750 597 1062 519 
Q 1375 441 1716 441 
Q 2309 441 2620 675 
Q 2931 909 2931 1356 
Q 2931 1769 2642 2001 
Q 2353 2234 1838 2234 
L 1294 2234 
L 1294 2753 
L 1863 2753 
Q 2328 2753 2575 2939 
Q 2822 3125 2822 3475 
Q 2822 3834 2567 4026 
Q 2313 4219 1838 4219 
Q 1578 4219 1281 4162 
Q 984 4106 628 3988 
L 628 4550 
Q 988 4650 1302 4700 
Q 1616 4750 1894 4750 
Q 2613 4750 3031 4423 
Q 3450 4097 3450 3541 
Q 3450 3153 3228 2886 
Q 3006 2619 2597 2516 
z
" transform="scale(0.015625)"/>
       </defs>
       <use xlink:href="#DejaVuSans-33"/>
      </g>
     </g>
    </g>
    <g id="xtick_5">
     <g id="line2d_5">
      <g>
       <use xlink:href="#m5f16cd5aa8" x="348.394276" y="183.658769" style="stroke: #000000; stroke-width: 0.8"/>
      </g>
     </g>
     <g id="text_4">
      <!-- 4 -->
      <g transform="translate(345.213026 198.257207)scale(0.1 -0.1)">
       <defs>
        <path id="DejaVuSans-34" d="M 2419 4116 
L 825 1625 
L 2419 1625 
L 2419 4116 
z
M 2253 4666 
L 3047 4666 
L 3047 1625 
L 3713 1625 
L 3713 1100 
L 3047 1100 
L 3047 0 
L 2419 0 
L 2419 1100 
L 313 1100 
L 313 1709 
L 2253 4666 
z
" transform="scale(0.015625)"/>
       </defs>
       <use xlink:href="#DejaVuSans-34"/>
      </g>
     </g>
    </g>
    <g id="xtick_6">
     <g id="line2d_6">
      <g>
       <use xlink:href="#m5f16cd5aa8" x="426.112845" y="183.658769" style="stroke: #000000; stroke-width: 0.8"/>
      </g>
     </g>
     <g id="text_5">
      <!-- 5 -->
      <g transform="translate(422.931595 198.257207)scale(0.1 -0.1)">
       <defs>
        <path id="DejaVuSans-35" d="M 691 4666 
L 3169 4666 
L 3169 4134 
L 1269 4134 
L 1269 2991 
Q 1406 3038 1543 3061 
Q 1681 3084 1819 3084 
Q 2600 3084 3056 2656 
Q 3513 2228 3513 1497 
Q 3513 744 3044 326 
Q 2575 -91 1722 -91 
Q 1428 -91 1123 -41 
Q 819 9 494 109 
L 494 744 
Q 775 591 1075 516 
Q 1375 441 1709 441 
Q 2250 441 2565 725 
Q 2881 1009 2881 1497 
Q 2881 1984 2565 2268 
Q 2250 2553 1709 2553 
Q 1456 2553 1204 2497 
Q 953 2441 691 2322 
L 691 4666 
z
" transform="scale(0.015625)"/>
       </defs>
       <use xlink:href="#DejaVuSans-35"/>
      </g>
     </g>
    </g>
    <g id="xtick_7">
     <g id="line2d_7">
      <defs>
       <path id="m93c282482d" d="M 0 0 
L 0 2 
" style="stroke: #000000; stroke-width: 0.6"/>
      </defs>
      <g>
       <use xlink:href="#m93c282482d" x="53.063714" y="183.658769" style="stroke: #000000; stroke-width: 0.6"/>
      </g>
     </g>
    </g>
    <g id="xtick_8">
     <g id="line2d_8">
      <g>
       <use xlink:href="#m93c282482d" x="68.607428" y="183.658769" style="stroke: #000000; stroke-width: 0.6"/>
      </g>
     </g>
    </g>
    <g id="xtick_9">
     <g id="line2d_9">
      <g>
       <use xlink:href="#m93c282482d" x="84.151141" y="183.658769" style="stroke: #000000; stroke-width: 0.6"/>
      </g>
     </g>
    </g>
    <g id="xtick_10">
     <g id="line2d_10">
      <g>
       <use xlink:href="#m93c282482d" x="99.694855" y="183.658769" style="stroke: #000000; stroke-width: 0.6"/>
      </g>
     </g>
    </g>
    <g id="xtick_11">
     <g id="line2d_11">
      <g>
       <use xlink:href="#m93c282482d" x="130.782283" y="183.658769" style="stroke: #000000; stroke-width: 0.6"/>
      </g>
     </g>
    </g>
    <g id="xtick_12">
     <g id="line2d_12">
      <g>
       <use xlink:href="#m93c282482d" x="146.325997" y="183.658769" style="stroke: #000000; stroke-width: 0.6"/>
      </g>
     </g>
    </g>
    <g id="xtick_13">
     <g id="line2d_13">
      <g>
       <use xlink:href="#m93c282482d" x="161.86971" y="183.658769" style="stroke: #000000; stroke-width: 0.6"/>
      </g>
     </g>
    </g>
    <g id="xtick_14">
     <g id="line2d_14">
      <g>
       <use xlink:href="#m93c282482d" x="177.413424" y="183.658769" style="stroke: #000000; stroke-width: 0.6"/>
      </g>
     </g>
    </g>
    <g id="xtick_15">
     <g id="line2d_15">
      <g>
       <use xlink:href="#m93c282482d" x="208.500852" y="183.658769" style="stroke: #000000; stroke-width: 0.6"/>
      </g>
     </g>
    </g>
    <g id="xtick_16">
     <g id="line2d_16">
      <g>
       <use xlink:href="#m93c282482d" x="224.044565" y="183.658769" style="stroke: #000000; stroke-width: 0.6"/>
      </g>
     </g>
    </g>
    <g id="xtick_17">
     <g id="line2d_17">
      <g>
       <use xlink:href="#m93c282482d" x="239.588279" y="183.658769" style="stroke: #000000; stroke-width: 0.6"/>
      </g>
     </g>
    </g>
    <g id="xtick_18">
     <g id="line2d_18">
      <g>
       <use xlink:href="#m93c282482d" x="255.131993" y="183.658769" style="stroke: #000000; stroke-width: 0.6"/>
      </g>
     </g>
    </g>
    <g id="xtick_19">
     <g id="line2d_19">
      <g>
       <use xlink:href="#m93c282482d" x="286.219421" y="183.658769" style="stroke: #000000; stroke-width: 0.6"/>
      </g>
     </g>
    </g>
    <g id="xtick_20">
     <g id="line2d_20">
      <g>
       <use xlink:href="#m93c282482d" x="301.763134" y="183.658769" style="stroke: #000000; stroke-width: 0.6"/>
      </g>
     </g>
    </g>
    <g id="xtick_21">
     <g id="line2d_21">
      <g>
       <use xlink:href="#m93c282482d" x="317.306848" y="183.658769" style="stroke: #000000; stroke-width: 0.6"/>
      </g>
     </g>
    </g>
    <g id="xtick_22">
     <g id="line2d_22">
      <g>
       <use xlink:href="#m93c282482d" x="332.850562" y="183.658769" style="stroke: #000000; stroke-width: 0.6"/>
      </g>
     </g>
    </g>
    <g id="xtick_23">
     <g id="line2d_23">
      <g>
       <use xlink:href="#m93c282482d" x="363.93799" y="183.658769" style="stroke: #000000; stroke-width: 0.6"/>
      </g>
     </g>
    </g>
    <g id="xtick_24">
     <g id="line2d_24">
      <g>
       <use xlink:href="#m93c282482d" x="379.481703" y="183.658769" style="stroke: #000000; stroke-width: 0.6"/>
      </g>
     </g>
    </g>
    <g id="xtick_25">
     <g id="line2d_25">
      <g>
       <use xlink:href="#m93c282482d" x="395.025417" y="183.658769" style="stroke: #000000; stroke-width: 0.6"/>
      </g>
     </g>
    </g>
    <g id="xtick_26">
     <g id="line2d_26">
      <g>
       <use xlink:href="#m93c282482d" x="410.569131" y="183.658769" style="stroke: #000000; stroke-width: 0.6"/>
      </g>
     </g>
    </g>
    <g id="text_6">
     <!-- $t$ -->
     <g transform="translate(441.884702 183.658769)scale(0.16 -0.16)">
      <defs>
       <path id="Cmmi10-74" d="M 397 519 
Q 397 613 416 697 
L 878 2534 
L 206 2534 
Q 141 2534 141 2619 
Q 166 2759 225 2759 
L 934 2759 
L 1191 3803 
Q 1216 3888 1291 3947 
Q 1366 4006 1459 4006 
Q 1541 4006 1595 3957 
Q 1650 3909 1650 3828 
Q 1650 3809 1648 3798 
Q 1647 3788 1644 3775 
L 1388 2759 
L 2047 2759 
Q 2113 2759 2113 2675 
Q 2109 2659 2100 2621 
Q 2091 2584 2075 2559 
Q 2059 2534 2028 2534 
L 1331 2534 
L 872 684 
Q 825 503 825 372 
Q 825 97 1013 97 
Q 1294 97 1511 361 
Q 1728 625 1844 941 
Q 1869 978 1894 978 
L 1972 978 
Q 1997 978 2012 961 
Q 2028 944 2028 922 
Q 2028 909 2022 903 
Q 1881 516 1612 222 
Q 1344 -72 997 -72 
Q 744 -72 570 93 
Q 397 259 397 519 
z
" transform="scale(0.015625)"/>
      </defs>
      <use xlink:href="#Cmmi10-74" transform="translate(0 0.40625)"/>
     </g>
    </g>
   </g>
   <g id="matplotlib.axis_2">
    <g id="ytick_1">
     <g id="line2d_27">
      <defs>
       <path id="m3f7a3ffb21" d="M 0 0 
L -3.5 0 
" style="stroke: #000000; stroke-width: 0.8"/>
      </defs>
      <g>
       <use xlink:href="#m3f7a3ffb21" x="37.52" y="330.25374" style="stroke: #000000; stroke-width: 0.8"/>
      </g>
     </g>
     <g id="text_7">
      <!-- −6 -->
      <g transform="translate(15.777813 334.052958)scale(0.1 -0.1)">
       <defs>
        <path id="DejaVuSans-2212" d="M 678 2272 
L 4684 2272 
L 4684 1741 
L 678 1741 
L 678 2272 
z
" transform="scale(0.015625)"/>
        <path id="DejaVuSans-36" d="M 2113 2584 
Q 1688 2584 1439 2293 
Q 1191 2003 1191 1497 
Q 1191 994 1439 701 
Q 1688 409 2113 409 
Q 2538 409 2786 701 
Q 3034 994 3034 1497 
Q 3034 2003 2786 2293 
Q 2538 2584 2113 2584 
z
M 3366 4563 
L 3366 3988 
Q 3128 4100 2886 4159 
Q 2644 4219 2406 4219 
Q 1781 4219 1451 3797 
Q 1122 3375 1075 2522 
Q 1259 2794 1537 2939 
Q 1816 3084 2150 3084 
Q 2853 3084 3261 2657 
Q 3669 2231 3669 1497 
Q 3669 778 3244 343 
Q 2819 -91 2113 -91 
Q 1303 -91 875 529 
Q 447 1150 447 2328 
Q 447 3434 972 4092 
Q 1497 4750 2381 4750 
Q 2619 4750 2861 4703 
Q 3103 4656 3366 4563 
z
" transform="scale(0.015625)"/>
       </defs>
       <use xlink:href="#DejaVuSans-2212"/>
       <use xlink:href="#DejaVuSans-36" x="83.789062"/>
      </g>
     </g>
    </g>
    <g id="ytick_2">
     <g id="line2d_28">
      <g>
       <use xlink:href="#m3f7a3ffb21" x="37.52" y="281.38875" style="stroke: #000000; stroke-width: 0.8"/>
      </g>
     </g>
     <g id="text_8">
      <!-- −4 -->
      <g transform="translate(15.777813 285.187968)scale(0.1 -0.1)">
       <use xlink:href="#DejaVuSans-2212"/>
       <use xlink:href="#DejaVuSans-34" x="83.789062"/>
      </g>
     </g>
    </g>
    <g id="ytick_3">
     <g id="line2d_29">
      <g>
       <use xlink:href="#m3f7a3ffb21" x="37.52" y="232.523759" style="stroke: #000000; stroke-width: 0.8"/>
      </g>
     </g>
     <g id="text_9">
      <!-- −2 -->
      <g transform="translate(15.777813 236.322978)scale(0.1 -0.1)">
       <use xlink:href="#DejaVuSans-2212"/>
       <use xlink:href="#DejaVuSans-32" x="83.789062"/>
      </g>
     </g>
    </g>
    <g id="ytick_4">
     <g id="line2d_30">
      <g>
       <use xlink:href="#m3f7a3ffb21" x="37.52" y="183.658769" style="stroke: #000000; stroke-width: 0.8"/>
      </g>
     </g>
    </g>
    <g id="ytick_5">
     <g id="line2d_31">
      <g>
       <use xlink:href="#m3f7a3ffb21" x="37.52" y="134.793779" style="stroke: #000000; stroke-width: 0.8"/>
      </g>
     </g>
     <g id="text_10">
      <!-- 2 -->
      <g transform="translate(24.1575 138.592998)scale(0.1 -0.1)">
       <use xlink:href="#DejaVuSans-32"/>
      </g>
     </g>
    </g>
    <g id="ytick_6">
     <g id="line2d_32">
      <g>
       <use xlink:href="#m3f7a3ffb21" x="37.52" y="85.928789" style="stroke: #000000; stroke-width: 0.8"/>
      </g>
     </g>
     <g id="text_11">
      <!-- 4 -->
      <g transform="translate(24.1575 89.728008)scale(0.1 -0.1)">
       <use xlink:href="#DejaVuSans-34"/>
      </g>
     </g>
    </g>
    <g id="ytick_7">
     <g id="line2d_33">
      <g>
       <use xlink:href="#m3f7a3ffb21" x="37.52" y="37.063799" style="stroke: #000000; stroke-width: 0.8"/>
      </g>
     </g>
     <g id="text_12">
      <!-- 6 -->
      <g transform="translate(24.1575 40.863018)scale(0.1 -0.1)">
       <use xlink:href="#DejaVuSans-36"/>
      </g>
     </g>
    </g>
    <g id="ytick_8">
     <g id="line2d_34">
      <defs>
       <path id="m3efdfc842b" d="M 0 0 
L -2 0 
" style="stroke: #000000; stroke-width: 0.6"/>
      </defs>
      <g>
       <use xlink:href="#m3efdfc842b" x="37.52" y="318.037492" style="stroke: #000000; stroke-width: 0.6"/>
      </g>
     </g>
    </g>
    <g id="ytick_9">
     <g id="line2d_35">
      <g>
       <use xlink:href="#m3efdfc842b" x="37.52" y="305.821245" style="stroke: #000000; stroke-width: 0.6"/>
      </g>
     </g>
    </g>
    <g id="ytick_10">
     <g id="line2d_36">
      <g>
       <use xlink:href="#m3efdfc842b" x="37.52" y="293.604997" style="stroke: #000000; stroke-width: 0.6"/>
      </g>
     </g>
    </g>
    <g id="ytick_11">
     <g id="line2d_37">
      <g>
       <use xlink:href="#m3efdfc842b" x="37.52" y="269.172502" style="stroke: #000000; stroke-width: 0.6"/>
      </g>
     </g>
    </g>
    <g id="ytick_12">
     <g id="line2d_38">
      <g>
       <use xlink:href="#m3efdfc842b" x="37.52" y="256.956254" style="stroke: #000000; stroke-width: 0.6"/>
      </g>
     </g>
    </g>
    <g id="ytick_13">
     <g id="line2d_39">
      <g>
       <use xlink:href="#m3efdfc842b" x="37.52" y="244.740007" style="stroke: #000000; stroke-width: 0.6"/>
      </g>
     </g>
    </g>
    <g id="ytick_14">
     <g id="line2d_40">
      <g>
       <use xlink:href="#m3efdfc842b" x="37.52" y="220.307512" style="stroke: #000000; stroke-width: 0.6"/>
      </g>
     </g>
    </g>
    <g id="ytick_15">
     <g id="line2d_41">
      <g>
       <use xlink:href="#m3efdfc842b" x="37.52" y="208.091264" style="stroke: #000000; stroke-width: 0.6"/>
      </g>
     </g>
    </g>
    <g id="ytick_16">
     <g id="line2d_42">
      <g>
       <use xlink:href="#m3efdfc842b" x="37.52" y="195.875017" style="stroke: #000000; stroke-width: 0.6"/>
      </g>
     </g>
    </g>
    <g id="ytick_17">
     <g id="line2d_43">
      <g>
       <use xlink:href="#m3efdfc842b" x="37.52" y="171.442522" style="stroke: #000000; stroke-width: 0.6"/>
      </g>
     </g>
    </g>
    <g id="ytick_18">
     <g id="line2d_44">
      <g>
       <use xlink:href="#m3efdfc842b" x="37.52" y="159.226274" style="stroke: #000000; stroke-width: 0.6"/>
      </g>
     </g>
    </g>
    <g id="ytick_19">
     <g id="line2d_45">
      <g>
       <use xlink:href="#m3efdfc842b" x="37.52" y="147.010027" style="stroke: #000000; stroke-width: 0.6"/>
      </g>
     </g>
    </g>
    <g id="ytick_20">
     <g id="line2d_46">
      <g>
       <use xlink:href="#m3efdfc842b" x="37.52" y="122.577532" style="stroke: #000000; stroke-width: 0.6"/>
      </g>
     </g>
    </g>
    <g id="ytick_21">
     <g id="line2d_47">
      <g>
       <use xlink:href="#m3efdfc842b" x="37.52" y="110.361284" style="stroke: #000000; stroke-width: 0.6"/>
      </g>
     </g>
    </g>
    <g id="ytick_22">
     <g id="line2d_48">
      <g>
       <use xlink:href="#m3efdfc842b" x="37.52" y="98.145036" style="stroke: #000000; stroke-width: 0.6"/>
      </g>
     </g>
    </g>
    <g id="ytick_23">
     <g id="line2d_49">
      <g>
       <use xlink:href="#m3efdfc842b" x="37.52" y="73.712541" style="stroke: #000000; stroke-width: 0.6"/>
      </g>
     </g>
    </g>
    <g id="ytick_24">
     <g id="line2d_50">
      <g>
       <use xlink:href="#m3efdfc842b" x="37.52" y="61.496294" style="stroke: #000000; stroke-width: 0.6"/>
      </g>
     </g>
    </g>
    <g id="ytick_25">
     <g id="line2d_51">
      <g>
       <use xlink:href="#m3efdfc842b" x="37.52" y="49.280046" style="stroke: #000000; stroke-width: 0.6"/>
      </g>
     </g>
    </g>
    <g id="text_13">
     <!-- $x(t), v(t)$ -->
     <g transform="translate(7.2 19.2)scale(0.16 -0.16)">
      <defs>
       <path id="Cmmi10-78" d="M 500 184 
Q 613 97 819 97 
Q 1019 97 1172 289 
Q 1325 481 1381 709 
L 1672 1844 
Q 1741 2153 1741 2266 
Q 1741 2425 1652 2544 
Q 1563 2663 1403 2663 
Q 1200 2663 1022 2536 
Q 844 2409 722 2214 
Q 600 2019 550 1819 
Q 538 1778 500 1778 
L 422 1778 
Q 372 1778 372 1838 
L 372 1856 
Q 434 2094 584 2320 
Q 734 2547 951 2687 
Q 1169 2828 1416 2828 
Q 1650 2828 1839 2703 
Q 2028 2578 2106 2363 
Q 2216 2559 2386 2693 
Q 2556 2828 2759 2828 
Q 2897 2828 3040 2779 
Q 3184 2731 3275 2631 
Q 3366 2531 3366 2381 
Q 3366 2219 3261 2101 
Q 3156 1984 2994 1984 
Q 2891 1984 2822 2050 
Q 2753 2116 2753 2216 
Q 2753 2350 2845 2451 
Q 2938 2553 3066 2572 
Q 2950 2663 2747 2663 
Q 2541 2663 2389 2472 
Q 2238 2281 2175 2047 
L 1894 916 
Q 1825 659 1825 494 
Q 1825 331 1917 214 
Q 2009 97 2163 97 
Q 2463 97 2698 361 
Q 2934 625 3009 941 
Q 3022 978 3059 978 
L 3138 978 
Q 3163 978 3178 961 
Q 3194 944 3194 922 
Q 3194 916 3188 903 
Q 3097 522 2806 225 
Q 2516 -72 2150 -72 
Q 1916 -72 1727 54 
Q 1538 181 1459 397 
Q 1359 209 1182 68 
Q 1006 -72 806 -72 
Q 669 -72 523 -23 
Q 378 25 287 125 
Q 197 225 197 378 
Q 197 528 301 651 
Q 406 775 563 775 
Q 669 775 741 711 
Q 813 647 813 544 
Q 813 409 723 309 
Q 634 209 500 184 
z
" transform="scale(0.015625)"/>
       <path id="Cmr10-28" d="M 1984 -1588 
Q 1628 -1306 1370 -942 
Q 1113 -578 948 -165 
Q 784 247 703 697 
Q 622 1147 622 1600 
Q 622 2059 703 2509 
Q 784 2959 951 3375 
Q 1119 3791 1378 4153 
Q 1638 4516 1984 4788 
Q 1984 4800 2016 4800 
L 2075 4800 
Q 2094 4800 2109 4783 
Q 2125 4766 2125 4744 
Q 2125 4716 2113 4703 
Q 1800 4397 1592 4047 
Q 1384 3697 1257 3301 
Q 1131 2906 1075 2482 
Q 1019 2059 1019 1600 
Q 1019 -434 2106 -1491 
Q 2125 -1509 2125 -1544 
Q 2125 -1559 2108 -1579 
Q 2091 -1600 2075 -1600 
L 2016 -1600 
Q 1984 -1600 1984 -1588 
z
" transform="scale(0.015625)"/>
       <path id="Cmr10-29" d="M 416 -1600 
Q 359 -1600 359 -1544 
Q 359 -1516 372 -1503 
Q 1466 -434 1466 1600 
Q 1466 3634 384 4691 
Q 359 4706 359 4744 
Q 359 4766 376 4783 
Q 394 4800 416 4800 
L 475 4800 
Q 494 4800 506 4788 
Q 966 4425 1272 3906 
Q 1578 3388 1720 2800 
Q 1863 2213 1863 1600 
Q 1863 1147 1786 708 
Q 1709 269 1542 -157 
Q 1375 -584 1119 -945 
Q 863 -1306 506 -1588 
Q 494 -1600 475 -1600 
L 416 -1600 
z
" transform="scale(0.015625)"/>
       <path id="Cmmi10-3b" d="M 634 -1153 
Q 634 -1125 659 -1100 
Q 891 -878 1019 -587 
Q 1147 -297 1147 25 
L 1147 103 
Q 1044 0 891 0 
Q 744 0 641 103 
Q 538 206 538 353 
Q 538 503 641 603 
Q 744 703 891 703 
Q 1119 703 1216 492 
Q 1313 281 1313 25 
Q 1313 -331 1170 -651 
Q 1028 -972 769 -1228 
Q 744 -1241 728 -1241 
Q 697 -1241 665 -1212 
Q 634 -1184 634 -1153 
z
" transform="scale(0.015625)"/>
       <path id="Cmmi10-76" d="M 684 722 
Q 684 866 718 1037 
Q 753 1209 787 1320 
Q 822 1431 944 1753 
Q 1066 2075 1069 2088 
Q 1153 2322 1153 2472 
Q 1153 2663 1013 2663 
Q 759 2663 595 2402 
Q 431 2141 353 1819 
Q 341 1778 300 1778 
L 225 1778 
Q 172 1778 172 1838 
L 172 1856 
Q 275 2238 487 2533 
Q 700 2828 1025 2828 
Q 1253 2828 1411 2678 
Q 1569 2528 1569 2297 
Q 1569 2178 1516 2047 
Q 1391 1722 1319 1526 
Q 1247 1331 1186 1089 
Q 1125 847 1125 641 
Q 1125 400 1236 248 
Q 1347 97 1581 97 
Q 2025 97 2381 781 
Q 2494 1003 2594 1303 
Q 2694 1603 2694 1791 
Q 2694 1984 2631 2092 
Q 2569 2200 2469 2317 
Q 2369 2434 2369 2503 
Q 2369 2628 2472 2731 
Q 2575 2834 2700 2834 
Q 2853 2834 2920 2693 
Q 2988 2553 2988 2375 
Q 2988 2163 2927 1869 
Q 2866 1575 2758 1259 
Q 2650 944 2559 763 
Q 2138 -72 1575 -72 
Q 1172 -72 928 129 
Q 684 331 684 722 
z
" transform="scale(0.015625)"/>
      </defs>
      <use xlink:href="#Cmmi10-78"/>
      <use xlink:href="#Cmr10-28" transform="translate(57.080078 0)"/>
      <use xlink:href="#Cmmi10-74" transform="translate(95.898438 0)"/>
      <use xlink:href="#Cmr10-29" transform="translate(131.982422 0)"/>
      <use xlink:href="#Cmmi10-3b" transform="translate(170.800781 0)"/>
      <use xlink:href="#Cmmi10-76" transform="translate(216.044922 0)"/>
      <use xlink:href="#Cmr10-28" transform="translate(264.433594 0)"/>
      <use xlink:href="#Cmmi10-74" transform="translate(303.251953 0)"/>
      <use xlink:href="#Cmr10-29" transform="translate(339.335938 0)"/>
     </g>
    </g>
   </g>
   <g id="line2d_52">
    <path d="M 37.52 134.793779 
L 39.572217 134.302538 
L 41.417809 134.125093 
L 43.065668 134.17901 
L 44.636645 134.416766 
L 46.635286 134.980711 
L 48.339771 135.690627 
L 50.044257 136.608118 
L 51.887522 137.829315 
L 53.955102 139.47475 
L 56.127922 141.50685 
L 57.950624 143.440729 
L 60.700555 146.731655 
L 63.1859 150.064684 
L 66.061054 154.30377 
L 69.414137 159.69986 
L 73.059188 166.017346 
L 76.613208 172.513825 
L 85.932888 190.219796 
L 91.627603 200.768968 
L 95.308131 207.179335 
L 98.409571 212.218146 
L 101.635754 217.024828 
L 104.029946 220.261704 
L 106.90163 223.729823 
L 109.262727 226.214548 
L 111.397717 228.157712 
L 113.415924 229.717057 
L 115.390643 230.972433 
L 117.447733 231.987876 
L 119.337736 232.652496 
L 121.443053 233.085834 
L 123.400097 233.196085 
L 125.116374 233.060193 
L 126.493615 232.794337 
L 128.00396 232.343212 
L 129.514306 231.726658 
L 131.661164 230.569797 
L 133.479904 229.337443 
L 135.61688 227.602419 
L 137.770001 225.552084 
L 139.590493 223.592223 
L 142.27317 220.347941 
L 144.389229 217.50971 
L 147.652445 212.697549 
L 151.123265 207.07617 
L 154.798554 200.668394 
L 158.431532 193.997982 
L 174.648919 163.65113 
L 177.929375 158.087985 
L 181.620295 152.322484 
L 184.09705 148.802948 
L 187.03539 145.042765 
L 189.732529 142.027009 
L 191.980572 139.856654 
L 194.125999 138.092566 
L 196.436969 136.54207 
L 198.265409 135.580314 
L 199.96883 134.899644 
L 201.70655 134.422426 
L 202.92837 134.219391 
L 204.522821 134.119836 
L 206.651841 134.279349 
L 208.402337 134.660311 
L 210.403373 135.369582 
L 212.367991 136.346127 
L 214.642083 137.815657 
L 217.097969 139.798744 
L 218.904105 141.509656 
L 221.085661 143.848416 
L 223.516901 146.786462 
L 226.095014 150.255889 
L 229.21219 154.888735 
L 232.656818 160.489215 
L 236.880498 167.90378 
L 242.23675 177.880976 
L 253.004891 198.239942 
L 256.736974 204.885849 
L 260.469489 211.092666 
L 263.201549 215.282321 
L 266.120696 219.369476 
L 268.830561 222.759233 
L 271.005822 225.172599 
L 273.365377 227.459195 
L 275.332457 229.088635 
L 277.100645 230.330128 
L 278.711699 231.272199 
L 280.742484 232.197069 
L 282.695767 232.805428 
L 284.710663 233.140338 
L 286.509359 233.18659 
L 288.228191 233.007779 
L 289.947023 232.611807 
L 291.635582 232.013036 
L 293.629539 231.041796 
L 295.431485 229.92255 
L 297.161236 228.637596 
L 299.078491 226.979404 
L 301.48499 224.563631 
L 303.445258 222.334083 
L 306.024656 219.065336 
L 308.973226 214.901209 
L 311.319121 211.296626 
L 314.767284 205.596117 
L 318.484046 199.020064 
L 322.862491 190.879063 
L 335.336244 167.361276 
L 339.424487 160.211833 
L 342.877905 154.619789 
L 345.55734 150.631228 
L 348.339396 146.863978 
L 351.1037 143.540562 
L 353.335075 141.189121 
L 355.825971 138.936855 
L 357.79889 137.44525 
L 360.070316 136.060192 
L 361.718779 135.283498 
L 363.4018 134.692547 
L 365.396945 134.259763 
L 366.958688 134.12526 
L 368.931135 134.212552 
L 370.412414 134.466568 
L 372.334432 135.035637 
L 374.335643 135.91237 
L 376.45873 137.15367 
L 378.588608 138.712596 
L 380.526012 140.394674 
L 382.879002 142.761802 
L 384.769121 144.908487 
L 386.94975 147.64049 
L 389.5147 151.17886 
L 392.542887 155.762895 
L 396.16994 161.748791 
L 400.430028 169.317753 
L 404.814713 177.50999 
L 415.749893 198.188053 
L 420.446501 206.489099 
L 424.034139 212.33956 
L 426.112845 215.48486 
L 426.112845 215.48486 
" clip-path="url(#p8b017313f7)" style="fill: none; stroke: #0000ff; stroke-width: 2; stroke-linecap: square"/>
   </g>
   <g id="line2d_53">
    <path d="M 37.52 159.226274 
L 51.645028 238.796151 
L 55.253222 257.422126 
L 58.255529 271.846128 
L 60.884357 283.510541 
L 63.58446 294.42069 
L 65.950358 302.995993 
L 68.208545 310.254086 
L 70.031924 315.415526 
L 71.70883 319.586966 
L 73.421417 323.259413 
L 75.0301 326.153832 
L 76.418109 328.210134 
L 77.557019 329.58777 
L 78.695929 330.683409 
L 79.812732 331.481897 
L 80.921826 332.003038 
L 82.03092 332.252325 
L 83.079884 332.237534 
L 84.008588 332.02115 
L 84.937293 331.614121 
L 85.914344 330.980691 
L 86.942604 330.087793 
L 88.024938 328.898801 
L 89.294871 327.180714 
L 90.692278 324.891882 
L 92.315771 321.717338 
L 94.18218 317.398938 
L 95.919357 312.755555 
L 97.840048 306.947127 
L 99.976814 299.690826 
L 102.055907 291.872636 
L 104.395962 282.242574 
L 106.962585 270.7589 
L 109.811893 257.015002 
L 113.22213 239.415067 
L 117.523953 215.87726 
L 124.064149 178.616676 
L 130.807039 140.561604 
L 134.826333 119.10082 
L 138.296097 101.803518 
L 141.245415 88.242042 
L 144.064035 76.433729 
L 146.323472 67.87752 
L 148.328639 61.019454 
L 150.226726 55.203583 
L 151.859663 50.75064 
L 153.705992 46.352499 
L 155.090739 43.510299 
L 156.408228 41.177675 
L 157.760322 39.166897 
L 159.034056 37.63253 
L 160.307791 36.451098 
L 161.572496 35.63005 
L 162.597602 35.223303 
L 163.622708 35.048943 
L 164.676017 35.112136 
L 165.729325 35.420859 
L 166.715883 35.932256 
L 167.891479 36.821274 
L 169.181636 38.14479 
L 170.515386 39.892295 
L 172.027012 42.333148 
L 173.679924 45.552378 
L 175.368357 49.420955 
L 177.30881 54.56982 
L 179.332406 60.709915 
L 181.435776 67.886214 
L 183.665646 76.325937 
L 186.145203 86.640939 
L 188.661492 98.016167 
L 191.454946 111.585125 
L 194.763011 128.723366 
L 199.146385 152.761796 
L 205.746309 190.394525 
L 212.654329 229.277759 
L 216.636368 250.395494 
L 219.779663 265.97728 
L 222.300649 277.609878 
L 225.088171 289.433167 
L 227.364302 298.185779 
L 229.520001 305.661665 
L 231.517956 311.83766 
L 233.549811 317.33673 
L 235.036322 320.840983 
L 236.790084 324.393825 
L 238.365441 327.035977 
L 239.824352 329.010305 
L 240.968192 330.236211 
L 242.227396 331.2553 
L 243.428638 331.902568 
L 244.62988 332.231159 
L 245.430707 332.272799 
L 246.640653 332.066386 
L 247.730353 331.603442 
L 248.820054 330.878774 
L 249.961923 329.839999 
L 251.115783 328.501881 
L 252.308204 326.817227 
L 253.656213 324.547794 
L 255.161338 321.563521 
L 256.898448 317.541521 
L 258.758515 312.568221 
L 260.64469 306.846927 
L 262.570494 300.332216 
L 264.630108 292.652671 
L 266.740875 284.068417 
L 269.274587 272.889622 
L 272.175254 259.051452 
L 275.329983 242.935417 
L 279.555134 220.020068 
L 284.473706 192.171744 
L 293.408056 141.508921 
L 297.512293 119.552959 
L 301.076712 101.768926 
L 304.002344 88.314465 
L 306.452082 77.976227 
L 308.848666 68.775495 
L 311.056448 61.167341 
L 313.008774 55.178611 
L 314.793576 50.34113 
L 316.66491 45.948759 
L 318.399728 42.517938 
L 320.055074 39.833975 
L 321.3683 38.121841 
L 322.597569 36.857902 
L 323.646578 36.040552 
L 324.80267 35.420133 
L 325.928863 35.099568 
L 327.033002 35.057792 
L 328.129789 35.283502 
L 329.033385 35.669265 
L 329.977485 36.264618 
L 331.173214 37.299456 
L 332.431358 38.724841 
L 333.722173 40.542405 
L 335.22015 43.096652 
L 336.605224 45.876658 
L 338.207925 49.584308 
L 340.10338 54.630071 
L 341.846934 59.881808 
L 343.925287 66.872048 
L 346.23253 75.509952 
L 348.678255 85.600684 
L 351.255841 97.178796 
L 354.374089 112.317501 
L 357.874619 130.530847 
L 362.144418 154.023503 
L 370.318986 200.681429 
L 375.553416 229.963498 
L 379.635825 251.551711 
L 382.939194 267.812403 
L 385.840177 280.973786 
L 388.430905 291.701794 
L 390.643837 300.014271 
L 392.60938 306.687716 
L 394.667604 312.916505 
L 396.417806 317.572989 
L 398.184149 321.652893 
L 399.688423 324.622521 
L 401.252991 327.206952 
L 402.566846 328.973251 
L 403.940838 330.420602 
L 405.192201 331.379736 
L 406.235515 331.916052 
L 407.321055 332.218847 
L 408.277914 332.269488 
L 409.106095 332.149657 
L 410.348365 331.685475 
L 411.619091 330.858575 
L 412.946726 329.616451 
L 413.964883 328.404006 
L 415.177313 326.668796 
L 416.793886 323.86877 
L 418.538812 320.234293 
L 420.061279 316.556564 
L 421.749284 311.943133 
L 423.604647 306.245017 
L 425.742109 298.903418 
L 426.112845 297.548767 
L 426.112845 297.548767 
" clip-path="url(#p8b017313f7)" style="fill: none; stroke: #ff0000; stroke-width: 2; stroke-linecap: square"/>
   </g>
   <g id="patch_3">
    <path d="M 37.52 336.117538 
L 37.52 31.2 
" style="fill: none; stroke: #000000; stroke-width: 0.8; stroke-linejoin: miter; stroke-linecap: square"/>
   </g>
   <g id="patch_4">
    <path d="M 29.748143 183.658769 
L 433.884702 183.658769 
" style="fill: none; stroke: #000000; stroke-width: 0.8; stroke-linejoin: miter; stroke-linecap: square"/>
   </g>
   <g id="legend_1">
    <g id="patch_5">
     <path d="M 396.284702 70.596875 
L 430.884702 70.596875 
L 430.884702 38.2 
L 396.284702 38.2 
z
" style="fill: #4c4c4c; opacity: 0.5; stroke: #4c4c4c; stroke-linejoin: miter"/>
    </g>
    <g id="patch_6">
     <path d="M 394.284702 68.596875 
L 428.884702 68.596875 
L 428.884702 36.2 
L 394.284702 36.2 
z
" style="fill: #ffffff; stroke: #cccccc; stroke-linejoin: miter"/>
    </g>
    <g id="line2d_54">
     <path d="M 403.284702 46.298437 
L 397.784702 46.298437 
" style="fill: none; stroke: #0000ff; stroke-width: 2; stroke-linecap: square"/>
    </g>
    <g id="text_14">
     <!-- $x(t)$ -->
     <g transform="translate(405.784702 49.798437)scale(0.1 -0.1)">
      <use xlink:href="#Cmmi10-78"/>
      <use xlink:href="#Cmr10-28" transform="translate(57.080078 0)"/>
      <use xlink:href="#Cmmi10-74" transform="translate(95.898438 0)"/>
      <use xlink:href="#Cmr10-29" transform="translate(131.982422 0)"/>
     </g>
    </g>
    <g id="line2d_55">
     <path d="M 403.284702 56.596875 
L 397.784702 56.596875 
" style="fill: none; stroke: #ff0000; stroke-width: 2; stroke-linecap: square"/>
    </g>
    <g id="text_15">
     <!-- $v(t)$ -->
     <g transform="translate(405.784702 60.096875)scale(0.1 -0.1)">
      <use xlink:href="#Cmmi10-76"/>
      <use xlink:href="#Cmr10-28" transform="translate(48.388672 0)"/>
      <use xlink:href="#Cmmi10-74" transform="translate(87.207031 0)"/>
      <use xlink:href="#Cmr10-29" transform="translate(123.291016 0)"/>
     </g>
    </g>
   </g>
  </g>
 </g>
 <defs>
  <clipPath id="p8b017313f7">
   <rect x="29.748143" y="31.2" width="404.136559" height="304.917538"/>
  </clipPath>
 </defs>
</svg>
