<?xml version="1.0" encoding="utf-8" standalone="no"?>
<!DOCTYPE svg PUBLIC "-//W3C//DTD SVG 1.1//EN"
  "http://www.w3.org/Graphics/SVG/1.1/DTD/svg11.dtd">
<svg xmlns:xlink="http://www.w3.org/1999/xlink" width="369.455747pt" height="347.068437pt" viewBox="0 0 369.455747 347.068437" xmlns="http://www.w3.org/2000/svg" version="1.1">
 <metadata>
  <rdf:RDF xmlns:dc="http://purl.org/dc/elements/1.1/" xmlns:cc="http://creativecommons.org/ns#" xmlns:rdf="http://www.w3.org/1999/02/22-rdf-syntax-ns#">
   <cc:Work>
    <dc:type rdf:resource="http://purl.org/dc/dcmitype/StillImage"/>
    <dc:date>2024-01-20T22:22:38.712143</dc:date>
    <dc:format>image/svg+xml</dc:format>
    <dc:creator>
     <cc:Agent>
      <dc:title>Matplotlib v3.5.1, https://matplotlib.org/</dc:title>
     </cc:Agent>
    </dc:creator>
   </cc:Work>
  </rdf:RDF>
 </metadata>
 <defs>
  <style type="text/css">*{stroke-linejoin: round; stroke-linecap: butt}</style>
 </defs>
 <g id="figure_1">
  <g id="patch_1">
   <path d="M 0 347.068437 
L 369.455747 347.068437 
L 369.455747 0 
L 0 0 
z
" style="fill: #ffffff"/>
  </g>
  <g id="axes_1">
   <g id="patch_2">
    <path d="M 7.2 339.868437 
L 343.235747 339.868437 
L 343.235747 33.588437 
L 7.2 33.588437 
z
" style="fill: #ffffff"/>
   </g>
   <g id="matplotlib.axis_1">
    <g id="xtick_1">
     <g id="line2d_1">
      <defs>
       <path id="m45701f11d6" d="M 0 0 
L 0 3.5 
" style="stroke: #000000; stroke-width: 0.8"/>
      </defs>
      <g>
       <use xlink:href="#m45701f11d6" x="22.424074" y="139.232977" style="stroke: #000000; stroke-width: 0.8"/>
      </g>
     </g>
     <g id="text_1">
      <!-- −1.0 -->
      <g transform="translate(7.854387 155.351102)scale(0.12 -0.12)">
       <defs>
        <path id="DejaVuSans-2212" d="M 678 2272 
L 4684 2272 
L 4684 1741 
L 678 1741 
L 678 2272 
z
" transform="scale(0.015625)"/>
        <path id="DejaVuSans-31" d="M 794 531 
L 1825 531 
L 1825 4091 
L 703 3866 
L 703 4441 
L 1819 4666 
L 2450 4666 
L 2450 531 
L 3481 531 
L 3481 0 
L 794 0 
L 794 531 
z
" transform="scale(0.015625)"/>
        <path id="DejaVuSans-2e" d="M 684 794 
L 1344 794 
L 1344 0 
L 684 0 
L 684 794 
z
" transform="scale(0.015625)"/>
        <path id="DejaVuSans-30" d="M 2034 4250 
Q 1547 4250 1301 3770 
Q 1056 3291 1056 2328 
Q 1056 1369 1301 889 
Q 1547 409 2034 409 
Q 2525 409 2770 889 
Q 3016 1369 3016 2328 
Q 3016 3291 2770 3770 
Q 2525 4250 2034 4250 
z
M 2034 4750 
Q 2819 4750 3233 4129 
Q 3647 3509 3647 2328 
Q 3647 1150 3233 529 
Q 2819 -91 2034 -91 
Q 1250 -91 836 529 
Q 422 1150 422 2328 
Q 422 3509 836 4129 
Q 1250 4750 2034 4750 
z
" transform="scale(0.015625)"/>
       </defs>
       <use xlink:href="#DejaVuSans-2212"/>
       <use xlink:href="#DejaVuSans-31" x="83.789062"/>
       <use xlink:href="#DejaVuSans-2e" x="147.412109"/>
       <use xlink:href="#DejaVuSans-30" x="179.199219"/>
      </g>
     </g>
    </g>
    <g id="xtick_2">
     <g id="line2d_2">
      <g>
       <use xlink:href="#m45701f11d6" x="73.894065" y="139.232977" style="stroke: #000000; stroke-width: 0.8"/>
      </g>
     </g>
     <g id="text_2">
      <!-- −0.5 -->
      <g transform="translate(59.324378 155.351102)scale(0.12 -0.12)">
       <defs>
        <path id="DejaVuSans-35" d="M 691 4666 
L 3169 4666 
L 3169 4134 
L 1269 4134 
L 1269 2991 
Q 1406 3038 1543 3061 
Q 1681 3084 1819 3084 
Q 2600 3084 3056 2656 
Q 3513 2228 3513 1497 
Q 3513 744 3044 326 
Q 2575 -91 1722 -91 
Q 1428 -91 1123 -41 
Q 819 9 494 109 
L 494 744 
Q 775 591 1075 516 
Q 1375 441 1709 441 
Q 2250 441 2565 725 
Q 2881 1009 2881 1497 
Q 2881 1984 2565 2268 
Q 2250 2553 1709 2553 
Q 1456 2553 1204 2497 
Q 953 2441 691 2322 
L 691 4666 
z
" transform="scale(0.015625)"/>
       </defs>
       <use xlink:href="#DejaVuSans-2212"/>
       <use xlink:href="#DejaVuSans-30" x="83.789062"/>
       <use xlink:href="#DejaVuSans-2e" x="147.412109"/>
       <use xlink:href="#DejaVuSans-35" x="179.199219"/>
      </g>
     </g>
    </g>
    <g id="xtick_3">
     <g id="line2d_3">
      <g>
       <use xlink:href="#m45701f11d6" x="125.364056" y="139.232977" style="stroke: #000000; stroke-width: 0.8"/>
      </g>
     </g>
    </g>
    <g id="xtick_4">
     <g id="line2d_4">
      <g>
       <use xlink:href="#m45701f11d6" x="176.834046" y="139.232977" style="stroke: #000000; stroke-width: 0.8"/>
      </g>
     </g>
     <g id="text_3">
      <!-- 0.5 -->
      <g transform="translate(167.292171 155.351102)scale(0.12 -0.12)">
       <use xlink:href="#DejaVuSans-30"/>
       <use xlink:href="#DejaVuSans-2e" x="63.623047"/>
       <use xlink:href="#DejaVuSans-35" x="95.410156"/>
      </g>
     </g>
    </g>
    <g id="xtick_5">
     <g id="line2d_5">
      <g>
       <use xlink:href="#m45701f11d6" x="228.304037" y="139.232977" style="stroke: #000000; stroke-width: 0.8"/>
      </g>
     </g>
     <g id="text_4">
      <!-- 1.0 -->
      <g transform="translate(218.762162 155.351102)scale(0.12 -0.12)">
       <use xlink:href="#DejaVuSans-31"/>
       <use xlink:href="#DejaVuSans-2e" x="63.623047"/>
       <use xlink:href="#DejaVuSans-30" x="95.410156"/>
      </g>
     </g>
    </g>
    <g id="xtick_6">
     <g id="line2d_6">
      <g>
       <use xlink:href="#m45701f11d6" x="279.774027" y="139.232977" style="stroke: #000000; stroke-width: 0.8"/>
      </g>
     </g>
     <g id="text_5">
      <!-- 1.5 -->
      <g transform="translate(270.232152 155.351102)scale(0.12 -0.12)">
       <use xlink:href="#DejaVuSans-31"/>
       <use xlink:href="#DejaVuSans-2e" x="63.623047"/>
       <use xlink:href="#DejaVuSans-35" x="95.410156"/>
      </g>
     </g>
    </g>
    <g id="xtick_7">
     <g id="line2d_7">
      <g>
       <use xlink:href="#m45701f11d6" x="331.244018" y="139.232977" style="stroke: #000000; stroke-width: 0.8"/>
      </g>
     </g>
     <g id="text_6">
      <!-- 2.0 -->
      <g transform="translate(321.702143 155.351102)scale(0.12 -0.12)">
       <defs>
        <path id="DejaVuSans-32" d="M 1228 531 
L 3431 531 
L 3431 0 
L 469 0 
L 469 531 
Q 828 903 1448 1529 
Q 2069 2156 2228 2338 
Q 2531 2678 2651 2914 
Q 2772 3150 2772 3378 
Q 2772 3750 2511 3984 
Q 2250 4219 1831 4219 
Q 1534 4219 1204 4116 
Q 875 4013 500 3803 
L 500 4441 
Q 881 4594 1212 4672 
Q 1544 4750 1819 4750 
Q 2544 4750 2975 4387 
Q 3406 4025 3406 3419 
Q 3406 3131 3298 2873 
Q 3191 2616 2906 2266 
Q 2828 2175 2409 1742 
Q 1991 1309 1228 531 
z
" transform="scale(0.015625)"/>
       </defs>
       <use xlink:href="#DejaVuSans-32"/>
       <use xlink:href="#DejaVuSans-2e" x="63.623047"/>
       <use xlink:href="#DejaVuSans-30" x="95.410156"/>
      </g>
     </g>
    </g>
    <g id="xtick_8">
     <g id="line2d_8">
      <defs>
       <path id="mbb66b9561c" d="M 0 0 
L 0 2 
" style="stroke: #000000; stroke-width: 0.6"/>
      </defs>
      <g>
       <use xlink:href="#mbb66b9561c" x="12.130076" y="139.232977" style="stroke: #000000; stroke-width: 0.6"/>
      </g>
     </g>
    </g>
    <g id="xtick_9">
     <g id="line2d_9">
      <g>
       <use xlink:href="#mbb66b9561c" x="32.718073" y="139.232977" style="stroke: #000000; stroke-width: 0.6"/>
      </g>
     </g>
    </g>
    <g id="xtick_10">
     <g id="line2d_10">
      <g>
       <use xlink:href="#mbb66b9561c" x="43.012071" y="139.232977" style="stroke: #000000; stroke-width: 0.6"/>
      </g>
     </g>
    </g>
    <g id="xtick_11">
     <g id="line2d_11">
      <g>
       <use xlink:href="#mbb66b9561c" x="53.306069" y="139.232977" style="stroke: #000000; stroke-width: 0.6"/>
      </g>
     </g>
    </g>
    <g id="xtick_12">
     <g id="line2d_12">
      <g>
       <use xlink:href="#mbb66b9561c" x="63.600067" y="139.232977" style="stroke: #000000; stroke-width: 0.6"/>
      </g>
     </g>
    </g>
    <g id="xtick_13">
     <g id="line2d_13">
      <g>
       <use xlink:href="#mbb66b9561c" x="84.188063" y="139.232977" style="stroke: #000000; stroke-width: 0.6"/>
      </g>
     </g>
    </g>
    <g id="xtick_14">
     <g id="line2d_14">
      <g>
       <use xlink:href="#mbb66b9561c" x="94.482061" y="139.232977" style="stroke: #000000; stroke-width: 0.6"/>
      </g>
     </g>
    </g>
    <g id="xtick_15">
     <g id="line2d_15">
      <g>
       <use xlink:href="#mbb66b9561c" x="104.776059" y="139.232977" style="stroke: #000000; stroke-width: 0.6"/>
      </g>
     </g>
    </g>
    <g id="xtick_16">
     <g id="line2d_16">
      <g>
       <use xlink:href="#mbb66b9561c" x="115.070057" y="139.232977" style="stroke: #000000; stroke-width: 0.6"/>
      </g>
     </g>
    </g>
    <g id="xtick_17">
     <g id="line2d_17">
      <g>
       <use xlink:href="#mbb66b9561c" x="135.658054" y="139.232977" style="stroke: #000000; stroke-width: 0.6"/>
      </g>
     </g>
    </g>
    <g id="xtick_18">
     <g id="line2d_18">
      <g>
       <use xlink:href="#mbb66b9561c" x="145.952052" y="139.232977" style="stroke: #000000; stroke-width: 0.6"/>
      </g>
     </g>
    </g>
    <g id="xtick_19">
     <g id="line2d_19">
      <g>
       <use xlink:href="#mbb66b9561c" x="156.24605" y="139.232977" style="stroke: #000000; stroke-width: 0.6"/>
      </g>
     </g>
    </g>
    <g id="xtick_20">
     <g id="line2d_20">
      <g>
       <use xlink:href="#mbb66b9561c" x="166.540048" y="139.232977" style="stroke: #000000; stroke-width: 0.6"/>
      </g>
     </g>
    </g>
    <g id="xtick_21">
     <g id="line2d_21">
      <g>
       <use xlink:href="#mbb66b9561c" x="187.128044" y="139.232977" style="stroke: #000000; stroke-width: 0.6"/>
      </g>
     </g>
    </g>
    <g id="xtick_22">
     <g id="line2d_22">
      <g>
       <use xlink:href="#mbb66b9561c" x="197.422042" y="139.232977" style="stroke: #000000; stroke-width: 0.6"/>
      </g>
     </g>
    </g>
    <g id="xtick_23">
     <g id="line2d_23">
      <g>
       <use xlink:href="#mbb66b9561c" x="207.71604" y="139.232977" style="stroke: #000000; stroke-width: 0.6"/>
      </g>
     </g>
    </g>
    <g id="xtick_24">
     <g id="line2d_24">
      <g>
       <use xlink:href="#mbb66b9561c" x="218.010039" y="139.232977" style="stroke: #000000; stroke-width: 0.6"/>
      </g>
     </g>
    </g>
    <g id="xtick_25">
     <g id="line2d_25">
      <g>
       <use xlink:href="#mbb66b9561c" x="238.598035" y="139.232977" style="stroke: #000000; stroke-width: 0.6"/>
      </g>
     </g>
    </g>
    <g id="xtick_26">
     <g id="line2d_26">
      <g>
       <use xlink:href="#mbb66b9561c" x="248.892033" y="139.232977" style="stroke: #000000; stroke-width: 0.6"/>
      </g>
     </g>
    </g>
    <g id="xtick_27">
     <g id="line2d_27">
      <g>
       <use xlink:href="#mbb66b9561c" x="259.186031" y="139.232977" style="stroke: #000000; stroke-width: 0.6"/>
      </g>
     </g>
    </g>
    <g id="xtick_28">
     <g id="line2d_28">
      <g>
       <use xlink:href="#mbb66b9561c" x="269.480029" y="139.232977" style="stroke: #000000; stroke-width: 0.6"/>
      </g>
     </g>
    </g>
    <g id="xtick_29">
     <g id="line2d_29">
      <g>
       <use xlink:href="#mbb66b9561c" x="290.068025" y="139.232977" style="stroke: #000000; stroke-width: 0.6"/>
      </g>
     </g>
    </g>
    <g id="xtick_30">
     <g id="line2d_30">
      <g>
       <use xlink:href="#mbb66b9561c" x="300.362023" y="139.232977" style="stroke: #000000; stroke-width: 0.6"/>
      </g>
     </g>
    </g>
    <g id="xtick_31">
     <g id="line2d_31">
      <g>
       <use xlink:href="#mbb66b9561c" x="310.656022" y="139.232977" style="stroke: #000000; stroke-width: 0.6"/>
      </g>
     </g>
    </g>
    <g id="xtick_32">
     <g id="line2d_32">
      <g>
       <use xlink:href="#mbb66b9561c" x="320.95002" y="139.232977" style="stroke: #000000; stroke-width: 0.6"/>
      </g>
     </g>
    </g>
    <g id="xtick_33">
     <g id="line2d_33">
      <g>
       <use xlink:href="#mbb66b9561c" x="341.538016" y="139.232977" style="stroke: #000000; stroke-width: 0.6"/>
      </g>
     </g>
    </g>
    <g id="text_7">
     <!-- $x$ -->
     <g transform="translate(351.235747 139.232977)scale(0.19 -0.19)">
      <defs>
       <path id="Cmmi10-78" d="M 500 184 
Q 613 97 819 97 
Q 1019 97 1172 289 
Q 1325 481 1381 709 
L 1672 1844 
Q 1741 2153 1741 2266 
Q 1741 2425 1652 2544 
Q 1563 2663 1403 2663 
Q 1200 2663 1022 2536 
Q 844 2409 722 2214 
Q 600 2019 550 1819 
Q 538 1778 500 1778 
L 422 1778 
Q 372 1778 372 1838 
L 372 1856 
Q 434 2094 584 2320 
Q 734 2547 951 2687 
Q 1169 2828 1416 2828 
Q 1650 2828 1839 2703 
Q 2028 2578 2106 2363 
Q 2216 2559 2386 2693 
Q 2556 2828 2759 2828 
Q 2897 2828 3040 2779 
Q 3184 2731 3275 2631 
Q 3366 2531 3366 2381 
Q 3366 2219 3261 2101 
Q 3156 1984 2994 1984 
Q 2891 1984 2822 2050 
Q 2753 2116 2753 2216 
Q 2753 2350 2845 2451 
Q 2938 2553 3066 2572 
Q 2950 2663 2747 2663 
Q 2541 2663 2389 2472 
Q 2238 2281 2175 2047 
L 1894 916 
Q 1825 659 1825 494 
Q 1825 331 1917 214 
Q 2009 97 2163 97 
Q 2463 97 2698 361 
Q 2934 625 3009 941 
Q 3022 978 3059 978 
L 3138 978 
Q 3163 978 3178 961 
Q 3194 944 3194 922 
Q 3194 916 3188 903 
Q 3097 522 2806 225 
Q 2516 -72 2150 -72 
Q 1916 -72 1727 54 
Q 1538 181 1459 397 
Q 1359 209 1182 68 
Q 1006 -72 806 -72 
Q 669 -72 523 -23 
Q 378 25 287 125 
Q 197 225 197 378 
Q 197 528 301 651 
Q 406 775 563 775 
Q 669 775 741 711 
Q 813 647 813 544 
Q 813 409 723 309 
Q 634 209 500 184 
z
" transform="scale(0.015625)"/>
      </defs>
      <use xlink:href="#Cmmi10-78" transform="translate(0 0.8125)"/>
     </g>
    </g>
   </g>
   <g id="matplotlib.axis_2">
    <g id="ytick_1">
     <g id="line2d_34">
      <defs>
       <path id="m68adc801eb" d="M 0 0 
L -3.5 0 
" style="stroke: #000000; stroke-width: 0.8"/>
      </defs>
      <g>
       <use xlink:href="#m68adc801eb" x="125.364056" y="324.524943" style="stroke: #000000; stroke-width: 0.8"/>
      </g>
     </g>
     <g id="text_8">
      <!-- −6 -->
      <g transform="translate(100.673431 329.084006)scale(0.12 -0.12)">
       <defs>
        <path id="DejaVuSans-36" d="M 2113 2584 
Q 1688 2584 1439 2293 
Q 1191 2003 1191 1497 
Q 1191 994 1439 701 
Q 1688 409 2113 409 
Q 2538 409 2786 701 
Q 3034 994 3034 1497 
Q 3034 2003 2786 2293 
Q 2538 2584 2113 2584 
z
M 3366 4563 
L 3366 3988 
Q 3128 4100 2886 4159 
Q 2644 4219 2406 4219 
Q 1781 4219 1451 3797 
Q 1122 3375 1075 2522 
Q 1259 2794 1537 2939 
Q 1816 3084 2150 3084 
Q 2853 3084 3261 2657 
Q 3669 2231 3669 1497 
Q 3669 778 3244 343 
Q 2819 -91 2113 -91 
Q 1303 -91 875 529 
Q 447 1150 447 2328 
Q 447 3434 972 4092 
Q 1497 4750 2381 4750 
Q 2619 4750 2861 4703 
Q 3103 4656 3366 4563 
z
" transform="scale(0.015625)"/>
       </defs>
       <use xlink:href="#DejaVuSans-2212"/>
       <use xlink:href="#DejaVuSans-36" x="83.789062"/>
      </g>
     </g>
    </g>
    <g id="ytick_2">
     <g id="line2d_35">
      <g>
       <use xlink:href="#m68adc801eb" x="125.364056" y="262.760954" style="stroke: #000000; stroke-width: 0.8"/>
      </g>
     </g>
     <g id="text_9">
      <!-- −4 -->
      <g transform="translate(100.673431 267.320017)scale(0.12 -0.12)">
       <defs>
        <path id="DejaVuSans-34" d="M 2419 4116 
L 825 1625 
L 2419 1625 
L 2419 4116 
z
M 2253 4666 
L 3047 4666 
L 3047 1625 
L 3713 1625 
L 3713 1100 
L 3047 1100 
L 3047 0 
L 2419 0 
L 2419 1100 
L 313 1100 
L 313 1709 
L 2253 4666 
z
" transform="scale(0.015625)"/>
       </defs>
       <use xlink:href="#DejaVuSans-2212"/>
       <use xlink:href="#DejaVuSans-34" x="83.789062"/>
      </g>
     </g>
    </g>
    <g id="ytick_3">
     <g id="line2d_36">
      <g>
       <use xlink:href="#m68adc801eb" x="125.364056" y="200.996966" style="stroke: #000000; stroke-width: 0.8"/>
      </g>
     </g>
     <g id="text_10">
      <!-- −2 -->
      <g transform="translate(100.673431 205.556028)scale(0.12 -0.12)">
       <use xlink:href="#DejaVuSans-2212"/>
       <use xlink:href="#DejaVuSans-32" x="83.789062"/>
      </g>
     </g>
    </g>
    <g id="ytick_4">
     <g id="line2d_37">
      <g>
       <use xlink:href="#m68adc801eb" x="125.364056" y="139.232977" style="stroke: #000000; stroke-width: 0.8"/>
      </g>
     </g>
    </g>
    <g id="ytick_5">
     <g id="line2d_38">
      <g>
       <use xlink:href="#m68adc801eb" x="125.364056" y="77.468988" style="stroke: #000000; stroke-width: 0.8"/>
      </g>
     </g>
     <g id="text_11">
      <!-- 2 -->
      <g transform="translate(110.729056 82.028051)scale(0.12 -0.12)">
       <use xlink:href="#DejaVuSans-32"/>
      </g>
     </g>
    </g>
    <g id="ytick_6">
     <g id="line2d_39">
      <defs>
       <path id="m1d0db755d0" d="M 0 0 
L -2 0 
" style="stroke: #000000; stroke-width: 0.6"/>
      </defs>
      <g>
       <use xlink:href="#m1d0db755d0" x="125.364056" y="309.083946" style="stroke: #000000; stroke-width: 0.6"/>
      </g>
     </g>
    </g>
    <g id="ytick_7">
     <g id="line2d_40">
      <g>
       <use xlink:href="#m1d0db755d0" x="125.364056" y="293.642949" style="stroke: #000000; stroke-width: 0.6"/>
      </g>
     </g>
    </g>
    <g id="ytick_8">
     <g id="line2d_41">
      <g>
       <use xlink:href="#m1d0db755d0" x="125.364056" y="278.201952" style="stroke: #000000; stroke-width: 0.6"/>
      </g>
     </g>
    </g>
    <g id="ytick_9">
     <g id="line2d_42">
      <g>
       <use xlink:href="#m1d0db755d0" x="125.364056" y="247.319957" style="stroke: #000000; stroke-width: 0.6"/>
      </g>
     </g>
    </g>
    <g id="ytick_10">
     <g id="line2d_43">
      <g>
       <use xlink:href="#m1d0db755d0" x="125.364056" y="231.87896" style="stroke: #000000; stroke-width: 0.6"/>
      </g>
     </g>
    </g>
    <g id="ytick_11">
     <g id="line2d_44">
      <g>
       <use xlink:href="#m1d0db755d0" x="125.364056" y="216.437963" style="stroke: #000000; stroke-width: 0.6"/>
      </g>
     </g>
    </g>
    <g id="ytick_12">
     <g id="line2d_45">
      <g>
       <use xlink:href="#m1d0db755d0" x="125.364056" y="185.555969" style="stroke: #000000; stroke-width: 0.6"/>
      </g>
     </g>
    </g>
    <g id="ytick_13">
     <g id="line2d_46">
      <g>
       <use xlink:href="#m1d0db755d0" x="125.364056" y="170.114971" style="stroke: #000000; stroke-width: 0.6"/>
      </g>
     </g>
    </g>
    <g id="ytick_14">
     <g id="line2d_47">
      <g>
       <use xlink:href="#m1d0db755d0" x="125.364056" y="154.673974" style="stroke: #000000; stroke-width: 0.6"/>
      </g>
     </g>
    </g>
    <g id="ytick_15">
     <g id="line2d_48">
      <g>
       <use xlink:href="#m1d0db755d0" x="125.364056" y="123.79198" style="stroke: #000000; stroke-width: 0.6"/>
      </g>
     </g>
    </g>
    <g id="ytick_16">
     <g id="line2d_49">
      <g>
       <use xlink:href="#m1d0db755d0" x="125.364056" y="108.350983" style="stroke: #000000; stroke-width: 0.6"/>
      </g>
     </g>
    </g>
    <g id="ytick_17">
     <g id="line2d_50">
      <g>
       <use xlink:href="#m1d0db755d0" x="125.364056" y="92.909986" style="stroke: #000000; stroke-width: 0.6"/>
      </g>
     </g>
    </g>
    <g id="ytick_18">
     <g id="line2d_51">
      <g>
       <use xlink:href="#m1d0db755d0" x="125.364056" y="62.027991" style="stroke: #000000; stroke-width: 0.6"/>
      </g>
     </g>
    </g>
    <g id="ytick_19">
     <g id="line2d_52">
      <g>
       <use xlink:href="#m1d0db755d0" x="125.364056" y="46.586994" style="stroke: #000000; stroke-width: 0.6"/>
      </g>
     </g>
    </g>
    <g id="text_12">
     <!-- $y$ -->
     <g transform="translate(120.614056 21.598437)scale(0.19 -0.19)">
      <defs>
       <path id="Cmmi10-79" d="M 538 -916 
Q 672 -1147 1006 -1147 
Q 1309 -1147 1531 -934 
Q 1753 -722 1889 -420 
Q 2025 -119 2100 197 
Q 1816 -72 1484 -72 
Q 1231 -72 1053 15 
Q 875 103 776 276 
Q 678 450 678 697 
Q 678 906 734 1126 
Q 791 1347 892 1617 
Q 994 1888 1069 2088 
Q 1153 2322 1153 2472 
Q 1153 2663 1013 2663 
Q 759 2663 595 2402 
Q 431 2141 353 1819 
Q 341 1778 300 1778 
L 225 1778 
Q 172 1778 172 1838 
L 172 1856 
Q 275 2238 487 2533 
Q 700 2828 1025 2828 
Q 1253 2828 1411 2678 
Q 1569 2528 1569 2297 
Q 1569 2178 1516 2047 
Q 1488 1969 1388 1706 
Q 1288 1444 1234 1272 
Q 1181 1100 1147 934 
Q 1113 769 1113 603 
Q 1113 391 1203 244 
Q 1294 97 1491 97 
Q 1888 97 2203 581 
L 2688 2553 
Q 2709 2638 2787 2698 
Q 2866 2759 2956 2759 
Q 3034 2759 3092 2709 
Q 3150 2659 3150 2578 
Q 3150 2541 3144 2528 
L 2509 -19 
Q 2425 -347 2200 -647 
Q 1975 -947 1658 -1130 
Q 1341 -1313 997 -1313 
Q 831 -1313 668 -1248 
Q 506 -1184 406 -1056 
Q 306 -928 306 -756 
Q 306 -581 409 -453 
Q 513 -325 684 -325 
Q 788 -325 858 -389 
Q 928 -453 928 -556 
Q 928 -703 818 -812 
Q 709 -922 563 -922 
Q 556 -919 550 -917 
Q 544 -916 538 -916 
z
" transform="scale(0.015625)"/>
      </defs>
      <use xlink:href="#Cmmi10-79" transform="translate(0 0.8125)"/>
     </g>
    </g>
   </g>
   <g id="line2d_53">
    <path d="M 331.244018 77.468988 
L 332.696972 86.360636 
L 333.925406 95.180283 
L 334.931242 103.920402 
L 335.716589 112.57365 
L 336.283741 121.132876 
L 336.635169 129.591123 
L 336.773521 137.94163 
L 336.70161 146.17784 
L 336.475034 153.13802 
L 336.09829 160.005775 
L 335.573427 166.777347 
L 334.902574 173.449091 
L 334.087938 180.017477 
L 333.131801 186.479095 
L 332.036517 192.830649 
L 330.804511 199.068965 
L 329.167086 206.326862 
L 327.344613 213.415818 
L 325.415459 220.089367 
L 323.322308 226.59742 
L 321.069323 232.936216 
L 318.660762 239.102208 
L 316.100965 245.092055 
L 313.394356 250.902631 
L 310.54543 256.531018 
L 307.558756 261.974506 
L 304.587786 266.988969 
L 301.499923 271.831167 
L 298.299275 276.499285 
L 294.98999 280.99168 
L 288.062284 289.443568 
L 280.750663 297.177054 
L 276.096423 301.556779 
L 271.318879 305.663004 
L 266.425989 309.494942 
L 261.425732 313.052165 
L 251.135056 319.342506 
L 240.510638 324.537545 
L 232.77331 327.575059 
L 218.816324 331.614076 
L 204.625028 333.978437 
L 176.019605 333.885819 
L 158.141953 330.705335 
L 144.522101 326.687104 
L 131.236846 321.405235 
L 120.576744 316.151636 
L 110.250946 310.148925 
L 100.302295 303.451998 
L 95.481884 299.860849 
L 90.770319 296.117507 
L 85.75298 291.862933 
L 80.876238 287.445053 
L 76.145229 282.873544 
L 71.564778 278.158147 
L 67.185788 273.361076 
L 62.962626 268.442247 
L 58.899045 263.411174 
L 54.998492 258.277367 
L 51.264111 253.05032 
L 47.698738 247.739494 
L 44.304911 242.354308 
L 41.084864 236.904122 
L 37.72928 230.813741 
L 34.590682 224.667687 
L 30.81115 216.554525 
L 27.409604 208.394091 
L 24.38762 200.21299 
L 21.745553 192.037198 
L 20.322226 187.071047 
L 19.039143 182.121835 
L 17.895747 177.19503 
L 16.891328 172.295987 
L 16.025026 167.429943 
L 15.295836 162.602011 
L 14.702609 157.81718 
L 14.244056 153.080308 
L 13.816334 146.327491 
L 13.662226 139.698492 
L 13.744283 134.112639 
L 14.020646 128.635838 
L 14.487352 123.275696 
L 15.140175 118.039463 
L 15.974639 112.934025 
L 16.986036 107.965894 
L 18.169433 103.141214 
L 20.22569 96.275615 
L 22.178216 90.886814 
L 24.355995 85.739256 
L 26.748542 80.840709 
L 29.345062 76.198103 
L 31.705028 72.456468 
L 34.197513 68.907561 
L 36.815457 65.554219 
L 39.551708 62.398848 
L 42.39903 59.443433 
L 45.350126 56.689536 
L 51.534214 51.790491 
L 57.241807 48.156909 
L 64.68831 44.490571 
L 72.389209 41.800816 
L 85.062984 39.478437 
L 97.883052 39.496783 
L 110.210539 41.606089 
L 120.099038 44.767732 
L 126.08229 47.337458 
L 131.886881 50.32947 
L 137.486718 53.712095 
L 142.857773 57.452598 
L 148.916884 62.320001 
L 154.588802 67.588462 
L 158.833806 72.058991 
L 162.799503 76.719524 
L 166.47519 81.540136 
L 169.851988 86.491153 
L 172.236745 90.361657 
L 174.4387 94.278701 
L 176.953179 99.267285 
L 179.17129 104.284442 
L 180.780159 108.435406 
L 182.186073 112.575873 
L 183.389864 116.692931 
L 184.392984 120.774125 
L 185.244797 125.078321 
L 185.87343 129.314081 
L 186.282808 133.468182 
L 186.477528 137.528125 
L 186.46535 141.396657 
L 186.258271 145.153598 
L 185.932606 148.258627 
L 185.473781 151.270249 
L 184.885974 154.183365 
L 184.173578 156.993268 
L 183.064374 160.49721 
L 181.761546 163.809573 
L 180.276192 166.92293 
L 178.619799 169.830983 
L 176.826364 172.49814 
L 174.889074 174.955789 
L 172.819776 177.201021 
L 170.051308 179.717948 
L 167.53619 181.611371 
L 164.913816 183.253609 
L 159.407955 185.792068 
L 152.185164 187.605231 
L 142.534114 187.837759 
L 136.896835 186.942579 
L 130.948234 185.202981 
L 125.266004 182.758967 
L 123.048038 181.58571 
L 119.342648 179.32891 
L 115.851124 176.830888 
L 112.493974 174.041385 
L 109.40377 171.077781 
L 107.606761 169.146744 
L 104.355884 165.16657 
L 102.905853 163.136429 
L 101.117153 160.341943 
L 99.550879 157.542326 
L 98.319731 155.010331 
L 97.270595 152.50579 
L 96.218959 149.459542 
L 95.436413 146.499745 
L 94.980792 144.096215 
L 94.702735 141.779457 
L 94.597362 139.705141 
L 94.634365 137.721549 
L 94.944868 134.913786 
L 95.540152 132.341311 
L 96.164781 130.556921 
L 96.96762 128.839648 
L 97.908097 127.283253 
L 99.072881 125.77171 
L 100.367371 124.449596 
L 102.498701 122.823713 
L 104.82464 121.591651 
L 106.025031 121.122467 
L 111.807208 120.015321 
L 113.566714 119.978903 
L 115.998566 120.116408 
L 119.873442 120.737388 
L 122.894159 121.53325 
L 126.639156 122.879706 
L 130.174087 124.524432 
L 132.922455 126.085951 
L 136.100515 128.29286 
L 137.792879 129.7225 
L 139.589221 131.564546 
L 140.701224 132.99837 
L 141.505806 134.310032 
L 142.272723 136.062151 
L 142.662802 137.586759 
L 142.80298 139.413693 
L 142.712582 140.57035 
L 142.483825 141.734256 
L 142.031992 143.118754 
L 141.139209 144.93028 
L 139.832244 146.801202 
L 139.108893 147.635216 
L 137.572335 149.116222 
L 136.272056 150.147122 
L 134.847588 151.101233 
L 132.240291 152.474959 
L 130.015928 153.332931 
L 126.442718 154.191588 
L 123.954675 154.435052 
L 119.885459 154.196142 
L 117.177447 153.551572 
L 113.831178 152.083108 
L 111.904188 150.782695 
L 111.002462 150.01495 
L 109.518822 148.437985 
L 108.28379 146.664179 
L 107.534026 145.21415 
L 106.914978 143.566415 
L 106.459791 141.616201 
L 106.273363 139.59742 
L 106.305105 138.184352 
L 106.4688 136.763753 
L 106.792072 135.2407 
L 107.369225 133.464156 
L 108.215855 131.615444 
L 109.291431 129.845636 
L 110.858297 127.872767 
L 111.985366 126.732442 
L 113.530557 125.433376 
L 116.370223 123.628586 
L 119.547642 122.274912 
L 122.553674 121.510319 
L 125.421432 121.193502 
L 129.207927 121.365795 
L 131.21582 121.737165 
L 133.824376 122.536657 
L 136.372618 123.715765 
L 138.060332 124.760356 
L 139.621555 125.963554 
L 141.316619 127.612922 
L 142.774221 129.45054 
L 143.560037 130.692653 
L 144.480087 132.532681 
L 145.172032 134.458079 
L 145.627953 136.447176 
L 145.81349 137.99749 
L 145.827953 140.252306 
L 145.54265 142.497419 
L 144.489438 145.946669 
L 143.653147 147.667111 
L 142.631496 149.30397 
L 141.477539 150.79055 
L 140.170724 152.1689 
L 137.934526 154.016581 
L 136.149961 155.154014 
L 134.243529 156.11337 
L 132.164997 156.907158 
L 128.286443 157.790025 
L 126.187032 157.974761 
L 124.607859 157.984382 
L 120.273084 157.43583 
L 116.345322 156.147461 
L 115.259477 155.636979 
L 113.089761 154.374826 
L 111.109847 152.877489 
L 109.072722 150.856078 
L 107.397002 148.612813 
L 106.06907 146.116884 
L 105.23579 143.755612 
L 104.891533 142.233116 
L 104.639548 139.939179 
L 104.638054 138.563738 
L 104.747918 137.192561 
L 105.298542 134.492495 
L 106.09636 132.297866 
L 106.765949 130.939498 
L 107.552651 129.63429 
L 108.526483 128.295726 
L 109.697087 126.961322 
L 110.997119 125.72961 
L 112.653247 124.442516 
L 115.042073 123.004783 
L 118.238124 121.671652 
L 121.659872 120.844953 
L 125.770926 120.562912 
L 128.480872 120.782619 
L 131.811219 121.511547 
L 135.307582 122.892571 
L 136.749217 123.681504 
L 138.277584 124.689825 
L 139.855892 125.958719 
L 141.282405 127.365147 
L 142.302113 128.576552 
L 143.208959 129.858107 
L 144.136472 131.469854 
L 144.885594 133.154257 
L 145.355341 134.556025 
L 145.70141 135.98606 
L 145.986194 138.195315 
L 146.008606 139.804365 
L 145.876537 141.408432 
L 145.576766 143.057188 
L 144.936269 145.171136 
L 144.023881 147.201436 
L 143.067653 148.805175 
L 142.097454 150.125383 
L 141.005849 151.366007 
L 139.151266 153.064096 
L 137.5269 154.243858 
L 134.883292 155.711749 
L 130.436995 157.225863 
L 127.481204 157.691702 
L 125.306373 157.785309 
L 121.583999 157.463816 
L 120.381461 157.226159 
L 117.922795 156.521042 
L 115.581243 155.545608 
L 114.324245 154.88076 
L 111.473988 152.915674 
L 109.820771 151.389208 
L 108.118775 149.360107 
L 106.731163 147.121997 
L 105.571402 144.347028 
L 105.101388 142.536497 
L 104.835409 140.692945 
L 104.78205 138.636237 
L 105.054469 136.171889 
L 105.689859 133.762513 
L 106.559894 131.68243 
L 107.406603 130.167007 
L 108.403875 128.727672 
L 109.311488 127.631301 
L 110.867234 126.078416 
L 112.60762 124.693164 
L 114.458307 123.522365 
L 118.029544 121.926912 
L 119.703151 121.426129 
L 124.425417 120.732664 
L 129.631931 121.116846 
L 130.684666 121.34393 
L 133.933985 122.396412 
L 135.789762 123.266468 
L 137.53776 124.301525 
L 139.53115 125.800141 
L 141.730829 128.00493 
L 142.693411 129.242405 
L 143.540701 130.546356 
L 143.540701 130.546356 
" clip-path="url(#p883c8e2080)" style="fill: none; stroke: #0000ff; stroke-linecap: square"/>
   </g>
   <g id="patch_3">
    <path d="M 125.364056 339.868437 
L 125.364056 33.588437 
" style="fill: none; stroke: #000000; stroke-width: 0.8; stroke-linejoin: miter; stroke-linecap: square"/>
   </g>
   <g id="patch_4">
    <path d="M 7.2 139.232977 
L 343.235747 139.232977 
" style="fill: none; stroke: #000000; stroke-width: 0.8; stroke-linejoin: miter; stroke-linecap: square"/>
   </g>
  </g>
 </g>
 <defs>
  <clipPath id="p883c8e2080">
   <rect x="7.2" y="33.588437" width="336.035747" height="306.28"/>
  </clipPath>
 </defs>
</svg>
