<?xml version="1.0" encoding="utf-8" standalone="no"?>
<!DOCTYPE svg PUBLIC "-//W3C//DTD SVG 1.1//EN"
  "http://www.w3.org/Graphics/SVG/1.1/DTD/svg11.dtd">
<svg xmlns:xlink="http://www.w3.org/1999/xlink" width="453.915739pt" height="344.32pt" viewBox="0 0 453.915739 344.32" xmlns="http://www.w3.org/2000/svg" version="1.1">
 <metadata>
  <rdf:RDF xmlns:dc="http://purl.org/dc/elements/1.1/" xmlns:cc="http://creativecommons.org/ns#" xmlns:rdf="http://www.w3.org/1999/02/22-rdf-syntax-ns#">
   <cc:Work>
    <dc:type rdf:resource="http://purl.org/dc/dcmitype/StillImage"/>
    <dc:date>2024-01-20T22:20:29.476480</dc:date>
    <dc:format>image/svg+xml</dc:format>
    <dc:creator>
     <cc:Agent>
      <dc:title>Matplotlib v3.5.1, https://matplotlib.org/</dc:title>
     </cc:Agent>
    </dc:creator>
   </cc:Work>
  </rdf:RDF>
 </metadata>
 <defs>
  <style type="text/css">*{stroke-linejoin: round; stroke-linecap: butt}</style>
 </defs>
 <g id="figure_1">
  <g id="patch_1">
   <path d="M 0 344.32 
L 453.915739 344.32 
L 453.915739 0 
L 0 0 
z
" style="fill: #ffffff"/>
  </g>
  <g id="axes_1">
   <g id="patch_2">
    <path d="M 26.996162 337.12 
L 432.795739 337.12 
L 432.795739 31.2 
L 26.996162 31.2 
z
" style="fill: #ffffff"/>
   </g>
   <g id="matplotlib.axis_1">
    <g id="xtick_1">
     <g id="line2d_1">
      <defs>
       <path id="m11bfaa4150" d="M 0 0 
L 0 3.5 
" style="stroke: #000000; stroke-width: 0.8"/>
      </defs>
      <g>
       <use xlink:href="#m11bfaa4150" x="34.8" y="182.602711" style="stroke: #000000; stroke-width: 0.8"/>
      </g>
     </g>
    </g>
    <g id="xtick_2">
     <g id="line2d_2">
      <g>
       <use xlink:href="#m11bfaa4150" x="132.347975" y="182.602711" style="stroke: #000000; stroke-width: 0.8"/>
      </g>
     </g>
     <g id="text_1">
      <!-- $\pi$ -->
      <g transform="translate(129.497975 197.201149)scale(0.1 -0.1)">
       <defs>
        <path id="Cmmi10-bc" d="M 647 109 
Q 647 144 672 213 
Q 850 584 1004 942 
Q 1159 1300 1282 1639 
Q 1406 1978 1509 2363 
L 1100 2363 
Q 866 2363 662 2216 
Q 459 2069 325 1844 
Q 313 1819 288 1819 
L 213 1819 
Q 153 1819 153 1881 
Q 153 1894 166 1919 
Q 375 2275 614 2517 
Q 853 2759 1153 2759 
L 3475 2759 
Q 3541 2759 3587 2715 
Q 3634 2672 3634 2597 
Q 3634 2503 3567 2433 
Q 3500 2363 3406 2363 
L 2591 2363 
Q 2488 1859 2478 1381 
Q 2478 766 2694 269 
Q 2713 231 2713 191 
Q 2713 122 2672 62 
Q 2631 3 2567 -34 
Q 2503 -72 2431 -72 
Q 2263 -72 2200 203 
Q 2138 478 2138 738 
Q 2138 1103 2200 1442 
Q 2263 1781 2400 2363 
L 1703 2363 
Q 1197 313 1094 103 
Q 1003 -72 844 -72 
Q 766 -72 706 -20 
Q 647 31 647 109 
z
" transform="scale(0.015625)"/>
       </defs>
       <use xlink:href="#Cmmi10-bc" transform="translate(0 0.890625)"/>
      </g>
     </g>
    </g>
    <g id="xtick_3">
     <g id="line2d_3">
      <g>
       <use xlink:href="#m11bfaa4150" x="229.895951" y="182.602711" style="stroke: #000000; stroke-width: 0.8"/>
      </g>
     </g>
     <g id="text_2">
      <!-- $2 \, \pi$ -->
      <g transform="translate(223.795951 197.201149)scale(0.1 -0.1)">
       <defs>
        <path id="Cmr10-32" d="M 319 0 
L 319 172 
Q 319 188 331 206 
L 1325 1306 
Q 1550 1550 1690 1715 
Q 1831 1881 1968 2097 
Q 2106 2313 2186 2536 
Q 2266 2759 2266 3009 
Q 2266 3272 2169 3511 
Q 2072 3750 1880 3894 
Q 1688 4038 1416 4038 
Q 1138 4038 916 3870 
Q 694 3703 603 3438 
Q 628 3444 672 3444 
Q 816 3444 917 3347 
Q 1019 3250 1019 3097 
Q 1019 2950 917 2848 
Q 816 2747 672 2747 
Q 522 2747 420 2851 
Q 319 2956 319 3097 
Q 319 3338 409 3548 
Q 500 3759 670 3923 
Q 841 4088 1055 4175 
Q 1269 4263 1509 4263 
Q 1875 4263 2190 4108 
Q 2506 3953 2690 3670 
Q 2875 3388 2875 3009 
Q 2875 2731 2753 2481 
Q 2631 2231 2440 2026 
Q 2250 1822 1953 1562 
Q 1656 1303 1563 1216 
L 838 519 
L 1453 519 
Q 1906 519 2211 526 
Q 2516 534 2534 550 
Q 2609 631 2688 1141 
L 2875 1141 
L 2694 0 
L 319 0 
z
" transform="scale(0.015625)"/>
       </defs>
       <use xlink:href="#Cmr10-32" transform="translate(0 0.390625)"/>
       <use xlink:href="#Cmmi10-bc" transform="translate(64.632454 0.390625)"/>
      </g>
     </g>
    </g>
    <g id="xtick_4">
     <g id="line2d_4">
      <g>
       <use xlink:href="#m11bfaa4150" x="327.443926" y="182.602711" style="stroke: #000000; stroke-width: 0.8"/>
      </g>
     </g>
     <g id="text_3">
      <!-- $3 \, \pi$ -->
      <g transform="translate(321.343926 197.201149)scale(0.1 -0.1)">
       <defs>
        <path id="Cmr10-33" d="M 609 494 
Q 759 275 1012 169 
Q 1266 63 1556 63 
Q 1928 63 2084 380 
Q 2241 697 2241 1100 
Q 2241 1281 2208 1462 
Q 2175 1644 2097 1800 
Q 2019 1956 1883 2050 
Q 1747 2144 1550 2144 
L 1125 2144 
Q 1069 2144 1069 2203 
L 1069 2259 
Q 1069 2309 1125 2309 
L 1478 2338 
Q 1703 2338 1851 2506 
Q 2000 2675 2069 2917 
Q 2138 3159 2138 3378 
Q 2138 3684 1994 3881 
Q 1850 4078 1556 4078 
Q 1313 4078 1091 3986 
Q 869 3894 738 3706 
Q 750 3709 759 3711 
Q 769 3713 781 3713 
Q 925 3713 1022 3613 
Q 1119 3513 1119 3372 
Q 1119 3234 1022 3134 
Q 925 3034 781 3034 
Q 641 3034 541 3134 
Q 441 3234 441 3372 
Q 441 3647 606 3850 
Q 772 4053 1033 4158 
Q 1294 4263 1556 4263 
Q 1750 4263 1965 4205 
Q 2181 4147 2356 4039 
Q 2531 3931 2642 3762 
Q 2753 3594 2753 3378 
Q 2753 3109 2633 2881 
Q 2513 2653 2303 2487 
Q 2094 2322 1844 2241 
Q 2122 2188 2372 2031 
Q 2622 1875 2773 1631 
Q 2925 1388 2925 1106 
Q 2925 753 2731 467 
Q 2538 181 2222 20 
Q 1906 -141 1556 -141 
Q 1256 -141 954 -26 
Q 653 88 461 316 
Q 269 544 269 863 
Q 269 1022 375 1128 
Q 481 1234 641 1234 
Q 744 1234 830 1186 
Q 916 1138 964 1050 
Q 1013 963 1013 863 
Q 1013 706 903 600 
Q 794 494 641 494 
L 609 494 
z
" transform="scale(0.015625)"/>
       </defs>
       <use xlink:href="#Cmr10-33" transform="translate(0 0.390625)"/>
       <use xlink:href="#Cmmi10-bc" transform="translate(64.632454 0.390625)"/>
      </g>
     </g>
    </g>
    <g id="xtick_5">
     <g id="line2d_5">
      <g>
       <use xlink:href="#m11bfaa4150" x="424.991901" y="182.602711" style="stroke: #000000; stroke-width: 0.8"/>
      </g>
     </g>
     <g id="text_4">
      <!-- $4 \, \pi$ -->
      <g transform="translate(418.891901 197.201149)scale(0.1 -0.1)">
       <defs>
        <path id="Cmr10-34" d="M 178 1056 
L 178 1281 
L 2156 4231 
Q 2178 4263 2222 4263 
L 2316 4263 
Q 2388 4263 2388 4191 
L 2388 1281 
L 3016 1281 
L 3016 1056 
L 2388 1056 
L 2388 428 
Q 2388 297 2575 261 
Q 2763 225 3009 225 
L 3009 0 
L 1247 0 
L 1247 225 
Q 1494 225 1681 261 
Q 1869 297 1869 428 
L 1869 1056 
L 178 1056 
z
M 391 1281 
L 1906 1281 
L 1906 3547 
L 391 1281 
z
" transform="scale(0.015625)"/>
       </defs>
       <use xlink:href="#Cmr10-34" transform="translate(0 0.390625)"/>
       <use xlink:href="#Cmmi10-bc" transform="translate(64.632454 0.390625)"/>
      </g>
     </g>
    </g>
    <g id="xtick_6">
     <g id="line2d_6">
      <defs>
       <path id="m0e0b4d338a" d="M 0 0 
L 0 2 
" style="stroke: #000000; stroke-width: 0.6"/>
      </defs>
      <g>
       <use xlink:href="#m0e0b4d338a" x="59.186994" y="182.602711" style="stroke: #000000; stroke-width: 0.6"/>
      </g>
     </g>
    </g>
    <g id="xtick_7">
     <g id="line2d_7">
      <g>
       <use xlink:href="#m0e0b4d338a" x="83.573988" y="182.602711" style="stroke: #000000; stroke-width: 0.6"/>
      </g>
     </g>
    </g>
    <g id="xtick_8">
     <g id="line2d_8">
      <g>
       <use xlink:href="#m0e0b4d338a" x="107.960981" y="182.602711" style="stroke: #000000; stroke-width: 0.6"/>
      </g>
     </g>
    </g>
    <g id="xtick_9">
     <g id="line2d_9">
      <g>
       <use xlink:href="#m0e0b4d338a" x="156.734969" y="182.602711" style="stroke: #000000; stroke-width: 0.6"/>
      </g>
     </g>
    </g>
    <g id="xtick_10">
     <g id="line2d_10">
      <g>
       <use xlink:href="#m0e0b4d338a" x="181.121963" y="182.602711" style="stroke: #000000; stroke-width: 0.6"/>
      </g>
     </g>
    </g>
    <g id="xtick_11">
     <g id="line2d_11">
      <g>
       <use xlink:href="#m0e0b4d338a" x="205.508957" y="182.602711" style="stroke: #000000; stroke-width: 0.6"/>
      </g>
     </g>
    </g>
    <g id="xtick_12">
     <g id="line2d_12">
      <g>
       <use xlink:href="#m0e0b4d338a" x="254.282944" y="182.602711" style="stroke: #000000; stroke-width: 0.6"/>
      </g>
     </g>
    </g>
    <g id="xtick_13">
     <g id="line2d_13">
      <g>
       <use xlink:href="#m0e0b4d338a" x="278.669938" y="182.602711" style="stroke: #000000; stroke-width: 0.6"/>
      </g>
     </g>
    </g>
    <g id="xtick_14">
     <g id="line2d_14">
      <g>
       <use xlink:href="#m0e0b4d338a" x="303.056932" y="182.602711" style="stroke: #000000; stroke-width: 0.6"/>
      </g>
     </g>
    </g>
    <g id="xtick_15">
     <g id="line2d_15">
      <g>
       <use xlink:href="#m0e0b4d338a" x="351.83092" y="182.602711" style="stroke: #000000; stroke-width: 0.6"/>
      </g>
     </g>
    </g>
    <g id="xtick_16">
     <g id="line2d_16">
      <g>
       <use xlink:href="#m0e0b4d338a" x="376.217913" y="182.602711" style="stroke: #000000; stroke-width: 0.6"/>
      </g>
     </g>
    </g>
    <g id="xtick_17">
     <g id="line2d_17">
      <g>
       <use xlink:href="#m0e0b4d338a" x="400.604907" y="182.602711" style="stroke: #000000; stroke-width: 0.6"/>
      </g>
     </g>
    </g>
    <g id="text_5">
     <!-- $t$ -->
     <g transform="translate(440.795739 182.602711)scale(0.16 -0.16)">
      <defs>
       <path id="Cmmi10-74" d="M 397 519 
Q 397 613 416 697 
L 878 2534 
L 206 2534 
Q 141 2534 141 2619 
Q 166 2759 225 2759 
L 934 2759 
L 1191 3803 
Q 1216 3888 1291 3947 
Q 1366 4006 1459 4006 
Q 1541 4006 1595 3957 
Q 1650 3909 1650 3828 
Q 1650 3809 1648 3798 
Q 1647 3788 1644 3775 
L 1388 2759 
L 2047 2759 
Q 2113 2759 2113 2675 
Q 2109 2659 2100 2621 
Q 2091 2584 2075 2559 
Q 2059 2534 2028 2534 
L 1331 2534 
L 872 684 
Q 825 503 825 372 
Q 825 97 1013 97 
Q 1294 97 1511 361 
Q 1728 625 1844 941 
Q 1869 978 1894 978 
L 1972 978 
Q 1997 978 2012 961 
Q 2028 944 2028 922 
Q 2028 909 2022 903 
Q 1881 516 1612 222 
Q 1344 -72 997 -72 
Q 744 -72 570 93 
Q 397 259 397 519 
z
" transform="scale(0.015625)"/>
      </defs>
      <use xlink:href="#Cmmi10-74" transform="translate(0 0.40625)"/>
     </g>
    </g>
   </g>
   <g id="matplotlib.axis_2">
    <g id="ytick_1">
     <g id="line2d_18">
      <defs>
       <path id="m74ee7c813f" d="M 0 0 
L -3.5 0 
" style="stroke: #000000; stroke-width: 0.8"/>
      </defs>
      <g>
       <use xlink:href="#m74ee7c813f" x="34.8" y="326.049893" style="stroke: #000000; stroke-width: 0.8"/>
      </g>
     </g>
     <g id="text_6">
      <!-- $-2.0$ -->
      <g transform="translate(7.2 329.849112)scale(0.1 -0.1)">
       <defs>
        <path id="Cmsy10-a1" d="M 653 1472 
Q 600 1472 565 1512 
Q 531 1553 531 1600 
Q 531 1647 565 1687 
Q 600 1728 653 1728 
L 4325 1728 
Q 4375 1728 4408 1687 
Q 4441 1647 4441 1600 
Q 4441 1553 4408 1512 
Q 4375 1472 4325 1472 
L 653 1472 
z
" transform="scale(0.015625)"/>
        <path id="Cmmi10-3a" d="M 538 353 
Q 538 497 644 600 
Q 750 703 891 703 
Q 978 703 1062 656 
Q 1147 609 1194 525 
Q 1241 441 1241 353 
Q 1241 213 1137 106 
Q 1034 0 891 0 
Q 750 0 644 106 
Q 538 213 538 353 
z
" transform="scale(0.015625)"/>
        <path id="Cmr10-30" d="M 1600 -141 
Q 816 -141 533 504 
Q 250 1150 250 2041 
Q 250 2597 351 3087 
Q 453 3578 754 3920 
Q 1056 4263 1600 4263 
Q 2022 4263 2290 4056 
Q 2559 3850 2700 3523 
Q 2841 3197 2892 2823 
Q 2944 2450 2944 2041 
Q 2944 1491 2842 1011 
Q 2741 531 2444 195 
Q 2147 -141 1600 -141 
z
M 1600 25 
Q 1956 25 2131 390 
Q 2306 756 2347 1200 
Q 2388 1644 2388 2144 
Q 2388 2625 2347 3031 
Q 2306 3438 2132 3767 
Q 1959 4097 1600 4097 
Q 1238 4097 1063 3765 
Q 888 3434 847 3029 
Q 806 2625 806 2144 
Q 806 1788 823 1472 
Q 841 1156 916 820 
Q 991 484 1158 254 
Q 1325 25 1600 25 
z
" transform="scale(0.015625)"/>
       </defs>
       <use xlink:href="#Cmsy10-a1" transform="translate(0 0.390625)"/>
       <use xlink:href="#Cmr10-32" transform="translate(77.685547 0.390625)"/>
       <use xlink:href="#Cmmi10-3a" transform="translate(127.685547 0.390625)"/>
       <use xlink:href="#Cmr10-30" transform="translate(155.371094 0.390625)"/>
      </g>
     </g>
    </g>
    <g id="ytick_2">
     <g id="line2d_19">
      <g>
       <use xlink:href="#m74ee7c813f" x="34.8" y="290.188097" style="stroke: #000000; stroke-width: 0.8"/>
      </g>
     </g>
     <g id="text_7">
      <!-- $-1.5$ -->
      <g transform="translate(7.2 293.987316)scale(0.1 -0.1)">
       <defs>
        <path id="Cmr10-31" d="M 594 0 
L 594 225 
Q 1394 225 1394 428 
L 1394 3788 
Q 1063 3628 556 3628 
L 556 3853 
Q 1341 3853 1741 4263 
L 1831 4263 
Q 1853 4263 1873 4245 
Q 1894 4228 1894 4206 
L 1894 428 
Q 1894 225 2694 225 
L 2694 0 
L 594 0 
z
" transform="scale(0.015625)"/>
        <path id="Cmr10-35" d="M 556 728 
Q 622 541 758 387 
Q 894 234 1080 148 
Q 1266 63 1466 63 
Q 1928 63 2103 422 
Q 2278 781 2278 1294 
Q 2278 1516 2270 1667 
Q 2263 1819 2228 1959 
Q 2169 2184 2020 2353 
Q 1872 2522 1656 2522 
Q 1441 2522 1286 2456 
Q 1131 2391 1034 2303 
Q 938 2216 863 2119 
Q 788 2022 769 2016 
L 697 2016 
Q 681 2016 657 2036 
Q 634 2056 634 2075 
L 634 4213 
Q 634 4228 654 4245 
Q 675 4263 697 4263 
L 716 4263 
Q 1147 4056 1631 4056 
Q 2106 4056 2547 4263 
L 2566 4263 
Q 2588 4263 2606 4247 
Q 2625 4231 2625 4213 
L 2625 4153 
Q 2625 4122 2613 4122 
Q 2394 3831 2064 3668 
Q 1734 3506 1381 3506 
Q 1125 3506 856 3578 
L 856 2369 
Q 1069 2541 1236 2614 
Q 1403 2688 1663 2688 
Q 2016 2688 2295 2484 
Q 2575 2281 2725 1954 
Q 2875 1628 2875 1288 
Q 2875 903 2686 575 
Q 2497 247 2172 53 
Q 1847 -141 1466 -141 
Q 1150 -141 886 21 
Q 622 184 470 459 
Q 319 734 319 1044 
Q 319 1188 412 1278 
Q 506 1369 647 1369 
Q 788 1369 883 1276 
Q 978 1184 978 1044 
Q 978 906 883 811 
Q 788 716 647 716 
Q 625 716 597 720 
Q 569 725 556 728 
z
" transform="scale(0.015625)"/>
       </defs>
       <use xlink:href="#Cmsy10-a1" transform="translate(0 0.390625)"/>
       <use xlink:href="#Cmr10-31" transform="translate(77.685547 0.390625)"/>
       <use xlink:href="#Cmmi10-3a" transform="translate(127.685547 0.390625)"/>
       <use xlink:href="#Cmr10-35" transform="translate(155.371094 0.390625)"/>
      </g>
     </g>
    </g>
    <g id="ytick_3">
     <g id="line2d_20">
      <g>
       <use xlink:href="#m74ee7c813f" x="34.8" y="254.326302" style="stroke: #000000; stroke-width: 0.8"/>
      </g>
     </g>
     <g id="text_8">
      <!-- $-1.0$ -->
      <g transform="translate(7.2 258.125521)scale(0.1 -0.1)">
       <use xlink:href="#Cmsy10-a1" transform="translate(0 0.390625)"/>
       <use xlink:href="#Cmr10-31" transform="translate(77.685547 0.390625)"/>
       <use xlink:href="#Cmmi10-3a" transform="translate(127.685547 0.390625)"/>
       <use xlink:href="#Cmr10-30" transform="translate(155.371094 0.390625)"/>
      </g>
     </g>
    </g>
    <g id="ytick_4">
     <g id="line2d_21">
      <g>
       <use xlink:href="#m74ee7c813f" x="34.8" y="218.464507" style="stroke: #000000; stroke-width: 0.8"/>
      </g>
     </g>
     <g id="text_9">
      <!-- $-0.5$ -->
      <g transform="translate(7.2 222.263725)scale(0.1 -0.1)">
       <use xlink:href="#Cmsy10-a1" transform="translate(0 0.390625)"/>
       <use xlink:href="#Cmr10-30" transform="translate(77.685547 0.390625)"/>
       <use xlink:href="#Cmmi10-3a" transform="translate(127.685547 0.390625)"/>
       <use xlink:href="#Cmr10-35" transform="translate(155.371094 0.390625)"/>
      </g>
     </g>
    </g>
    <g id="ytick_5">
     <g id="line2d_22">
      <g>
       <use xlink:href="#m74ee7c813f" x="34.8" y="182.602711" style="stroke: #000000; stroke-width: 0.8"/>
      </g>
     </g>
    </g>
    <g id="ytick_6">
     <g id="line2d_23">
      <g>
       <use xlink:href="#m74ee7c813f" x="34.8" y="146.740916" style="stroke: #000000; stroke-width: 0.8"/>
      </g>
     </g>
     <g id="text_10">
      <!-- $0.5$ -->
      <g transform="translate(15 150.540134)scale(0.1 -0.1)">
       <use xlink:href="#Cmr10-30" transform="translate(0 0.390625)"/>
       <use xlink:href="#Cmmi10-3a" transform="translate(50 0.390625)"/>
       <use xlink:href="#Cmr10-35" transform="translate(77.685547 0.390625)"/>
      </g>
     </g>
    </g>
    <g id="ytick_7">
     <g id="line2d_24">
      <g>
       <use xlink:href="#m74ee7c813f" x="34.8" y="110.87912" style="stroke: #000000; stroke-width: 0.8"/>
      </g>
     </g>
     <g id="text_11">
      <!-- $1.0$ -->
      <g transform="translate(15 114.678339)scale(0.1 -0.1)">
       <use xlink:href="#Cmr10-31" transform="translate(0 0.390625)"/>
       <use xlink:href="#Cmmi10-3a" transform="translate(50 0.390625)"/>
       <use xlink:href="#Cmr10-30" transform="translate(77.685547 0.390625)"/>
      </g>
     </g>
    </g>
    <g id="ytick_8">
     <g id="line2d_25">
      <g>
       <use xlink:href="#m74ee7c813f" x="34.8" y="75.017325" style="stroke: #000000; stroke-width: 0.8"/>
      </g>
     </g>
     <g id="text_12">
      <!-- $1.5$ -->
      <g transform="translate(15 78.816543)scale(0.1 -0.1)">
       <use xlink:href="#Cmr10-31" transform="translate(0 0.390625)"/>
       <use xlink:href="#Cmmi10-3a" transform="translate(50 0.390625)"/>
       <use xlink:href="#Cmr10-35" transform="translate(77.685547 0.390625)"/>
      </g>
     </g>
    </g>
    <g id="ytick_9">
     <g id="line2d_26">
      <g>
       <use xlink:href="#m74ee7c813f" x="34.8" y="39.155529" style="stroke: #000000; stroke-width: 0.8"/>
      </g>
     </g>
     <g id="text_13">
      <!-- $2.0$ -->
      <g transform="translate(15 42.954748)scale(0.1 -0.1)">
       <use xlink:href="#Cmr10-32" transform="translate(0 0.390625)"/>
       <use xlink:href="#Cmmi10-3a" transform="translate(50 0.390625)"/>
       <use xlink:href="#Cmr10-30" transform="translate(77.685547 0.390625)"/>
      </g>
     </g>
    </g>
    <g id="ytick_10">
     <g id="line2d_27">
      <defs>
       <path id="md0b2d8ed42" d="M 0 0 
L -2 0 
" style="stroke: #000000; stroke-width: 0.6"/>
      </defs>
      <g>
       <use xlink:href="#md0b2d8ed42" x="34.8" y="333.222252" style="stroke: #000000; stroke-width: 0.6"/>
      </g>
     </g>
    </g>
    <g id="ytick_11">
     <g id="line2d_28">
      <g>
       <use xlink:href="#md0b2d8ed42" x="34.8" y="318.877534" style="stroke: #000000; stroke-width: 0.6"/>
      </g>
     </g>
    </g>
    <g id="ytick_12">
     <g id="line2d_29">
      <g>
       <use xlink:href="#md0b2d8ed42" x="34.8" y="311.705175" style="stroke: #000000; stroke-width: 0.6"/>
      </g>
     </g>
    </g>
    <g id="ytick_13">
     <g id="line2d_30">
      <g>
       <use xlink:href="#md0b2d8ed42" x="34.8" y="304.532816" style="stroke: #000000; stroke-width: 0.6"/>
      </g>
     </g>
    </g>
    <g id="ytick_14">
     <g id="line2d_31">
      <g>
       <use xlink:href="#md0b2d8ed42" x="34.8" y="297.360457" style="stroke: #000000; stroke-width: 0.6"/>
      </g>
     </g>
    </g>
    <g id="ytick_15">
     <g id="line2d_32">
      <g>
       <use xlink:href="#md0b2d8ed42" x="34.8" y="283.015738" style="stroke: #000000; stroke-width: 0.6"/>
      </g>
     </g>
    </g>
    <g id="ytick_16">
     <g id="line2d_33">
      <g>
       <use xlink:href="#md0b2d8ed42" x="34.8" y="275.843379" style="stroke: #000000; stroke-width: 0.6"/>
      </g>
     </g>
    </g>
    <g id="ytick_17">
     <g id="line2d_34">
      <g>
       <use xlink:href="#md0b2d8ed42" x="34.8" y="268.67102" style="stroke: #000000; stroke-width: 0.6"/>
      </g>
     </g>
    </g>
    <g id="ytick_18">
     <g id="line2d_35">
      <g>
       <use xlink:href="#md0b2d8ed42" x="34.8" y="261.498661" style="stroke: #000000; stroke-width: 0.6"/>
      </g>
     </g>
    </g>
    <g id="ytick_19">
     <g id="line2d_36">
      <g>
       <use xlink:href="#md0b2d8ed42" x="34.8" y="247.153943" style="stroke: #000000; stroke-width: 0.6"/>
      </g>
     </g>
    </g>
    <g id="ytick_20">
     <g id="line2d_37">
      <g>
       <use xlink:href="#md0b2d8ed42" x="34.8" y="239.981584" style="stroke: #000000; stroke-width: 0.6"/>
      </g>
     </g>
    </g>
    <g id="ytick_21">
     <g id="line2d_38">
      <g>
       <use xlink:href="#md0b2d8ed42" x="34.8" y="232.809225" style="stroke: #000000; stroke-width: 0.6"/>
      </g>
     </g>
    </g>
    <g id="ytick_22">
     <g id="line2d_39">
      <g>
       <use xlink:href="#md0b2d8ed42" x="34.8" y="225.636866" style="stroke: #000000; stroke-width: 0.6"/>
      </g>
     </g>
    </g>
    <g id="ytick_23">
     <g id="line2d_40">
      <g>
       <use xlink:href="#md0b2d8ed42" x="34.8" y="211.292147" style="stroke: #000000; stroke-width: 0.6"/>
      </g>
     </g>
    </g>
    <g id="ytick_24">
     <g id="line2d_41">
      <g>
       <use xlink:href="#md0b2d8ed42" x="34.8" y="204.119788" style="stroke: #000000; stroke-width: 0.6"/>
      </g>
     </g>
    </g>
    <g id="ytick_25">
     <g id="line2d_42">
      <g>
       <use xlink:href="#md0b2d8ed42" x="34.8" y="196.947429" style="stroke: #000000; stroke-width: 0.6"/>
      </g>
     </g>
    </g>
    <g id="ytick_26">
     <g id="line2d_43">
      <g>
       <use xlink:href="#md0b2d8ed42" x="34.8" y="189.77507" style="stroke: #000000; stroke-width: 0.6"/>
      </g>
     </g>
    </g>
    <g id="ytick_27">
     <g id="line2d_44">
      <g>
       <use xlink:href="#md0b2d8ed42" x="34.8" y="175.430352" style="stroke: #000000; stroke-width: 0.6"/>
      </g>
     </g>
    </g>
    <g id="ytick_28">
     <g id="line2d_45">
      <g>
       <use xlink:href="#md0b2d8ed42" x="34.8" y="168.257993" style="stroke: #000000; stroke-width: 0.6"/>
      </g>
     </g>
    </g>
    <g id="ytick_29">
     <g id="line2d_46">
      <g>
       <use xlink:href="#md0b2d8ed42" x="34.8" y="161.085634" style="stroke: #000000; stroke-width: 0.6"/>
      </g>
     </g>
    </g>
    <g id="ytick_30">
     <g id="line2d_47">
      <g>
       <use xlink:href="#md0b2d8ed42" x="34.8" y="153.913275" style="stroke: #000000; stroke-width: 0.6"/>
      </g>
     </g>
    </g>
    <g id="ytick_31">
     <g id="line2d_48">
      <g>
       <use xlink:href="#md0b2d8ed42" x="34.8" y="139.568557" style="stroke: #000000; stroke-width: 0.6"/>
      </g>
     </g>
    </g>
    <g id="ytick_32">
     <g id="line2d_49">
      <g>
       <use xlink:href="#md0b2d8ed42" x="34.8" y="132.396197" style="stroke: #000000; stroke-width: 0.6"/>
      </g>
     </g>
    </g>
    <g id="ytick_33">
     <g id="line2d_50">
      <g>
       <use xlink:href="#md0b2d8ed42" x="34.8" y="125.223838" style="stroke: #000000; stroke-width: 0.6"/>
      </g>
     </g>
    </g>
    <g id="ytick_34">
     <g id="line2d_51">
      <g>
       <use xlink:href="#md0b2d8ed42" x="34.8" y="118.051479" style="stroke: #000000; stroke-width: 0.6"/>
      </g>
     </g>
    </g>
    <g id="ytick_35">
     <g id="line2d_52">
      <g>
       <use xlink:href="#md0b2d8ed42" x="34.8" y="103.706761" style="stroke: #000000; stroke-width: 0.6"/>
      </g>
     </g>
    </g>
    <g id="ytick_36">
     <g id="line2d_53">
      <g>
       <use xlink:href="#md0b2d8ed42" x="34.8" y="96.534402" style="stroke: #000000; stroke-width: 0.6"/>
      </g>
     </g>
    </g>
    <g id="ytick_37">
     <g id="line2d_54">
      <g>
       <use xlink:href="#md0b2d8ed42" x="34.8" y="89.362043" style="stroke: #000000; stroke-width: 0.6"/>
      </g>
     </g>
    </g>
    <g id="ytick_38">
     <g id="line2d_55">
      <g>
       <use xlink:href="#md0b2d8ed42" x="34.8" y="82.189684" style="stroke: #000000; stroke-width: 0.6"/>
      </g>
     </g>
    </g>
    <g id="ytick_39">
     <g id="line2d_56">
      <g>
       <use xlink:href="#md0b2d8ed42" x="34.8" y="67.844966" style="stroke: #000000; stroke-width: 0.6"/>
      </g>
     </g>
    </g>
    <g id="ytick_40">
     <g id="line2d_57">
      <g>
       <use xlink:href="#md0b2d8ed42" x="34.8" y="60.672606" style="stroke: #000000; stroke-width: 0.6"/>
      </g>
     </g>
    </g>
    <g id="ytick_41">
     <g id="line2d_58">
      <g>
       <use xlink:href="#md0b2d8ed42" x="34.8" y="53.500247" style="stroke: #000000; stroke-width: 0.6"/>
      </g>
     </g>
    </g>
    <g id="ytick_42">
     <g id="line2d_59">
      <g>
       <use xlink:href="#md0b2d8ed42" x="34.8" y="46.327888" style="stroke: #000000; stroke-width: 0.6"/>
      </g>
     </g>
    </g>
    <g id="ytick_43">
     <g id="line2d_60">
      <g>
       <use xlink:href="#md0b2d8ed42" x="34.8" y="31.98317" style="stroke: #000000; stroke-width: 0.6"/>
      </g>
     </g>
    </g>
    <g id="text_14">
     <!-- $x(t)$ -->
     <g transform="translate(21.12 19.2)scale(0.16 -0.16)">
      <defs>
       <path id="Cmmi10-78" d="M 500 184 
Q 613 97 819 97 
Q 1019 97 1172 289 
Q 1325 481 1381 709 
L 1672 1844 
Q 1741 2153 1741 2266 
Q 1741 2425 1652 2544 
Q 1563 2663 1403 2663 
Q 1200 2663 1022 2536 
Q 844 2409 722 2214 
Q 600 2019 550 1819 
Q 538 1778 500 1778 
L 422 1778 
Q 372 1778 372 1838 
L 372 1856 
Q 434 2094 584 2320 
Q 734 2547 951 2687 
Q 1169 2828 1416 2828 
Q 1650 2828 1839 2703 
Q 2028 2578 2106 2363 
Q 2216 2559 2386 2693 
Q 2556 2828 2759 2828 
Q 2897 2828 3040 2779 
Q 3184 2731 3275 2631 
Q 3366 2531 3366 2381 
Q 3366 2219 3261 2101 
Q 3156 1984 2994 1984 
Q 2891 1984 2822 2050 
Q 2753 2116 2753 2216 
Q 2753 2350 2845 2451 
Q 2938 2553 3066 2572 
Q 2950 2663 2747 2663 
Q 2541 2663 2389 2472 
Q 2238 2281 2175 2047 
L 1894 916 
Q 1825 659 1825 494 
Q 1825 331 1917 214 
Q 2009 97 2163 97 
Q 2463 97 2698 361 
Q 2934 625 3009 941 
Q 3022 978 3059 978 
L 3138 978 
Q 3163 978 3178 961 
Q 3194 944 3194 922 
Q 3194 916 3188 903 
Q 3097 522 2806 225 
Q 2516 -72 2150 -72 
Q 1916 -72 1727 54 
Q 1538 181 1459 397 
Q 1359 209 1182 68 
Q 1006 -72 806 -72 
Q 669 -72 523 -23 
Q 378 25 287 125 
Q 197 225 197 378 
Q 197 528 301 651 
Q 406 775 563 775 
Q 669 775 741 711 
Q 813 647 813 544 
Q 813 409 723 309 
Q 634 209 500 184 
z
" transform="scale(0.015625)"/>
       <path id="Cmr10-28" d="M 1984 -1588 
Q 1628 -1306 1370 -942 
Q 1113 -578 948 -165 
Q 784 247 703 697 
Q 622 1147 622 1600 
Q 622 2059 703 2509 
Q 784 2959 951 3375 
Q 1119 3791 1378 4153 
Q 1638 4516 1984 4788 
Q 1984 4800 2016 4800 
L 2075 4800 
Q 2094 4800 2109 4783 
Q 2125 4766 2125 4744 
Q 2125 4716 2113 4703 
Q 1800 4397 1592 4047 
Q 1384 3697 1257 3301 
Q 1131 2906 1075 2482 
Q 1019 2059 1019 1600 
Q 1019 -434 2106 -1491 
Q 2125 -1509 2125 -1544 
Q 2125 -1559 2108 -1579 
Q 2091 -1600 2075 -1600 
L 2016 -1600 
Q 1984 -1600 1984 -1588 
z
" transform="scale(0.015625)"/>
       <path id="Cmr10-29" d="M 416 -1600 
Q 359 -1600 359 -1544 
Q 359 -1516 372 -1503 
Q 1466 -434 1466 1600 
Q 1466 3634 384 4691 
Q 359 4706 359 4744 
Q 359 4766 376 4783 
Q 394 4800 416 4800 
L 475 4800 
Q 494 4800 506 4788 
Q 966 4425 1272 3906 
Q 1578 3388 1720 2800 
Q 1863 2213 1863 1600 
Q 1863 1147 1786 708 
Q 1709 269 1542 -157 
Q 1375 -584 1119 -945 
Q 863 -1306 506 -1588 
Q 494 -1600 475 -1600 
L 416 -1600 
z
" transform="scale(0.015625)"/>
      </defs>
      <use xlink:href="#Cmmi10-78"/>
      <use xlink:href="#Cmr10-28" transform="translate(57.080078 0)"/>
      <use xlink:href="#Cmmi10-74" transform="translate(95.898438 0)"/>
      <use xlink:href="#Cmr10-29" transform="translate(131.982422 0)"/>
     </g>
    </g>
   </g>
   <g id="line2d_61">
    <path d="M 34.8 182.602711 
L 35.485968 182.533518 
L 36.171937 182.335607 
L 39.576755 180.832969 
L 39.932715 180.792706 
L 40.84648 180.925046 
L 41.760245 181.433122 
L 42.67401 182.30447 
L 43.587775 183.454772 
L 45.524839 186.08419 
L 46.086035 186.683179 
L 46.785721 187.202151 
L 47.485408 187.398402 
L 48.185094 187.218934 
L 48.88478 186.640027 
L 49.874291 185.165901 
L 50.863802 183.066405 
L 53.658466 176.473936 
L 54.513606 175.222452 
L 54.941176 174.867716 
L 55.417157 174.716851 
L 55.893139 174.839694 
L 56.369121 175.244156 
L 56.845103 175.927977 
L 57.611959 177.581019 
L 58.378815 179.813377 
L 61.814867 191.440773 
L 62.426123 192.701819 
L 62.984159 193.395296 
L 63.542195 193.59823 
L 63.821213 193.505681 
L 64.379249 192.925681 
L 64.658267 192.440257 
L 65.485825 190.27896 
L 66.476995 186.487994 
L 69.657893 172.048535 
L 70.532144 169.579158 
L 70.969269 168.853606 
L 71.406394 168.510551 
L 71.843519 168.569281 
L 72.280645 169.037632 
L 72.71777 169.911486 
L 73.189391 171.290141 
L 73.867192 173.98952 
L 74.544994 177.38733 
L 77.886169 196.031597 
L 78.484302 198.117648 
L 79.082435 199.41907 
L 79.381502 199.744873 
L 79.680569 199.843249 
L 79.979635 199.709816 
L 80.317647 199.278496 
L 80.655659 198.552603 
L 81.331682 196.255244 
L 82.007706 192.944241 
L 83.003337 186.662246 
L 85.677015 168.379121 
L 86.578581 164.31788 
L 87.143851 162.818252 
L 87.426486 162.410333 
L 87.709121 162.241149 
L 87.991756 162.315305 
L 88.274391 162.634499 
L 88.723976 163.64294 
L 89.17356 165.246694 
L 89.847937 168.677868 
L 90.552305 173.369279 
L 91.991031 185.048653 
L 93.48929 196.99097 
L 94.499 202.879031 
L 95.07497 204.981481 
L 95.448997 205.774945 
L 95.823024 206.090172 
L 96.010037 206.064124 
L 96.384064 205.641645 
L 96.758091 204.728825 
L 97.319132 202.472193 
L 97.925508 198.931774 
L 98.622554 193.673533 
L 99.853926 182.390335 
L 101.40224 167.980156 
L 102.353068 161.08678 
L 102.986953 157.956921 
L 103.462368 156.539964 
L 103.620839 156.257998 
L 103.918937 155.994046 
L 104.217035 156.08309 
L 104.515133 156.526979 
L 104.813231 157.322817 
L 105.409428 159.935072 
L 106.185326 165.189243 
L 107.083834 173.348934 
L 110.330423 205.661448 
L 110.921312 209.280243 
L 111.512202 211.55652 
L 111.830904 212.17455 
L 112.149606 212.346796 
L 112.468308 212.066938 
L 112.78701 211.335528 
L 113.143346 209.992512 
L 113.67785 206.985305 
L 114.390522 201.31134 
L 115.281361 192.128526 
L 118.341207 158.019815 
L 118.908958 153.901558 
L 119.545783 150.875534 
L 119.898733 150.000973 
L 120.251683 149.728413 
L 120.428158 149.821482 
L 120.78472 150.477062 
L 121.144895 151.766813 
L 121.685158 154.83729 
L 122.405508 160.853543 
L 123.125858 168.661037 
L 124.916831 191.846448 
L 126.110594 206.07269 
L 126.906437 213.158236 
L 127.573846 216.984368 
L 127.978076 218.22519 
L 128.247564 218.575039 
L 128.382307 218.604101 
L 128.628178 218.404986 
L 128.874048 217.88047 
L 129.365789 215.870399 
L 129.85753 212.633396 
L 130.533369 206.382094 
L 131.453865 195.206132 
L 134.610032 153.129109 
L 135.336038 147.199115 
L 135.771641 144.91633 
L 136.207245 143.685303 
L 136.352446 143.517191 
L 136.575671 143.498637 
L 136.798896 143.771864 
L 137.245347 145.188429 
L 137.691797 147.734711 
L 138.338916 153.288195 
L 139.141587 162.779825 
L 140.313494 180.038014 
L 142.247184 208.745572 
L 143.143104 218.368941 
L 143.815045 222.928667 
L 144.251593 224.475652 
L 144.542625 224.851833 
L 144.688141 224.839915 
L 144.979173 224.414481 
L 145.270205 223.456431 
L 145.706753 221.042993 
L 146.279529 216.197195 
L 146.96067 208.245856 
L 148.050495 191.89066 
L 150.442425 153.591912 
L 151.289471 143.99319 
L 151.797699 140.098518 
L 152.305927 137.813046 
L 152.644745 137.236642 
L 152.881274 137.294117 
L 153.117802 137.731275 
L 153.472594 139.093357 
L 153.893616 141.781437 
L 154.49913 147.557298 
L 155.256023 157.516974 
L 156.012916 169.749182 
L 158.725153 215.785317 
L 159.557475 225.204947 
L 160.181716 229.50353 
L 160.597877 230.885945 
L 160.805958 231.112803 
L 161.014038 231.026094 
L 161.388782 230.078847 
L 161.722108 228.392157 
L 162.222097 224.428807 
L 162.817682 217.640795 
L 163.604459 205.797997 
L 164.653495 186.664571 
L 166.626543 150.644321 
L 167.446647 139.683383 
L 168.061725 134.15051 
L 168.593219 131.526211 
L 168.836102 131.033863 
L 169.078985 130.994924 
L 169.321868 131.411381 
L 169.686192 132.884393 
L 170.171958 136.389786 
L 170.645655 141.404324 
L 171.338099 151.230061 
L 172.104511 164.807307 
L 175.165476 222.827791 
L 175.927205 231.833006 
L 176.384243 235.275847 
L 176.841281 237.095554 
L 177.005611 237.338567 
L 177.169942 237.361048 
L 177.334273 237.162397 
L 177.673012 236.057457 
L 178.021828 233.955516 
L 178.545053 229.046064 
L 179.242687 219.531606 
L 180.114729 203.833771 
L 183.538923 136.561137 
L 184.180609 129.384279 
L 184.698463 125.917499 
L 185.087979 124.786184 
L 185.287173 124.711474 
L 185.486367 124.980129 
L 185.884755 126.542753 
L 186.283142 129.444188 
L 186.880724 136.162907 
L 187.677499 148.978513 
L 188.778085 171.829602 
L 190.941579 219.142658 
L 191.806976 233.063879 
L 192.462382 240.031234 
L 192.907797 242.717776 
L 193.241859 243.575576 
L 193.464566 243.584601 
L 193.687273 243.141307 
L 194.021335 241.633606 
L 194.450614 238.245347 
L 194.879894 233.305923 
L 195.523813 223.278946 
L 196.428969 204.960496 
L 199.560297 135.258795 
L 200.322693 124.774206 
L 200.867261 120.253564 
L 201.194002 118.843573 
L 201.411829 118.464966 
L 201.520743 118.445828 
L 201.73857 118.748794 
L 202.065311 120.053033 
L 202.478797 123.13832 
L 202.986417 129.014199 
L 203.595562 138.810786 
L 204.382754 155.076013 
L 206.135186 198.411078 
L 207.404901 227.050797 
L 208.206227 240.256773 
L 208.778604 246.446275 
L 209.236505 249.189344 
L 209.465455 249.787507 
L 209.694406 249.86067 
L 209.923356 249.406882 
L 210.262618 247.77121 
L 210.703864 243.962706 
L 211.255422 236.681618 
L 211.917291 224.677245 
L 212.928417 201.172528 
L 215.663346 133.497925 
L 216.41549 121.15504 
L 216.957255 115.363314 
L 217.420624 112.713352 
L 217.729537 112.181671 
L 217.883993 112.291752 
L 218.192906 113.263908 
L 218.501818 115.228493 
L 218.965187 119.978349 
L 219.604459 129.8269 
L 220.308069 144.436359 
L 221.224802 167.674872 
L 223.558949 229.001981 
L 224.434575 245.226513 
L 225.083375 252.818508 
L 225.544735 255.585981 
L 225.843894 256.150654 
L 225.993474 256.064838 
L 226.292634 255.156417 
L 226.591793 253.274546 
L 227.040532 248.678467 
L 227.638851 239.456091 
L 228.41861 222.886107 
L 229.458289 195.217891 
L 231.557837 137.22851 
L 232.373439 120.403532 
L 232.994087 111.560841 
L 233.490605 107.367622 
L 233.862994 106.021044 
L 233.983686 105.923323 
L 234.104377 105.992434 
L 234.34576 106.630998 
L 234.707835 108.829576 
L 235.190602 114.010941 
L 235.79406 123.852079 
L 236.577909 141.389988 
L 237.675299 172.080782 
L 239.606483 227.849941 
L 240.537986 247.992423 
L 241.190038 257.30765 
L 241.605917 260.833558 
L 241.910977 262.147485 
L 242.108461 262.410943 
L 242.305945 262.209665 
L 242.503429 261.543941 
L 242.799655 259.681811 
L 243.194622 255.623923 
L 243.688332 248.150883 
L 244.280784 236.016941 
L 245.188161 212.13697 
L 248.51178 117.584006 
L 249.168578 106.77471 
L 249.6655 101.764538 
L 249.996781 100.059258 
L 250.162422 99.711113 
L 250.328062 99.702356 
L 250.493703 100.033544 
L 250.824984 101.711019 
L 251.156265 104.720186 
L 251.642227 111.444047 
L 252.282871 124.139277 
L 253.030288 143.500262 
L 254.456783 188.27971 
L 255.969283 234.24842 
L 256.775839 252.775777 
L 257.404784 262.677567 
L 257.876492 267.064985 
L 258.190965 268.447389 
L 258.348201 268.66513 
L 258.505437 268.565173 
L 258.662673 268.147442 
L 258.977145 266.364217 
L 259.397509 262.04635 
L 259.926965 253.620258 
L 260.522837 240.558466 
L 261.483061 213.262311 
L 264.709446 113.939575 
L 265.272521 103.306535 
L 265.802095 96.673693 
L 266.176605 94.123845 
L 266.426278 93.447116 
L 266.551115 93.41945 
L 266.675951 93.599461 
L 266.925624 94.581248 
L 267.300134 97.590925 
L 267.743538 103.462554 
L 268.274484 113.56044 
L 268.911619 129.526926 
L 269.749459 155.364606 
L 272.465079 244.542136 
L 273.164442 260.503106 
L 273.723933 269.298331 
L 274.188843 273.571637 
L 274.51388 274.830889 
L 274.676399 274.916501 
L 274.838918 274.637851 
L 275.001436 273.995547 
L 275.317384 271.715135 
L 275.777671 266.016795 
L 276.391388 254.322861 
L 277.158533 234.055832 
L 278.225583 198.617261 
L 280.450381 122.544414 
L 281.211905 103.692003 
L 281.80693 93.553087 
L 282.218046 89.241327 
L 282.492122 87.663094 
L 282.766199 87.146948 
L 282.903238 87.290171 
L 283.177315 88.378678 
L 283.451391 90.527136 
L 283.862507 95.686381 
L 284.326271 104.151177 
L 284.979721 120.329148 
L 285.959897 151.795666 
L 288.945673 254.779826 
L 289.597776 269.19325 
L 290.063565 276.216971 
L 290.531094 280.244077 
L 290.84278 281.171878 
L 290.998623 281.100431 
L 291.154466 280.67142 
L 291.433006 279.018323 
L 291.801096 275.118453 
L 292.291882 267.007319 
L 292.905365 252.601979 
L 293.615611 230.998295 
L 294.64208 193.631422 
L 296.57022 122.849046 
L 297.446647 99.000754 
L 298.1121 87.042288 
L 298.511371 82.827637 
L 298.777552 81.325875 
L 299.043733 80.893163 
L 299.176823 81.08025 
L 299.443004 82.260191 
L 299.820726 85.756963 
L 300.30999 93.353112 
L 300.834456 105.057859 
L 301.534041 125.594951 
L 302.513461 161.114303 
L 304.831052 248.425345 
L 305.63144 270.054417 
L 306.291711 281.794979 
L 306.70438 285.924749 
L 307.034515 287.349453 
L 307.199583 287.424292 
L 307.364651 287.072452 
L 307.612252 285.747142 
L 307.942388 282.509752 
L 308.387614 275.568757 
L 308.944148 263.023602 
L 309.723294 239.294986 
L 310.739666 200.833513 
L 312.948516 115.171496 
L 313.716324 93.55026 
L 314.291571 82.30665 
L 314.723006 77.06786 
L 315.010629 75.189099 
L 315.298252 74.633888 
L 315.442064 74.85625 
L 315.729687 76.299185 
L 316.04194 79.35538 
L 316.51032 86.75286 
L 317.153624 102.002692 
L 317.853323 124.270584 
L 318.727945 158.018442 
L 321.071546 251.805533 
L 321.88437 275.1845 
L 322.50372 287.08119 
L 322.913751 291.730406 
L 323.221275 293.432874 
L 323.42629 293.700916 
L 323.631306 293.271658 
L 323.938829 291.325259 
L 324.34886 286.341992 
L 324.861399 276.451786 
L 325.506027 258.802451 
L 326.298564 230.670976 
L 327.793722 167.400546 
L 329.25857 109.460323 
L 330.072801 85.979406 
L 330.683474 74.43266 
L 331.107357 69.896754 
L 331.429462 68.458362 
L 331.53683 68.37074 
L 331.644198 68.479809 
L 331.858934 69.287498 
L 332.181038 71.962077 
L 332.589377 77.817694 
L 333.106787 88.982006 
L 333.710431 106.741524 
L 334.57278 139.097484 
L 337.87685 273.299994 
L 338.584525 290.005428 
L 339.025289 296.462387 
L 339.355863 299.15831 
L 339.576245 299.903816 
L 339.686436 299.957975 
L 339.796627 299.799273 
L 340.017009 298.84421 
L 340.375552 295.490162 
L 340.790034 288.908654 
L 341.342677 275.903297 
L 342.033481 253.693302 
L 343.065326 211.50642 
L 345.603932 102.358182 
L 346.403169 78.908147 
L 346.935993 68.571 
L 347.380113 63.603076 
L 347.713203 62.161693 
L 347.824233 62.123548 
L 347.935263 62.307281 
L 348.157323 63.339245 
L 348.490414 66.533487 
L 348.957571 74.247455 
L 349.529466 88.491212 
L 350.18306 110.400524 
L 351.16345 151.53238 
L 353.750857 265.579691 
L 354.519896 288.703652 
L 355.051829 299.400013 
L 355.507771 304.687033 
L 355.76806 306.020549 
L 355.984676 306.18003 
L 356.201292 305.473483 
L 356.526215 302.799796 
L 356.959446 296.289669 
L 357.500986 283.678546 
L 358.150833 262.71729 
L 358.908988 231.898937 
L 362.330296 82.582943 
L 362.917355 67.668988 
L 363.462631 59.0434 
L 363.848711 56.216254 
L 364.041751 55.852835 
L 364.138271 55.93555 
L 364.331311 56.629772 
L 364.620871 58.985549 
L 365.006951 64.533546 
L 365.489551 75.161748 
L 366.165191 96.258523 
L 366.989709 129.894423 
L 368.378961 196.967869 
L 369.794887 261.603834 
L 370.660176 290.963806 
L 371.236574 304.079318 
L 371.690455 310.229658 
L 372.030865 312.28553 
L 372.144335 312.473996 
L 372.257805 312.412767 
L 372.484746 311.541506 
L 372.821065 308.427388 
L 373.25858 301.19836 
L 373.805474 287.404847 
L 374.461747 264.694205 
L 375.406291 223.061898 
L 378.342856 85.792419 
L 379.040202 65.056554 
L 379.538307 55.334139 
L 379.93679 50.914211 
L 380.235653 49.637315 
L 380.335273 49.605007 
L 380.534515 50.131781 
L 380.833378 52.394079 
L 381.171851 57.055853 
L 381.623148 66.607895 
L 382.18727 83.495991 
L 382.959544 114.130641 
L 383.922473 160.654534 
L 386.011184 263.695113 
L 386.878147 295.038909 
L 387.515543 310.334829 
L 387.935674 316.26287 
L 388.271779 318.485513 
L 388.439831 318.740084 
L 388.607884 318.420525 
L 388.859963 316.867112 
L 389.196067 312.814194 
L 389.616198 304.659898 
L 390.139464 290.013005 
L 390.888106 261.543894 
L 391.798622 218.167812 
L 394.401596 88.823683 
L 395.120363 64.255827 
L 395.729204 50.423511 
L 396.148257 45.08406 
L 396.427626 43.514179 
L 396.567311 43.335706 
L 396.706995 43.563049 
L 396.916521 44.663879 
L 397.19589 47.538842 
L 397.614943 54.796594 
L 398.133464 68.408132 
L 398.81537 93.225814 
L 399.724578 135.722141 
L 402.726404 286.155679 
L 403.465226 309.438953 
L 404.019343 320.283957 
L 404.390532 324.063483 
L 404.670257 324.996739 
L 404.763499 324.938483 
L 404.949983 324.267498 
L 405.229708 321.881767 
L 405.602676 316.170651 
L 406.079813 304.826131 
L 406.694045 284.138753 
L 407.499919 248.464915 
L 408.459148 197.849 
L 410.309198 99.928493 
L 411.174755 65.30689 
L 411.788826 48.375753 
L 412.227449 40.822283 
L 412.578347 37.689826 
L 412.753796 37.118267 
L 412.84152 37.083077 
L 413.016969 37.514465 
L 413.280142 39.41197 
L 413.641205 44.423362 
L 414.13065 55.499136 
L 414.717983 74.775744 
L 415.400188 104.11489 
L 416.562786 165.594218 
L 418.451018 267.668853 
L 419.322119 303.051512 
L 419.965426 320.755216 
L 420.380938 327.747016 
L 420.692572 330.553694 
L 420.900328 331.236923 
L 421.004206 331.219558 
L 421.211962 330.466366 
L 421.529639 327.472943 
L 421.969325 319.735024 
L 422.518931 304.512413 
L 423.178459 279.021347 
L 424.08518 234.051139 
L 424.991901 182.602711 
L 424.991901 182.602711 
" clip-path="url(#p1e93b16727)" style="fill: none; stroke: #0000ff; stroke-linecap: square"/>
   </g>
   <g id="patch_3">
    <path d="M 34.8 337.12 
L 34.8 31.2 
" style="fill: none; stroke: #000000; stroke-width: 0.8; stroke-linejoin: miter; stroke-linecap: square"/>
   </g>
   <g id="patch_4">
    <path d="M 26.996162 182.602711 
L 432.795739 182.602711 
" style="fill: none; stroke: #000000; stroke-width: 0.8; stroke-linejoin: miter; stroke-linecap: square"/>
   </g>
  </g>
 </g>
 <defs>
  <clipPath id="p1e93b16727">
   <rect x="26.996162" y="31.2" width="405.799577" height="305.92"/>
  </clipPath>
 </defs>
</svg>
