<?xml version="1.0" encoding="utf-8" standalone="no"?>
<!DOCTYPE svg PUBLIC "-//W3C//DTD SVG 1.1//EN"
  "http://www.w3.org/Graphics/SVG/1.1/DTD/svg11.dtd">
<svg xmlns:xlink="http://www.w3.org/1999/xlink" width="455.621487pt" height="338.4pt" viewBox="0 0 455.621487 338.4" xmlns="http://www.w3.org/2000/svg" version="1.1">
 <metadata>
  <rdf:RDF xmlns:dc="http://purl.org/dc/elements/1.1/" xmlns:cc="http://creativecommons.org/ns#" xmlns:rdf="http://www.w3.org/1999/02/22-rdf-syntax-ns#">
   <cc:Work>
    <dc:type rdf:resource="http://purl.org/dc/dcmitype/StillImage"/>
    <dc:date>2024-01-20T22:24:26.755297</dc:date>
    <dc:format>image/svg+xml</dc:format>
    <dc:creator>
     <cc:Agent>
      <dc:title>Matplotlib v3.5.1, https://matplotlib.org/</dc:title>
     </cc:Agent>
    </dc:creator>
   </cc:Work>
  </rdf:RDF>
 </metadata>
 <defs>
  <style type="text/css">*{stroke-linejoin: round; stroke-linecap: butt}</style>
 </defs>
 <g id="figure_1">
  <g id="patch_1">
   <path d="M 0 338.4 
L 455.621487 338.4 
L 455.621487 0 
L 0 0 
z
" style="fill: #ffffff"/>
  </g>
  <g id="axes_1">
   <g id="patch_2">
    <path d="M 35.691294 331.2 
L 433.391487 331.2 
L 433.391487 7.2 
L 35.691294 7.2 
z
" style="fill: #ffffff"/>
   </g>
   <g id="matplotlib.axis_1">
    <g id="xtick_1">
     <g id="line2d_1">
      <defs>
       <path id="m27fdb306c4" d="M 0 0 
L 0 3.5 
" style="stroke: #000000; stroke-width: 0.8"/>
      </defs>
      <g>
       <use xlink:href="#m27fdb306c4" x="43.339375" y="207.11812" style="stroke: #000000; stroke-width: 0.8"/>
      </g>
     </g>
    </g>
    <g id="xtick_2">
     <g id="line2d_2">
      <g>
       <use xlink:href="#m27fdb306c4" x="119.820181" y="207.11812" style="stroke: #000000; stroke-width: 0.8"/>
      </g>
     </g>
     <g id="text_1">
      <!-- 2 -->
      <g transform="translate(116.002681 223.236245)scale(0.12 -0.12)">
       <defs>
        <path id="DejaVuSans-32" d="M 1228 531 
L 3431 531 
L 3431 0 
L 469 0 
L 469 531 
Q 828 903 1448 1529 
Q 2069 2156 2228 2338 
Q 2531 2678 2651 2914 
Q 2772 3150 2772 3378 
Q 2772 3750 2511 3984 
Q 2250 4219 1831 4219 
Q 1534 4219 1204 4116 
Q 875 4013 500 3803 
L 500 4441 
Q 881 4594 1212 4672 
Q 1544 4750 1819 4750 
Q 2544 4750 2975 4387 
Q 3406 4025 3406 3419 
Q 3406 3131 3298 2873 
Q 3191 2616 2906 2266 
Q 2828 2175 2409 1742 
Q 1991 1309 1228 531 
z
" transform="scale(0.015625)"/>
       </defs>
       <use xlink:href="#DejaVuSans-32"/>
      </g>
     </g>
    </g>
    <g id="xtick_3">
     <g id="line2d_3">
      <g>
       <use xlink:href="#m27fdb306c4" x="196.300987" y="207.11812" style="stroke: #000000; stroke-width: 0.8"/>
      </g>
     </g>
     <g id="text_2">
      <!-- 4 -->
      <g transform="translate(192.483487 223.236245)scale(0.12 -0.12)">
       <defs>
        <path id="DejaVuSans-34" d="M 2419 4116 
L 825 1625 
L 2419 1625 
L 2419 4116 
z
M 2253 4666 
L 3047 4666 
L 3047 1625 
L 3713 1625 
L 3713 1100 
L 3047 1100 
L 3047 0 
L 2419 0 
L 2419 1100 
L 313 1100 
L 313 1709 
L 2253 4666 
z
" transform="scale(0.015625)"/>
       </defs>
       <use xlink:href="#DejaVuSans-34"/>
      </g>
     </g>
    </g>
    <g id="xtick_4">
     <g id="line2d_4">
      <g>
       <use xlink:href="#m27fdb306c4" x="272.781794" y="207.11812" style="stroke: #000000; stroke-width: 0.8"/>
      </g>
     </g>
     <g id="text_3">
      <!-- 6 -->
      <g transform="translate(268.964294 223.236245)scale(0.12 -0.12)">
       <defs>
        <path id="DejaVuSans-36" d="M 2113 2584 
Q 1688 2584 1439 2293 
Q 1191 2003 1191 1497 
Q 1191 994 1439 701 
Q 1688 409 2113 409 
Q 2538 409 2786 701 
Q 3034 994 3034 1497 
Q 3034 2003 2786 2293 
Q 2538 2584 2113 2584 
z
M 3366 4563 
L 3366 3988 
Q 3128 4100 2886 4159 
Q 2644 4219 2406 4219 
Q 1781 4219 1451 3797 
Q 1122 3375 1075 2522 
Q 1259 2794 1537 2939 
Q 1816 3084 2150 3084 
Q 2853 3084 3261 2657 
Q 3669 2231 3669 1497 
Q 3669 778 3244 343 
Q 2819 -91 2113 -91 
Q 1303 -91 875 529 
Q 447 1150 447 2328 
Q 447 3434 972 4092 
Q 1497 4750 2381 4750 
Q 2619 4750 2861 4703 
Q 3103 4656 3366 4563 
z
" transform="scale(0.015625)"/>
       </defs>
       <use xlink:href="#DejaVuSans-36"/>
      </g>
     </g>
    </g>
    <g id="xtick_5">
     <g id="line2d_5">
      <g>
       <use xlink:href="#m27fdb306c4" x="349.2626" y="207.11812" style="stroke: #000000; stroke-width: 0.8"/>
      </g>
     </g>
     <g id="text_4">
      <!-- 8 -->
      <g transform="translate(345.4451 223.236245)scale(0.12 -0.12)">
       <defs>
        <path id="DejaVuSans-38" d="M 2034 2216 
Q 1584 2216 1326 1975 
Q 1069 1734 1069 1313 
Q 1069 891 1326 650 
Q 1584 409 2034 409 
Q 2484 409 2743 651 
Q 3003 894 3003 1313 
Q 3003 1734 2745 1975 
Q 2488 2216 2034 2216 
z
M 1403 2484 
Q 997 2584 770 2862 
Q 544 3141 544 3541 
Q 544 4100 942 4425 
Q 1341 4750 2034 4750 
Q 2731 4750 3128 4425 
Q 3525 4100 3525 3541 
Q 3525 3141 3298 2862 
Q 3072 2584 2669 2484 
Q 3125 2378 3379 2068 
Q 3634 1759 3634 1313 
Q 3634 634 3220 271 
Q 2806 -91 2034 -91 
Q 1263 -91 848 271 
Q 434 634 434 1313 
Q 434 1759 690 2068 
Q 947 2378 1403 2484 
z
M 1172 3481 
Q 1172 3119 1398 2916 
Q 1625 2713 2034 2713 
Q 2441 2713 2670 2916 
Q 2900 3119 2900 3481 
Q 2900 3844 2670 4047 
Q 2441 4250 2034 4250 
Q 1625 4250 1398 4047 
Q 1172 3844 1172 3481 
z
" transform="scale(0.015625)"/>
       </defs>
       <use xlink:href="#DejaVuSans-38"/>
      </g>
     </g>
    </g>
    <g id="xtick_6">
     <g id="line2d_6">
      <g>
       <use xlink:href="#m27fdb306c4" x="425.743406" y="207.11812" style="stroke: #000000; stroke-width: 0.8"/>
      </g>
     </g>
     <g id="text_5">
      <!-- 10 -->
      <g transform="translate(418.108406 223.236245)scale(0.12 -0.12)">
       <defs>
        <path id="DejaVuSans-31" d="M 794 531 
L 1825 531 
L 1825 4091 
L 703 3866 
L 703 4441 
L 1819 4666 
L 2450 4666 
L 2450 531 
L 3481 531 
L 3481 0 
L 794 0 
L 794 531 
z
" transform="scale(0.015625)"/>
        <path id="DejaVuSans-30" d="M 2034 4250 
Q 1547 4250 1301 3770 
Q 1056 3291 1056 2328 
Q 1056 1369 1301 889 
Q 1547 409 2034 409 
Q 2525 409 2770 889 
Q 3016 1369 3016 2328 
Q 3016 3291 2770 3770 
Q 2525 4250 2034 4250 
z
M 2034 4750 
Q 2819 4750 3233 4129 
Q 3647 3509 3647 2328 
Q 3647 1150 3233 529 
Q 2819 -91 2034 -91 
Q 1250 -91 836 529 
Q 422 1150 422 2328 
Q 422 3509 836 4129 
Q 1250 4750 2034 4750 
z
" transform="scale(0.015625)"/>
       </defs>
       <use xlink:href="#DejaVuSans-31"/>
       <use xlink:href="#DejaVuSans-30" x="63.623047"/>
      </g>
     </g>
    </g>
    <g id="xtick_7">
     <g id="line2d_7">
      <defs>
       <path id="md56fa8da40" d="M 0 0 
L 0 2 
" style="stroke: #000000; stroke-width: 0.6"/>
      </defs>
      <g>
       <use xlink:href="#md56fa8da40" x="62.459577" y="207.11812" style="stroke: #000000; stroke-width: 0.6"/>
      </g>
     </g>
    </g>
    <g id="xtick_8">
     <g id="line2d_8">
      <g>
       <use xlink:href="#md56fa8da40" x="81.579778" y="207.11812" style="stroke: #000000; stroke-width: 0.6"/>
      </g>
     </g>
    </g>
    <g id="xtick_9">
     <g id="line2d_9">
      <g>
       <use xlink:href="#md56fa8da40" x="100.69998" y="207.11812" style="stroke: #000000; stroke-width: 0.6"/>
      </g>
     </g>
    </g>
    <g id="xtick_10">
     <g id="line2d_10">
      <g>
       <use xlink:href="#md56fa8da40" x="138.940383" y="207.11812" style="stroke: #000000; stroke-width: 0.6"/>
      </g>
     </g>
    </g>
    <g id="xtick_11">
     <g id="line2d_11">
      <g>
       <use xlink:href="#md56fa8da40" x="158.060584" y="207.11812" style="stroke: #000000; stroke-width: 0.6"/>
      </g>
     </g>
    </g>
    <g id="xtick_12">
     <g id="line2d_12">
      <g>
       <use xlink:href="#md56fa8da40" x="177.180786" y="207.11812" style="stroke: #000000; stroke-width: 0.6"/>
      </g>
     </g>
    </g>
    <g id="xtick_13">
     <g id="line2d_13">
      <g>
       <use xlink:href="#md56fa8da40" x="215.421189" y="207.11812" style="stroke: #000000; stroke-width: 0.6"/>
      </g>
     </g>
    </g>
    <g id="xtick_14">
     <g id="line2d_14">
      <g>
       <use xlink:href="#md56fa8da40" x="234.541391" y="207.11812" style="stroke: #000000; stroke-width: 0.6"/>
      </g>
     </g>
    </g>
    <g id="xtick_15">
     <g id="line2d_15">
      <g>
       <use xlink:href="#md56fa8da40" x="253.661592" y="207.11812" style="stroke: #000000; stroke-width: 0.6"/>
      </g>
     </g>
    </g>
    <g id="xtick_16">
     <g id="line2d_16">
      <g>
       <use xlink:href="#md56fa8da40" x="291.901995" y="207.11812" style="stroke: #000000; stroke-width: 0.6"/>
      </g>
     </g>
    </g>
    <g id="xtick_17">
     <g id="line2d_17">
      <g>
       <use xlink:href="#md56fa8da40" x="311.022197" y="207.11812" style="stroke: #000000; stroke-width: 0.6"/>
      </g>
     </g>
    </g>
    <g id="xtick_18">
     <g id="line2d_18">
      <g>
       <use xlink:href="#md56fa8da40" x="330.142398" y="207.11812" style="stroke: #000000; stroke-width: 0.6"/>
      </g>
     </g>
    </g>
    <g id="xtick_19">
     <g id="line2d_19">
      <g>
       <use xlink:href="#md56fa8da40" x="368.382801" y="207.11812" style="stroke: #000000; stroke-width: 0.6"/>
      </g>
     </g>
    </g>
    <g id="xtick_20">
     <g id="line2d_20">
      <g>
       <use xlink:href="#md56fa8da40" x="387.503003" y="207.11812" style="stroke: #000000; stroke-width: 0.6"/>
      </g>
     </g>
    </g>
    <g id="xtick_21">
     <g id="line2d_21">
      <g>
       <use xlink:href="#md56fa8da40" x="406.623205" y="207.11812" style="stroke: #000000; stroke-width: 0.6"/>
      </g>
     </g>
    </g>
    <g id="text_6">
     <!-- $t$ -->
     <g transform="translate(441.391487 207.11812)scale(0.19 -0.19)">
      <defs>
       <path id="Cmmi10-74" d="M 397 519 
Q 397 613 416 697 
L 878 2534 
L 206 2534 
Q 141 2534 141 2619 
Q 166 2759 225 2759 
L 934 2759 
L 1191 3803 
Q 1216 3888 1291 3947 
Q 1366 4006 1459 4006 
Q 1541 4006 1595 3957 
Q 1650 3909 1650 3828 
Q 1650 3809 1648 3798 
Q 1647 3788 1644 3775 
L 1388 2759 
L 2047 2759 
Q 2113 2759 2113 2675 
Q 2109 2659 2100 2621 
Q 2091 2584 2075 2559 
Q 2059 2534 2028 2534 
L 1331 2534 
L 872 684 
Q 825 503 825 372 
Q 825 97 1013 97 
Q 1294 97 1511 361 
Q 1728 625 1844 941 
Q 1869 978 1894 978 
L 1972 978 
Q 1997 978 2012 961 
Q 2028 944 2028 922 
Q 2028 909 2022 903 
Q 1881 516 1612 222 
Q 1344 -72 997 -72 
Q 744 -72 570 93 
Q 397 259 397 519 
z
" transform="scale(0.015625)"/>
      </defs>
      <use xlink:href="#Cmmi10-74" transform="translate(0 0.40625)"/>
     </g>
    </g>
   </g>
   <g id="matplotlib.axis_2">
    <g id="ytick_1">
     <g id="line2d_22">
      <defs>
       <path id="m84839d30e6" d="M 0 0 
L -3.5 0 
" style="stroke: #000000; stroke-width: 0.8"/>
      </defs>
      <g>
       <use xlink:href="#m84839d30e6" x="43.339375" y="315.49897" style="stroke: #000000; stroke-width: 0.8"/>
      </g>
     </g>
     <g id="text_7">
      <!-- −1.5 -->
      <g transform="translate(7.2 320.058032)scale(0.12 -0.12)">
       <defs>
        <path id="DejaVuSans-2212" d="M 678 2272 
L 4684 2272 
L 4684 1741 
L 678 1741 
L 678 2272 
z
" transform="scale(0.015625)"/>
        <path id="DejaVuSans-2e" d="M 684 794 
L 1344 794 
L 1344 0 
L 684 0 
L 684 794 
z
" transform="scale(0.015625)"/>
        <path id="DejaVuSans-35" d="M 691 4666 
L 3169 4666 
L 3169 4134 
L 1269 4134 
L 1269 2991 
Q 1406 3038 1543 3061 
Q 1681 3084 1819 3084 
Q 2600 3084 3056 2656 
Q 3513 2228 3513 1497 
Q 3513 744 3044 326 
Q 2575 -91 1722 -91 
Q 1428 -91 1123 -41 
Q 819 9 494 109 
L 494 744 
Q 775 591 1075 516 
Q 1375 441 1709 441 
Q 2250 441 2565 725 
Q 2881 1009 2881 1497 
Q 2881 1984 2565 2268 
Q 2250 2553 1709 2553 
Q 1456 2553 1204 2497 
Q 953 2441 691 2322 
L 691 4666 
z
" transform="scale(0.015625)"/>
       </defs>
       <use xlink:href="#DejaVuSans-2212"/>
       <use xlink:href="#DejaVuSans-31" x="83.789062"/>
       <use xlink:href="#DejaVuSans-2e" x="147.412109"/>
       <use xlink:href="#DejaVuSans-35" x="179.199219"/>
      </g>
     </g>
    </g>
    <g id="ytick_2">
     <g id="line2d_23">
      <g>
       <use xlink:href="#m84839d30e6" x="43.339375" y="279.37202" style="stroke: #000000; stroke-width: 0.8"/>
      </g>
     </g>
     <g id="text_8">
      <!-- −1.0 -->
      <g transform="translate(7.2 283.931082)scale(0.12 -0.12)">
       <use xlink:href="#DejaVuSans-2212"/>
       <use xlink:href="#DejaVuSans-31" x="83.789062"/>
       <use xlink:href="#DejaVuSans-2e" x="147.412109"/>
       <use xlink:href="#DejaVuSans-30" x="179.199219"/>
      </g>
     </g>
    </g>
    <g id="ytick_3">
     <g id="line2d_24">
      <g>
       <use xlink:href="#m84839d30e6" x="43.339375" y="243.24507" style="stroke: #000000; stroke-width: 0.8"/>
      </g>
     </g>
     <g id="text_9">
      <!-- −0.5 -->
      <g transform="translate(7.2 247.804132)scale(0.12 -0.12)">
       <use xlink:href="#DejaVuSans-2212"/>
       <use xlink:href="#DejaVuSans-30" x="83.789062"/>
       <use xlink:href="#DejaVuSans-2e" x="147.412109"/>
       <use xlink:href="#DejaVuSans-35" x="179.199219"/>
      </g>
     </g>
    </g>
    <g id="ytick_4">
     <g id="line2d_25">
      <g>
       <use xlink:href="#m84839d30e6" x="43.339375" y="207.11812" style="stroke: #000000; stroke-width: 0.8"/>
      </g>
     </g>
    </g>
    <g id="ytick_5">
     <g id="line2d_26">
      <g>
       <use xlink:href="#m84839d30e6" x="43.339375" y="170.99117" style="stroke: #000000; stroke-width: 0.8"/>
      </g>
     </g>
     <g id="text_10">
      <!-- 0.5 -->
      <g transform="translate(17.255625 175.550233)scale(0.12 -0.12)">
       <use xlink:href="#DejaVuSans-30"/>
       <use xlink:href="#DejaVuSans-2e" x="63.623047"/>
       <use xlink:href="#DejaVuSans-35" x="95.410156"/>
      </g>
     </g>
    </g>
    <g id="ytick_6">
     <g id="line2d_27">
      <g>
       <use xlink:href="#m84839d30e6" x="43.339375" y="134.864221" style="stroke: #000000; stroke-width: 0.8"/>
      </g>
     </g>
     <g id="text_11">
      <!-- 1.0 -->
      <g transform="translate(17.255625 139.423283)scale(0.12 -0.12)">
       <use xlink:href="#DejaVuSans-31"/>
       <use xlink:href="#DejaVuSans-2e" x="63.623047"/>
       <use xlink:href="#DejaVuSans-30" x="95.410156"/>
      </g>
     </g>
    </g>
    <g id="ytick_7">
     <g id="line2d_28">
      <g>
       <use xlink:href="#m84839d30e6" x="43.339375" y="98.737271" style="stroke: #000000; stroke-width: 0.8"/>
      </g>
     </g>
     <g id="text_12">
      <!-- 1.5 -->
      <g transform="translate(17.255625 103.296333)scale(0.12 -0.12)">
       <use xlink:href="#DejaVuSans-31"/>
       <use xlink:href="#DejaVuSans-2e" x="63.623047"/>
       <use xlink:href="#DejaVuSans-35" x="95.410156"/>
      </g>
     </g>
    </g>
    <g id="ytick_8">
     <g id="line2d_29">
      <g>
       <use xlink:href="#m84839d30e6" x="43.339375" y="62.610321" style="stroke: #000000; stroke-width: 0.8"/>
      </g>
     </g>
     <g id="text_13">
      <!-- 2.0 -->
      <g transform="translate(17.255625 67.169384)scale(0.12 -0.12)">
       <use xlink:href="#DejaVuSans-32"/>
       <use xlink:href="#DejaVuSans-2e" x="63.623047"/>
       <use xlink:href="#DejaVuSans-30" x="95.410156"/>
      </g>
     </g>
    </g>
    <g id="ytick_9">
     <g id="line2d_30">
      <g>
       <use xlink:href="#m84839d30e6" x="43.339375" y="26.483371" style="stroke: #000000; stroke-width: 0.8"/>
      </g>
     </g>
     <g id="text_14">
      <!-- 2.5 -->
      <g transform="translate(17.255625 31.042434)scale(0.12 -0.12)">
       <use xlink:href="#DejaVuSans-32"/>
       <use xlink:href="#DejaVuSans-2e" x="63.623047"/>
       <use xlink:href="#DejaVuSans-35" x="95.410156"/>
      </g>
     </g>
    </g>
    <g id="ytick_10">
     <g id="line2d_31">
      <defs>
       <path id="m70dfbe387b" d="M 0 0 
L -2 0 
" style="stroke: #000000; stroke-width: 0.6"/>
      </defs>
      <g>
       <use xlink:href="#m70dfbe387b" x="43.339375" y="329.949749" style="stroke: #000000; stroke-width: 0.6"/>
      </g>
     </g>
    </g>
    <g id="ytick_11">
     <g id="line2d_32">
      <g>
       <use xlink:href="#m70dfbe387b" x="43.339375" y="322.724359" style="stroke: #000000; stroke-width: 0.6"/>
      </g>
     </g>
    </g>
    <g id="ytick_12">
     <g id="line2d_33">
      <g>
       <use xlink:href="#m70dfbe387b" x="43.339375" y="308.27358" style="stroke: #000000; stroke-width: 0.6"/>
      </g>
     </g>
    </g>
    <g id="ytick_13">
     <g id="line2d_34">
      <g>
       <use xlink:href="#m70dfbe387b" x="43.339375" y="301.04819" style="stroke: #000000; stroke-width: 0.6"/>
      </g>
     </g>
    </g>
    <g id="ytick_14">
     <g id="line2d_35">
      <g>
       <use xlink:href="#m70dfbe387b" x="43.339375" y="293.8228" style="stroke: #000000; stroke-width: 0.6"/>
      </g>
     </g>
    </g>
    <g id="ytick_15">
     <g id="line2d_36">
      <g>
       <use xlink:href="#m70dfbe387b" x="43.339375" y="286.59741" style="stroke: #000000; stroke-width: 0.6"/>
      </g>
     </g>
    </g>
    <g id="ytick_16">
     <g id="line2d_37">
      <g>
       <use xlink:href="#m70dfbe387b" x="43.339375" y="272.14663" style="stroke: #000000; stroke-width: 0.6"/>
      </g>
     </g>
    </g>
    <g id="ytick_17">
     <g id="line2d_38">
      <g>
       <use xlink:href="#m70dfbe387b" x="43.339375" y="264.92124" style="stroke: #000000; stroke-width: 0.6"/>
      </g>
     </g>
    </g>
    <g id="ytick_18">
     <g id="line2d_39">
      <g>
       <use xlink:href="#m70dfbe387b" x="43.339375" y="257.69585" style="stroke: #000000; stroke-width: 0.6"/>
      </g>
     </g>
    </g>
    <g id="ytick_19">
     <g id="line2d_40">
      <g>
       <use xlink:href="#m70dfbe387b" x="43.339375" y="250.47046" style="stroke: #000000; stroke-width: 0.6"/>
      </g>
     </g>
    </g>
    <g id="ytick_20">
     <g id="line2d_41">
      <g>
       <use xlink:href="#m70dfbe387b" x="43.339375" y="236.01968" style="stroke: #000000; stroke-width: 0.6"/>
      </g>
     </g>
    </g>
    <g id="ytick_21">
     <g id="line2d_42">
      <g>
       <use xlink:href="#m70dfbe387b" x="43.339375" y="228.79429" style="stroke: #000000; stroke-width: 0.6"/>
      </g>
     </g>
    </g>
    <g id="ytick_22">
     <g id="line2d_43">
      <g>
       <use xlink:href="#m70dfbe387b" x="43.339375" y="221.5689" style="stroke: #000000; stroke-width: 0.6"/>
      </g>
     </g>
    </g>
    <g id="ytick_23">
     <g id="line2d_44">
      <g>
       <use xlink:href="#m70dfbe387b" x="43.339375" y="214.34351" style="stroke: #000000; stroke-width: 0.6"/>
      </g>
     </g>
    </g>
    <g id="ytick_24">
     <g id="line2d_45">
      <g>
       <use xlink:href="#m70dfbe387b" x="43.339375" y="199.89273" style="stroke: #000000; stroke-width: 0.6"/>
      </g>
     </g>
    </g>
    <g id="ytick_25">
     <g id="line2d_46">
      <g>
       <use xlink:href="#m70dfbe387b" x="43.339375" y="192.66734" style="stroke: #000000; stroke-width: 0.6"/>
      </g>
     </g>
    </g>
    <g id="ytick_26">
     <g id="line2d_47">
      <g>
       <use xlink:href="#m70dfbe387b" x="43.339375" y="185.44195" style="stroke: #000000; stroke-width: 0.6"/>
      </g>
     </g>
    </g>
    <g id="ytick_27">
     <g id="line2d_48">
      <g>
       <use xlink:href="#m70dfbe387b" x="43.339375" y="178.21656" style="stroke: #000000; stroke-width: 0.6"/>
      </g>
     </g>
    </g>
    <g id="ytick_28">
     <g id="line2d_49">
      <g>
       <use xlink:href="#m70dfbe387b" x="43.339375" y="163.76578" style="stroke: #000000; stroke-width: 0.6"/>
      </g>
     </g>
    </g>
    <g id="ytick_29">
     <g id="line2d_50">
      <g>
       <use xlink:href="#m70dfbe387b" x="43.339375" y="156.540391" style="stroke: #000000; stroke-width: 0.6"/>
      </g>
     </g>
    </g>
    <g id="ytick_30">
     <g id="line2d_51">
      <g>
       <use xlink:href="#m70dfbe387b" x="43.339375" y="149.315001" style="stroke: #000000; stroke-width: 0.6"/>
      </g>
     </g>
    </g>
    <g id="ytick_31">
     <g id="line2d_52">
      <g>
       <use xlink:href="#m70dfbe387b" x="43.339375" y="142.089611" style="stroke: #000000; stroke-width: 0.6"/>
      </g>
     </g>
    </g>
    <g id="ytick_32">
     <g id="line2d_53">
      <g>
       <use xlink:href="#m70dfbe387b" x="43.339375" y="127.638831" style="stroke: #000000; stroke-width: 0.6"/>
      </g>
     </g>
    </g>
    <g id="ytick_33">
     <g id="line2d_54">
      <g>
       <use xlink:href="#m70dfbe387b" x="43.339375" y="120.413441" style="stroke: #000000; stroke-width: 0.6"/>
      </g>
     </g>
    </g>
    <g id="ytick_34">
     <g id="line2d_55">
      <g>
       <use xlink:href="#m70dfbe387b" x="43.339375" y="113.188051" style="stroke: #000000; stroke-width: 0.6"/>
      </g>
     </g>
    </g>
    <g id="ytick_35">
     <g id="line2d_56">
      <g>
       <use xlink:href="#m70dfbe387b" x="43.339375" y="105.962661" style="stroke: #000000; stroke-width: 0.6"/>
      </g>
     </g>
    </g>
    <g id="ytick_36">
     <g id="line2d_57">
      <g>
       <use xlink:href="#m70dfbe387b" x="43.339375" y="91.511881" style="stroke: #000000; stroke-width: 0.6"/>
      </g>
     </g>
    </g>
    <g id="ytick_37">
     <g id="line2d_58">
      <g>
       <use xlink:href="#m70dfbe387b" x="43.339375" y="84.286491" style="stroke: #000000; stroke-width: 0.6"/>
      </g>
     </g>
    </g>
    <g id="ytick_38">
     <g id="line2d_59">
      <g>
       <use xlink:href="#m70dfbe387b" x="43.339375" y="77.061101" style="stroke: #000000; stroke-width: 0.6"/>
      </g>
     </g>
    </g>
    <g id="ytick_39">
     <g id="line2d_60">
      <g>
       <use xlink:href="#m70dfbe387b" x="43.339375" y="69.835711" style="stroke: #000000; stroke-width: 0.6"/>
      </g>
     </g>
    </g>
    <g id="ytick_40">
     <g id="line2d_61">
      <g>
       <use xlink:href="#m70dfbe387b" x="43.339375" y="55.384931" style="stroke: #000000; stroke-width: 0.6"/>
      </g>
     </g>
    </g>
    <g id="ytick_41">
     <g id="line2d_62">
      <g>
       <use xlink:href="#m70dfbe387b" x="43.339375" y="48.159541" style="stroke: #000000; stroke-width: 0.6"/>
      </g>
     </g>
    </g>
    <g id="ytick_42">
     <g id="line2d_63">
      <g>
       <use xlink:href="#m70dfbe387b" x="43.339375" y="40.934151" style="stroke: #000000; stroke-width: 0.6"/>
      </g>
     </g>
    </g>
    <g id="ytick_43">
     <g id="line2d_64">
      <g>
       <use xlink:href="#m70dfbe387b" x="43.339375" y="33.708761" style="stroke: #000000; stroke-width: 0.6"/>
      </g>
     </g>
    </g>
    <g id="ytick_44">
     <g id="line2d_65">
      <g>
       <use xlink:href="#m70dfbe387b" x="43.339375" y="19.257981" style="stroke: #000000; stroke-width: 0.6"/>
      </g>
     </g>
    </g>
    <g id="ytick_45">
     <g id="line2d_66">
      <g>
       <use xlink:href="#m70dfbe387b" x="43.339375" y="12.032591" style="stroke: #000000; stroke-width: 0.6"/>
      </g>
     </g>
    </g>
   </g>
   <g id="line2d_67">
    <path d="M 43.339375 170.99117 
L 44.544803 169.973058 
L 45.752069 169.176581 
L 46.959335 168.577619 
L 48.206677 168.141786 
L 49.454018 167.869599 
L 51.842663 167.733818 
L 52.860257 167.806223 
L 54.594408 168.078091 
L 57.721305 168.948699 
L 58.740328 169.316267 
L 62.058473 170.722469 
L 67.889355 173.686031 
L 86.421619 183.723714 
L 90.657445 185.786829 
L 97.406169 188.796094 
L 103.520802 191.220778 
L 107.794034 192.749192 
L 113.681344 194.643156 
L 119.71609 196.348156 
L 125.803731 197.848337 
L 131.63401 199.099747 
L 139.449184 200.527669 
L 147.298544 201.714625 
L 156.814204 202.877882 
L 165.947474 203.762726 
L 176.476814 204.55949 
L 187.599347 205.198779 
L 202.320556 205.807902 
L 220.557993 206.302791 
L 241.02665 206.639905 
L 272.713969 206.909023 
L 319.495605 207.056549 
L 425.743406 207.114293 
L 425.743406 207.114293 
" clip-path="url(#pddc2ef2c8c)" style="fill: none; stroke: #0000ff; stroke-linecap: square"/>
   </g>
   <g id="line2d_68">
    <path d="M 43.339375 170.99117 
L 44.790883 179.918966 
L 46.332426 188.06288 
L 48.020276 195.617729 
L 49.615352 201.634458 
L 51.051917 206.249159 
L 52.611517 210.512732 
L 54.288067 214.347822 
L 56.082667 217.719402 
L 57.58763 220.046812 
L 59.092593 221.982126 
L 61.164808 224.099611 
L 61.954291 224.761068 
L 63.499424 225.853916 
L 66.022228 227.145219 
L 67.478176 227.657087 
L 69.471695 228.129512 
L 71.244986 228.362439 
L 73.474036 228.449919 
L 77.713996 228.13632 
L 81.434637 227.49813 
L 85.11874 226.652344 
L 90.668463 225.148986 
L 111.34702 219.255594 
L 117.461959 217.734277 
L 125.807947 215.896677 
L 133.915957 214.372298 
L 142.905166 212.958986 
L 152.142635 211.772806 
L 159.840636 210.960675 
L 171.521456 209.981016 
L 183.172755 209.246278 
L 197.371444 208.596516 
L 213.789889 208.085667 
L 235.198655 207.673255 
L 262.317149 207.392071 
L 304.293952 207.20969 
L 387.087964 207.128636 
L 425.743406 207.121947 
L 425.743406 207.121947 
" clip-path="url(#pddc2ef2c8c)" style="fill: none; stroke: #ff0000; stroke-linecap: square"/>
   </g>
   <g id="line2d_69">
    <path d="M 43.339375 134.864221 
L 44.340901 133.162947 
L 45.208235 131.977787 
L 46.075569 131.033983 
L 46.942903 130.308909 
L 47.810237 129.781874 
L 48.733988 129.417115 
L 50.20755 129.204891 
L 51.469409 129.335565 
L 52.731268 129.711196 
L 54.036489 130.31947 
L 55.34171 131.117007 
L 56.719262 132.130732 
L 60.005728 135.091304 
L 61.999953 137.153649 
L 67.374668 143.242922 
L 77.834091 155.41228 
L 81.469374 159.389905 
L 85.529332 163.587824 
L 89.610214 167.524367 
L 93.369464 170.892714 
L 98.856559 175.370934 
L 104.39843 179.389661 
L 110.196942 183.092644 
L 115.529277 186.085944 
L 119.515893 188.08969 
L 125.009854 190.554456 
L 131.388069 193.031115 
L 137.862568 195.176484 
L 142.490404 196.511127 
L 148.792745 198.096369 
L 155.76444 199.579525 
L 164.151383 201.048071 
L 172.163011 202.18538 
L 179.703122 203.061804 
L 189.368475 203.962723 
L 199.192616 204.674549 
L 210.417853 205.294176 
L 226.042768 205.904668 
L 242.37791 206.325941 
L 266.386054 206.695021 
L 297.997686 206.932934 
L 350.836686 207.071602 
L 425.743406 207.11156 
L 425.743406 207.11156 
" clip-path="url(#pddc2ef2c8c)" style="fill: none; stroke: #0000ff; stroke-linecap: square"/>
   </g>
   <g id="line2d_70">
    <path d="M 43.339375 134.864221 
L 44.724417 154.262799 
L 46.163621 171.460368 
L 47.602825 186.052827 
L 49.113767 198.962508 
L 50.642471 209.870798 
L 51.788999 216.822682 
L 53.150103 223.886329 
L 54.435385 229.517332 
L 55.720666 234.268165 
L 57.147085 238.644407 
L 58.605608 242.276708 
L 60.071518 245.191235 
L 61.453886 247.359498 
L 62.752713 248.954466 
L 64.045272 250.173236 
L 65.546042 251.190937 
L 66.403666 251.604993 
L 67.472635 251.971042 
L 69.480957 252.270143 
L 71.54056 252.143902 
L 73.777023 251.619994 
L 74.893235 251.238173 
L 76.95525 250.365964 
L 79.866243 248.85425 
L 83.335965 246.770396 
L 90.925134 241.759698 
L 99.488744 236.160672 
L 104.039738 233.392212 
L 108.479886 230.87294 
L 114.696937 227.66602 
L 120.278439 225.103916 
L 125.689316 222.892695 
L 131.446363 220.81323 
L 138.107956 218.725423 
L 143.04968 217.374506 
L 150.582708 215.599865 
L 157.95892 214.150941 
L 166.468322 212.776969 
L 173.384064 211.856836 
L 181.619668 210.951321 
L 191.906418 210.056675 
L 203.127292 209.315201 
L 216.044457 208.688871 
L 232.73241 208.135367 
L 252.453092 207.726367 
L 277.123717 207.437519 
L 315.901961 207.234061 
L 386.13596 207.136602 
L 425.743406 207.124681 
L 425.743406 207.124681 
" clip-path="url(#pddc2ef2c8c)" style="fill: none; stroke: #ff0000; stroke-linecap: square"/>
   </g>
   <g id="line2d_71">
    <path d="M 43.339375 98.737271 
L 44.476337 95.897346 
L 45.632516 93.728544 
L 46.409708 92.632495 
L 47.186899 91.798031 
L 47.96409 91.20215 
L 49.229824 90.688192 
L 50.274443 90.640067 
L 51.462108 90.942845 
L 52.79282 91.670985 
L 54.291355 92.904397 
L 55.988626 94.733049 
L 57.821428 97.113886 
L 59.654231 99.816421 
L 62.022927 103.650526 
L 67.922411 114.068128 
L 73.303122 123.766085 
L 79.40254 134.25752 
L 84.273732 142.007771 
L 87.884293 147.339146 
L 92.078594 153.078472 
L 95.857172 157.836741 
L 100.238932 162.884163 
L 104.961915 167.791426 
L 108.25161 170.904329 
L 112.495921 174.577582 
L 115.601488 177.037331 
L 120.377131 180.474707 
L 125.354865 183.652349 
L 129.62862 186.083923 
L 134.002954 188.317448 
L 139.110885 190.632434 
L 145.030978 192.966387 
L 149.907431 194.641643 
L 154.29187 195.979695 
L 160.623593 197.665081 
L 167.230366 199.154429 
L 173.927037 200.426224 
L 181.496585 201.622216 
L 190.057843 202.720406 
L 199.337563 203.665127 
L 209.782968 204.488586 
L 221.434108 205.178051 
L 236.870048 205.821676 
L 254.240317 206.294631 
L 275.861556 206.650126 
L 307.642946 206.914229 
L 355.699404 207.060087 
L 425.743406 207.108826 
L 425.743406 207.108826 
" clip-path="url(#pddc2ef2c8c)" style="fill: none; stroke: #0000ff; stroke-linecap: square"/>
   </g>
   <g id="line2d_72">
    <path d="M 43.339375 98.737271 
L 44.829649 131.094618 
L 46.279075 157.641982 
L 47.599503 178.187684 
L 48.91993 195.728709 
L 50.331127 211.595321 
L 51.511952 222.88035 
L 52.848383 233.748222 
L 54.296376 243.54067 
L 55.355601 249.565921 
L 56.58271 255.494969 
L 57.717254 260.089343 
L 58.759234 263.645117 
L 59.933981 266.979533 
L 61.478283 270.415276 
L 63.022584 272.931661 
L 64.416631 274.536142 
L 65.560653 275.448268 
L 66.704676 276.044079 
L 67.620086 276.319912 
L 68.535496 276.43707 
L 70.169862 276.302909 
L 71.433165 275.941369 
L 72.696469 275.391452 
L 74.215519 274.521152 
L 75.485626 273.647714 
L 77.351512 272.171583 
L 79.708671 270.058116 
L 83.938883 265.834393 
L 98.882165 250.342923 
L 103.38138 246.12632 
L 107.898031 242.209748 
L 113.690951 237.663396 
L 117.338023 235.070313 
L 121.485657 232.362254 
L 126.262183 229.542472 
L 131.545485 226.767176 
L 135.315713 224.988831 
L 140.174017 222.923018 
L 145.430035 220.947282 
L 150.629832 219.229184 
L 157.208586 217.351255 
L 161.917096 216.185363 
L 169.16451 214.641206 
L 177.000777 213.262565 
L 184.961108 212.118083 
L 192.384525 211.24227 
L 202.481164 210.290579 
L 214.119307 209.461556 
L 228.198238 208.741815 
L 242.992927 208.221878 
L 262.153469 207.787381 
L 288.424216 207.455011 
L 324.989725 207.247651 
L 392.294048 207.140409 
L 425.743406 207.127414 
L 425.743406 207.127414 
" clip-path="url(#pddc2ef2c8c)" style="fill: none; stroke: #ff0000; stroke-linecap: square"/>
   </g>
   <g id="line2d_73">
    <path d="M 43.339375 62.610321 
L 44.390454 59.08411 
L 45.529985 56.187185 
L 46.319157 54.683358 
L 47.108329 53.548657 
L 47.897501 52.749738 
L 48.735904 52.234598 
L 49.574308 52.03016 
L 50.635185 52.168979 
L 51.720261 52.715954 
L 52.262799 53.126127 
L 53.06545 53.883085 
L 54.670752 55.868204 
L 56.555543 58.856625 
L 58.060474 61.641605 
L 60.754622 67.268347 
L 63.916107 74.546323 
L 77.426619 106.933577 
L 82.522966 118.082757 
L 84.684364 122.527689 
L 88.805237 130.511381 
L 91.317934 135.062226 
L 96.085755 143.051078 
L 100.289061 149.421242 
L 102.235041 152.167863 
L 106.51883 157.788592 
L 110.2984 162.291448 
L 114.241199 166.568452 
L 117.49524 169.799406 
L 122.436572 174.233295 
L 127.030643 177.892178 
L 132.22051 181.54708 
L 135.378327 183.547043 
L 140.880873 186.670318 
L 144.832785 188.657724 
L 150.190354 191.050122 
L 154.754438 192.844043 
L 161.228841 195.053002 
L 167.191917 196.78555 
L 171.606691 197.906693 
L 177.601624 199.237752 
L 185.286268 200.667563 
L 194.081906 201.98945 
L 200.494681 202.779482 
L 211.16132 203.833763 
L 222.257082 204.659893 
L 232.738026 205.248633 
L 248.081696 205.866122 
L 266.264884 206.339718 
L 288.61404 206.684147 
L 320.006704 206.927138 
L 371.282199 207.068152 
L 425.743406 207.106092 
L 425.743406 207.106092 
" clip-path="url(#pddc2ef2c8c)" style="fill: none; stroke: #0000ff; stroke-linecap: square"/>
   </g>
   <g id="line2d_74">
    <path d="M 43.339375 62.610321 
L 44.783041 105.30963 
L 46.261265 142.156223 
L 47.557159 169.529323 
L 48.906144 193.797931 
L 50.311049 215.103953 
L 51.753132 233.347528 
L 52.944648 246.02354 
L 54.249712 257.747371 
L 55.660704 268.216272 
L 56.957289 276.089598 
L 58.287104 282.66598 
L 59.436453 287.286387 
L 60.715529 291.420327 
L 61.611489 293.757986 
L 62.720272 296.088921 
L 63.829056 297.867854 
L 64.683678 298.904565 
L 66.098581 300.059945 
L 67.219145 300.540964 
L 67.779426 300.654607 
L 68.573036 300.684805 
L 69.366646 300.574726 
L 70.953865 299.986113 
L 71.954243 299.396934 
L 73.246269 298.425971 
L 74.538294 297.254192 
L 77.511577 293.972489 
L 80.509215 290.098682 
L 83.805233 285.473396 
L 93.52315 271.429379 
L 98.742645 264.325966 
L 102.579237 259.450172 
L 107.431544 253.747549 
L 109.898516 251.05072 
L 113.558722 247.297516 
L 118.573523 242.619361 
L 121.267599 240.316765 
L 126.914615 235.934403 
L 129.240388 234.29319 
L 133.743306 231.365477 
L 137.676313 229.058264 
L 141.779404 226.877896 
L 144.750483 225.432004 
L 150.342176 222.98543 
L 155.708235 220.939924 
L 160.546659 219.319163 
L 166.033658 217.70697 
L 172.150522 216.156881 
L 179.075534 214.671704 
L 187.033787 213.261704 
L 195.249256 212.080156 
L 203.077783 211.165446 
L 212.73911 210.264804 
L 223.181702 209.514722 
L 237.083915 208.785511 
L 252.689679 208.227433 
L 269.620848 207.830884 
L 294.912378 207.486135 
L 329.549635 207.266916 
L 388.417087 207.150042 
L 425.743406 207.130148 
L 425.743406 207.130148 
" clip-path="url(#pddc2ef2c8c)" style="fill: none; stroke: #ff0000; stroke-linecap: square"/>
   </g>
   <g id="line2d_75">
    <path d="M 43.339375 26.483371 
L 44.233004 22.672004 
L 45.126633 19.625599 
L 46.12227 17.03915 
L 47.117907 15.21189 
L 47.860247 14.291979 
L 48.602586 13.713647 
L 49.234064 13.46806 
L 49.865542 13.430769 
L 50.49702 13.585756 
L 51.128498 13.918057 
L 51.875245 14.520757 
L 52.621993 15.330452 
L 54.011532 17.321428 
L 55.327456 19.702351 
L 56.643381 22.480208 
L 58.60703 27.210188 
L 61.014151 33.708218 
L 63.373816 40.56797 
L 70.397817 62.045844 
L 75.913847 78.568189 
L 80.382977 91.157017 
L 83.148072 98.500099 
L 86.78399 107.600132 
L 90.254378 115.688128 
L 93.890048 123.54339 
L 96.359264 128.528374 
L 99.242915 134.00531 
L 102.764295 140.212621 
L 106.49472 146.245198 
L 110.406414 152.012568 
L 114.037509 156.89321 
L 118.223567 162.001024 
L 122.000604 166.173003 
L 127.133089 171.242447 
L 131.773671 175.292007 
L 135.189244 177.981501 
L 139.169035 180.833235 
L 143.505135 183.626667 
L 147.491119 185.934163 
L 151.591336 188.073305 
L 155.79023 190.041723 
L 161.66047 192.459235 
L 168.091456 194.718455 
L 173.918007 196.46435 
L 178.006546 197.541046 
L 185.394148 199.218883 
L 190.768893 200.252186 
L 199.954841 201.715623 
L 209.031681 202.855471 
L 217.754753 203.723887 
L 228.384447 204.546876 
L 239.467365 205.193383 
L 253.857927 205.796739 
L 271.968357 206.295077 
L 294.099368 206.656658 
L 324.219295 206.908177 
L 371.632984 207.057356 
L 425.743406 207.103359 
L 425.743406 207.103359 
" clip-path="url(#pddc2ef2c8c)" style="fill: none; stroke: #0000ff; stroke-linecap: square"/>
   </g>
   <g id="line2d_76">
    <path d="M 43.339375 26.483371 
L 44.698652 77.545095 
L 46.03964 120.508015 
L 47.353195 156.403034 
L 48.737373 188.487474 
L 50.213543 217.111275 
L 51.663567 240.412359 
L 52.903037 257.074817 
L 54.160244 271.319534 
L 55.417451 283.230851 
L 56.430486 291.337247 
L 57.902804 301.050922 
L 59.280655 308.217661 
L 60.358058 312.703684 
L 61.55858 316.69603 
L 62.399967 318.932991 
L 63.509933 321.257679 
L 64.619899 322.949816 
L 65.489001 323.883979 
L 66.493373 324.584148 
L 67.497744 324.922286 
L 68.690872 324.911563 
L 69.883999 324.512397 
L 71.109532 323.756187 
L 72.335065 322.701392 
L 74.179584 320.651148 
L 76.604969 317.304668 
L 80.135259 311.554867 
L 84.356051 303.959195 
L 93.254571 287.610044 
L 96.326506 282.237808 
L 100.751425 274.913219 
L 104.041695 269.818425 
L 107.921489 264.211971 
L 112.72922 257.863593 
L 115.742528 254.212091 
L 119.845688 249.625383 
L 123.875818 245.52791 
L 125.378788 244.097406 
L 130.285128 239.772281 
L 134.711642 236.290222 
L 140.397451 232.341616 
L 144.632262 229.744043 
L 149.866187 226.893349 
L 154.976206 224.451662 
L 161.031424 221.940733 
L 165.638597 220.274253 
L 171.390126 218.451982 
L 177.60169 216.7643 
L 184.523132 215.176273 
L 190.443224 214.026105 
L 198.871294 212.664968 
L 207.914356 211.500352 
L 217.824933 210.502202 
L 227.309857 209.760182 
L 238.936032 209.068465 
L 252.82047 208.475194 
L 270.670162 207.969328 
L 291.69174 207.609482 
L 320.038093 207.3523 
L 366.123438 207.1883 
L 425.743406 207.132881 
L 425.743406 207.132881 
" clip-path="url(#pddc2ef2c8c)" style="fill: none; stroke: #ff0000; stroke-linecap: square"/>
   </g>
   <g id="patch_3">
    <path d="M 43.339375 331.2 
L 43.339375 7.2 
" style="fill: none; stroke: #000000; stroke-width: 0.8; stroke-linejoin: miter; stroke-linecap: square"/>
   </g>
   <g id="patch_4">
    <path d="M 35.691294 207.11812 
L 433.391487 207.11812 
" style="fill: none; stroke: #000000; stroke-width: 0.8; stroke-linejoin: miter; stroke-linecap: square"/>
   </g>
   <g id="legend_1">
    <g id="patch_5">
     <path d="M 388.091487 46.596875 
L 430.391487 46.596875 
L 430.391487 14.2 
L 388.091487 14.2 
z
" style="fill: #4c4c4c; opacity: 0.5; stroke: #4c4c4c; stroke-linejoin: miter"/>
    </g>
    <g id="patch_6">
     <path d="M 386.091487 44.596875 
L 428.391487 44.596875 
L 428.391487 12.2 
L 386.091487 12.2 
z
" style="fill: #ffffff; stroke: #cccccc; stroke-linejoin: miter"/>
    </g>
    <g id="line2d_77">
     <path d="M 395.091487 22.298438 
L 389.591487 22.298438 
" style="fill: none; stroke: #0000ff; stroke-linecap: square"/>
    </g>
    <g id="text_15">
     <!-- $x(t)$ -->
     <g transform="translate(397.591487 25.798438)scale(0.1 -0.1)">
      <defs>
       <path id="Cmmi10-78" d="M 500 184 
Q 613 97 819 97 
Q 1019 97 1172 289 
Q 1325 481 1381 709 
L 1672 1844 
Q 1741 2153 1741 2266 
Q 1741 2425 1652 2544 
Q 1563 2663 1403 2663 
Q 1200 2663 1022 2536 
Q 844 2409 722 2214 
Q 600 2019 550 1819 
Q 538 1778 500 1778 
L 422 1778 
Q 372 1778 372 1838 
L 372 1856 
Q 434 2094 584 2320 
Q 734 2547 951 2687 
Q 1169 2828 1416 2828 
Q 1650 2828 1839 2703 
Q 2028 2578 2106 2363 
Q 2216 2559 2386 2693 
Q 2556 2828 2759 2828 
Q 2897 2828 3040 2779 
Q 3184 2731 3275 2631 
Q 3366 2531 3366 2381 
Q 3366 2219 3261 2101 
Q 3156 1984 2994 1984 
Q 2891 1984 2822 2050 
Q 2753 2116 2753 2216 
Q 2753 2350 2845 2451 
Q 2938 2553 3066 2572 
Q 2950 2663 2747 2663 
Q 2541 2663 2389 2472 
Q 2238 2281 2175 2047 
L 1894 916 
Q 1825 659 1825 494 
Q 1825 331 1917 214 
Q 2009 97 2163 97 
Q 2463 97 2698 361 
Q 2934 625 3009 941 
Q 3022 978 3059 978 
L 3138 978 
Q 3163 978 3178 961 
Q 3194 944 3194 922 
Q 3194 916 3188 903 
Q 3097 522 2806 225 
Q 2516 -72 2150 -72 
Q 1916 -72 1727 54 
Q 1538 181 1459 397 
Q 1359 209 1182 68 
Q 1006 -72 806 -72 
Q 669 -72 523 -23 
Q 378 25 287 125 
Q 197 225 197 378 
Q 197 528 301 651 
Q 406 775 563 775 
Q 669 775 741 711 
Q 813 647 813 544 
Q 813 409 723 309 
Q 634 209 500 184 
z
" transform="scale(0.015625)"/>
       <path id="Cmr10-28" d="M 1984 -1588 
Q 1628 -1306 1370 -942 
Q 1113 -578 948 -165 
Q 784 247 703 697 
Q 622 1147 622 1600 
Q 622 2059 703 2509 
Q 784 2959 951 3375 
Q 1119 3791 1378 4153 
Q 1638 4516 1984 4788 
Q 1984 4800 2016 4800 
L 2075 4800 
Q 2094 4800 2109 4783 
Q 2125 4766 2125 4744 
Q 2125 4716 2113 4703 
Q 1800 4397 1592 4047 
Q 1384 3697 1257 3301 
Q 1131 2906 1075 2482 
Q 1019 2059 1019 1600 
Q 1019 -434 2106 -1491 
Q 2125 -1509 2125 -1544 
Q 2125 -1559 2108 -1579 
Q 2091 -1600 2075 -1600 
L 2016 -1600 
Q 1984 -1600 1984 -1588 
z
" transform="scale(0.015625)"/>
       <path id="Cmr10-29" d="M 416 -1600 
Q 359 -1600 359 -1544 
Q 359 -1516 372 -1503 
Q 1466 -434 1466 1600 
Q 1466 3634 384 4691 
Q 359 4706 359 4744 
Q 359 4766 376 4783 
Q 394 4800 416 4800 
L 475 4800 
Q 494 4800 506 4788 
Q 966 4425 1272 3906 
Q 1578 3388 1720 2800 
Q 1863 2213 1863 1600 
Q 1863 1147 1786 708 
Q 1709 269 1542 -157 
Q 1375 -584 1119 -945 
Q 863 -1306 506 -1588 
Q 494 -1600 475 -1600 
L 416 -1600 
z
" transform="scale(0.015625)"/>
      </defs>
      <use xlink:href="#Cmmi10-78"/>
      <use xlink:href="#Cmr10-28" transform="translate(57.080078 0)"/>
      <use xlink:href="#Cmmi10-74" transform="translate(95.898438 0)"/>
      <use xlink:href="#Cmr10-29" transform="translate(131.982422 0)"/>
     </g>
    </g>
    <g id="line2d_78">
     <path d="M 395.091487 32.596875 
L 389.591487 32.596875 
" style="fill: none; stroke: #ff0000; stroke-linecap: square"/>
    </g>
    <g id="text_16">
     <!-- $dx/dt$ -->
     <g transform="translate(397.591487 36.096875)scale(0.1 -0.1)">
      <defs>
       <path id="Cmmi10-64" d="M 1113 -72 
Q 709 -72 476 233 
Q 244 538 244 953 
Q 244 1363 456 1803 
Q 669 2244 1030 2536 
Q 1391 2828 1806 2828 
Q 1994 2828 2145 2723 
Q 2297 2619 2381 2444 
L 2741 3872 
Q 2766 3981 2772 4044 
Q 2772 4147 2356 4147 
Q 2291 4147 2291 4231 
Q 2294 4247 2305 4287 
Q 2316 4328 2333 4350 
Q 2350 4372 2381 4372 
L 3244 4441 
Q 3322 4441 3322 4359 
L 2400 678 
Q 2356 572 2356 372 
Q 2356 97 2541 97 
Q 2741 97 2845 351 
Q 2950 606 3022 941 
Q 3034 978 3072 978 
L 3150 978 
Q 3175 978 3190 956 
Q 3206 934 3206 916 
Q 3094 469 2961 198 
Q 2828 -72 2528 -72 
Q 2313 -72 2147 54 
Q 1981 181 1941 391 
Q 1528 -72 1113 -72 
z
M 1119 97 
Q 1350 97 1567 270 
Q 1784 444 1941 678 
Q 1947 684 1947 703 
L 2297 2113 
Q 2259 2338 2131 2500 
Q 2003 2663 1791 2663 
Q 1575 2663 1389 2486 
Q 1203 2309 1075 2069 
Q 950 1813 836 1366 
Q 722 919 722 672 
Q 722 450 817 273 
Q 913 97 1119 97 
z
" transform="scale(0.015625)"/>
       <path id="Cmmi10-3d" d="M 359 -1472 
Q 359 -1453 366 -1447 
L 2591 4722 
Q 2603 4759 2634 4779 
Q 2666 4800 2706 4800 
Q 2763 4800 2798 4765 
Q 2834 4731 2834 4672 
L 2834 4647 
L 609 -1522 
Q 572 -1600 488 -1600 
Q 434 -1600 396 -1562 
Q 359 -1525 359 -1472 
z
" transform="scale(0.015625)"/>
      </defs>
      <use xlink:href="#Cmmi10-64"/>
      <use xlink:href="#Cmmi10-78" transform="translate(52.001953 0)"/>
      <use xlink:href="#Cmmi10-3d" transform="translate(109.082031 0)"/>
      <use xlink:href="#Cmmi10-64" transform="translate(159.082031 0)"/>
      <use xlink:href="#Cmmi10-74" transform="translate(211.083984 0)"/>
     </g>
    </g>
   </g>
  </g>
 </g>
 <defs>
  <clipPath id="pddc2ef2c8c">
   <rect x="35.691294" y="7.2" width="397.700192" height="324"/>
  </clipPath>
 </defs>
</svg>
