<?xml version="1.0" encoding="utf-8" standalone="no"?>
<!DOCTYPE svg PUBLIC "-//W3C//DTD SVG 1.1//EN"
  "http://www.w3.org/Graphics/SVG/1.1/DTD/svg11.dtd">
<svg xmlns:xlink="http://www.w3.org/1999/xlink" width="455.621487pt" height="338.4pt" viewBox="0 0 455.621487 338.4" xmlns="http://www.w3.org/2000/svg" version="1.1">
 <metadata>
  <rdf:RDF xmlns:dc="http://purl.org/dc/elements/1.1/" xmlns:cc="http://creativecommons.org/ns#" xmlns:rdf="http://www.w3.org/1999/02/22-rdf-syntax-ns#">
   <cc:Work>
    <dc:type rdf:resource="http://purl.org/dc/dcmitype/StillImage"/>
    <dc:date>2024-01-20T22:24:17.022245</dc:date>
    <dc:format>image/svg+xml</dc:format>
    <dc:creator>
     <cc:Agent>
      <dc:title>Matplotlib v3.5.1, https://matplotlib.org/</dc:title>
     </cc:Agent>
    </dc:creator>
   </cc:Work>
  </rdf:RDF>
 </metadata>
 <defs>
  <style type="text/css">*{stroke-linejoin: round; stroke-linecap: butt}</style>
 </defs>
 <g id="figure_1">
  <g id="patch_1">
   <path d="M 0 338.4 
L 455.621487 338.4 
L 455.621487 0 
L 0 0 
z
" style="fill: #ffffff"/>
  </g>
  <g id="axes_1">
   <g id="patch_2">
    <path d="M 35.691294 331.2 
L 433.391487 331.2 
L 433.391487 7.2 
L 35.691294 7.2 
z
" style="fill: #ffffff"/>
   </g>
   <g id="matplotlib.axis_1">
    <g id="xtick_1">
     <g id="line2d_1">
      <defs>
       <path id="m1b4ea51471" d="M 0 0 
L 0 3.5 
" style="stroke: #000000; stroke-width: 0.8"/>
      </defs>
      <g>
       <use xlink:href="#m1b4ea51471" x="43.339375" y="211.704571" style="stroke: #000000; stroke-width: 0.8"/>
      </g>
     </g>
    </g>
    <g id="xtick_2">
     <g id="line2d_2">
      <g>
       <use xlink:href="#m1b4ea51471" x="119.820181" y="211.704571" style="stroke: #000000; stroke-width: 0.8"/>
      </g>
     </g>
     <g id="text_1">
      <!-- 2 -->
      <g transform="translate(116.002681 227.822696)scale(0.12 -0.12)">
       <defs>
        <path id="DejaVuSans-32" d="M 1228 531 
L 3431 531 
L 3431 0 
L 469 0 
L 469 531 
Q 828 903 1448 1529 
Q 2069 2156 2228 2338 
Q 2531 2678 2651 2914 
Q 2772 3150 2772 3378 
Q 2772 3750 2511 3984 
Q 2250 4219 1831 4219 
Q 1534 4219 1204 4116 
Q 875 4013 500 3803 
L 500 4441 
Q 881 4594 1212 4672 
Q 1544 4750 1819 4750 
Q 2544 4750 2975 4387 
Q 3406 4025 3406 3419 
Q 3406 3131 3298 2873 
Q 3191 2616 2906 2266 
Q 2828 2175 2409 1742 
Q 1991 1309 1228 531 
z
" transform="scale(0.015625)"/>
       </defs>
       <use xlink:href="#DejaVuSans-32"/>
      </g>
     </g>
    </g>
    <g id="xtick_3">
     <g id="line2d_3">
      <g>
       <use xlink:href="#m1b4ea51471" x="196.300987" y="211.704571" style="stroke: #000000; stroke-width: 0.8"/>
      </g>
     </g>
     <g id="text_2">
      <!-- 4 -->
      <g transform="translate(192.483487 227.822696)scale(0.12 -0.12)">
       <defs>
        <path id="DejaVuSans-34" d="M 2419 4116 
L 825 1625 
L 2419 1625 
L 2419 4116 
z
M 2253 4666 
L 3047 4666 
L 3047 1625 
L 3713 1625 
L 3713 1100 
L 3047 1100 
L 3047 0 
L 2419 0 
L 2419 1100 
L 313 1100 
L 313 1709 
L 2253 4666 
z
" transform="scale(0.015625)"/>
       </defs>
       <use xlink:href="#DejaVuSans-34"/>
      </g>
     </g>
    </g>
    <g id="xtick_4">
     <g id="line2d_4">
      <g>
       <use xlink:href="#m1b4ea51471" x="272.781794" y="211.704571" style="stroke: #000000; stroke-width: 0.8"/>
      </g>
     </g>
     <g id="text_3">
      <!-- 6 -->
      <g transform="translate(268.964294 227.822696)scale(0.12 -0.12)">
       <defs>
        <path id="DejaVuSans-36" d="M 2113 2584 
Q 1688 2584 1439 2293 
Q 1191 2003 1191 1497 
Q 1191 994 1439 701 
Q 1688 409 2113 409 
Q 2538 409 2786 701 
Q 3034 994 3034 1497 
Q 3034 2003 2786 2293 
Q 2538 2584 2113 2584 
z
M 3366 4563 
L 3366 3988 
Q 3128 4100 2886 4159 
Q 2644 4219 2406 4219 
Q 1781 4219 1451 3797 
Q 1122 3375 1075 2522 
Q 1259 2794 1537 2939 
Q 1816 3084 2150 3084 
Q 2853 3084 3261 2657 
Q 3669 2231 3669 1497 
Q 3669 778 3244 343 
Q 2819 -91 2113 -91 
Q 1303 -91 875 529 
Q 447 1150 447 2328 
Q 447 3434 972 4092 
Q 1497 4750 2381 4750 
Q 2619 4750 2861 4703 
Q 3103 4656 3366 4563 
z
" transform="scale(0.015625)"/>
       </defs>
       <use xlink:href="#DejaVuSans-36"/>
      </g>
     </g>
    </g>
    <g id="xtick_5">
     <g id="line2d_5">
      <g>
       <use xlink:href="#m1b4ea51471" x="349.2626" y="211.704571" style="stroke: #000000; stroke-width: 0.8"/>
      </g>
     </g>
     <g id="text_4">
      <!-- 8 -->
      <g transform="translate(345.4451 227.822696)scale(0.12 -0.12)">
       <defs>
        <path id="DejaVuSans-38" d="M 2034 2216 
Q 1584 2216 1326 1975 
Q 1069 1734 1069 1313 
Q 1069 891 1326 650 
Q 1584 409 2034 409 
Q 2484 409 2743 651 
Q 3003 894 3003 1313 
Q 3003 1734 2745 1975 
Q 2488 2216 2034 2216 
z
M 1403 2484 
Q 997 2584 770 2862 
Q 544 3141 544 3541 
Q 544 4100 942 4425 
Q 1341 4750 2034 4750 
Q 2731 4750 3128 4425 
Q 3525 4100 3525 3541 
Q 3525 3141 3298 2862 
Q 3072 2584 2669 2484 
Q 3125 2378 3379 2068 
Q 3634 1759 3634 1313 
Q 3634 634 3220 271 
Q 2806 -91 2034 -91 
Q 1263 -91 848 271 
Q 434 634 434 1313 
Q 434 1759 690 2068 
Q 947 2378 1403 2484 
z
M 1172 3481 
Q 1172 3119 1398 2916 
Q 1625 2713 2034 2713 
Q 2441 2713 2670 2916 
Q 2900 3119 2900 3481 
Q 2900 3844 2670 4047 
Q 2441 4250 2034 4250 
Q 1625 4250 1398 4047 
Q 1172 3844 1172 3481 
z
" transform="scale(0.015625)"/>
       </defs>
       <use xlink:href="#DejaVuSans-38"/>
      </g>
     </g>
    </g>
    <g id="xtick_6">
     <g id="line2d_6">
      <g>
       <use xlink:href="#m1b4ea51471" x="425.743406" y="211.704571" style="stroke: #000000; stroke-width: 0.8"/>
      </g>
     </g>
     <g id="text_5">
      <!-- 10 -->
      <g transform="translate(418.108406 227.822696)scale(0.12 -0.12)">
       <defs>
        <path id="DejaVuSans-31" d="M 794 531 
L 1825 531 
L 1825 4091 
L 703 3866 
L 703 4441 
L 1819 4666 
L 2450 4666 
L 2450 531 
L 3481 531 
L 3481 0 
L 794 0 
L 794 531 
z
" transform="scale(0.015625)"/>
        <path id="DejaVuSans-30" d="M 2034 4250 
Q 1547 4250 1301 3770 
Q 1056 3291 1056 2328 
Q 1056 1369 1301 889 
Q 1547 409 2034 409 
Q 2525 409 2770 889 
Q 3016 1369 3016 2328 
Q 3016 3291 2770 3770 
Q 2525 4250 2034 4250 
z
M 2034 4750 
Q 2819 4750 3233 4129 
Q 3647 3509 3647 2328 
Q 3647 1150 3233 529 
Q 2819 -91 2034 -91 
Q 1250 -91 836 529 
Q 422 1150 422 2328 
Q 422 3509 836 4129 
Q 1250 4750 2034 4750 
z
" transform="scale(0.015625)"/>
       </defs>
       <use xlink:href="#DejaVuSans-31"/>
       <use xlink:href="#DejaVuSans-30" x="63.623047"/>
      </g>
     </g>
    </g>
    <g id="xtick_7">
     <g id="line2d_7">
      <defs>
       <path id="m84283d6641" d="M 0 0 
L 0 2 
" style="stroke: #000000; stroke-width: 0.6"/>
      </defs>
      <g>
       <use xlink:href="#m84283d6641" x="62.459577" y="211.704571" style="stroke: #000000; stroke-width: 0.6"/>
      </g>
     </g>
    </g>
    <g id="xtick_8">
     <g id="line2d_8">
      <g>
       <use xlink:href="#m84283d6641" x="81.579778" y="211.704571" style="stroke: #000000; stroke-width: 0.6"/>
      </g>
     </g>
    </g>
    <g id="xtick_9">
     <g id="line2d_9">
      <g>
       <use xlink:href="#m84283d6641" x="100.69998" y="211.704571" style="stroke: #000000; stroke-width: 0.6"/>
      </g>
     </g>
    </g>
    <g id="xtick_10">
     <g id="line2d_10">
      <g>
       <use xlink:href="#m84283d6641" x="138.940383" y="211.704571" style="stroke: #000000; stroke-width: 0.6"/>
      </g>
     </g>
    </g>
    <g id="xtick_11">
     <g id="line2d_11">
      <g>
       <use xlink:href="#m84283d6641" x="158.060584" y="211.704571" style="stroke: #000000; stroke-width: 0.6"/>
      </g>
     </g>
    </g>
    <g id="xtick_12">
     <g id="line2d_12">
      <g>
       <use xlink:href="#m84283d6641" x="177.180786" y="211.704571" style="stroke: #000000; stroke-width: 0.6"/>
      </g>
     </g>
    </g>
    <g id="xtick_13">
     <g id="line2d_13">
      <g>
       <use xlink:href="#m84283d6641" x="215.421189" y="211.704571" style="stroke: #000000; stroke-width: 0.6"/>
      </g>
     </g>
    </g>
    <g id="xtick_14">
     <g id="line2d_14">
      <g>
       <use xlink:href="#m84283d6641" x="234.541391" y="211.704571" style="stroke: #000000; stroke-width: 0.6"/>
      </g>
     </g>
    </g>
    <g id="xtick_15">
     <g id="line2d_15">
      <g>
       <use xlink:href="#m84283d6641" x="253.661592" y="211.704571" style="stroke: #000000; stroke-width: 0.6"/>
      </g>
     </g>
    </g>
    <g id="xtick_16">
     <g id="line2d_16">
      <g>
       <use xlink:href="#m84283d6641" x="291.901995" y="211.704571" style="stroke: #000000; stroke-width: 0.6"/>
      </g>
     </g>
    </g>
    <g id="xtick_17">
     <g id="line2d_17">
      <g>
       <use xlink:href="#m84283d6641" x="311.022197" y="211.704571" style="stroke: #000000; stroke-width: 0.6"/>
      </g>
     </g>
    </g>
    <g id="xtick_18">
     <g id="line2d_18">
      <g>
       <use xlink:href="#m84283d6641" x="330.142398" y="211.704571" style="stroke: #000000; stroke-width: 0.6"/>
      </g>
     </g>
    </g>
    <g id="xtick_19">
     <g id="line2d_19">
      <g>
       <use xlink:href="#m84283d6641" x="368.382801" y="211.704571" style="stroke: #000000; stroke-width: 0.6"/>
      </g>
     </g>
    </g>
    <g id="xtick_20">
     <g id="line2d_20">
      <g>
       <use xlink:href="#m84283d6641" x="387.503003" y="211.704571" style="stroke: #000000; stroke-width: 0.6"/>
      </g>
     </g>
    </g>
    <g id="xtick_21">
     <g id="line2d_21">
      <g>
       <use xlink:href="#m84283d6641" x="406.623205" y="211.704571" style="stroke: #000000; stroke-width: 0.6"/>
      </g>
     </g>
    </g>
    <g id="text_6">
     <!-- $t$ -->
     <g transform="translate(441.391487 211.704571)scale(0.19 -0.19)">
      <defs>
       <path id="Cmmi10-74" d="M 397 519 
Q 397 613 416 697 
L 878 2534 
L 206 2534 
Q 141 2534 141 2619 
Q 166 2759 225 2759 
L 934 2759 
L 1191 3803 
Q 1216 3888 1291 3947 
Q 1366 4006 1459 4006 
Q 1541 4006 1595 3957 
Q 1650 3909 1650 3828 
Q 1650 3809 1648 3798 
Q 1647 3788 1644 3775 
L 1388 2759 
L 2047 2759 
Q 2113 2759 2113 2675 
Q 2109 2659 2100 2621 
Q 2091 2584 2075 2559 
Q 2059 2534 2028 2534 
L 1331 2534 
L 872 684 
Q 825 503 825 372 
Q 825 97 1013 97 
Q 1294 97 1511 361 
Q 1728 625 1844 941 
Q 1869 978 1894 978 
L 1972 978 
Q 1997 978 2012 961 
Q 2028 944 2028 922 
Q 2028 909 2022 903 
Q 1881 516 1612 222 
Q 1344 -72 997 -72 
Q 744 -72 570 93 
Q 397 259 397 519 
z
" transform="scale(0.015625)"/>
      </defs>
      <use xlink:href="#Cmmi10-74" transform="translate(0 0.40625)"/>
     </g>
    </g>
   </g>
   <g id="matplotlib.axis_2">
    <g id="ytick_1">
     <g id="line2d_22">
      <defs>
       <path id="m8e0b61b4e5" d="M 0 0 
L -3.5 0 
" style="stroke: #000000; stroke-width: 0.8"/>
      </defs>
      <g>
       <use xlink:href="#m8e0b61b4e5" x="43.339375" y="322.602886" style="stroke: #000000; stroke-width: 0.8"/>
      </g>
     </g>
     <g id="text_7">
      <!-- −1.5 -->
      <g transform="translate(7.2 327.161948)scale(0.12 -0.12)">
       <defs>
        <path id="DejaVuSans-2212" d="M 678 2272 
L 4684 2272 
L 4684 1741 
L 678 1741 
L 678 2272 
z
" transform="scale(0.015625)"/>
        <path id="DejaVuSans-2e" d="M 684 794 
L 1344 794 
L 1344 0 
L 684 0 
L 684 794 
z
" transform="scale(0.015625)"/>
        <path id="DejaVuSans-35" d="M 691 4666 
L 3169 4666 
L 3169 4134 
L 1269 4134 
L 1269 2991 
Q 1406 3038 1543 3061 
Q 1681 3084 1819 3084 
Q 2600 3084 3056 2656 
Q 3513 2228 3513 1497 
Q 3513 744 3044 326 
Q 2575 -91 1722 -91 
Q 1428 -91 1123 -41 
Q 819 9 494 109 
L 494 744 
Q 775 591 1075 516 
Q 1375 441 1709 441 
Q 2250 441 2565 725 
Q 2881 1009 2881 1497 
Q 2881 1984 2565 2268 
Q 2250 2553 1709 2553 
Q 1456 2553 1204 2497 
Q 953 2441 691 2322 
L 691 4666 
z
" transform="scale(0.015625)"/>
       </defs>
       <use xlink:href="#DejaVuSans-2212"/>
       <use xlink:href="#DejaVuSans-31" x="83.789062"/>
       <use xlink:href="#DejaVuSans-2e" x="147.412109"/>
       <use xlink:href="#DejaVuSans-35" x="179.199219"/>
      </g>
     </g>
    </g>
    <g id="ytick_2">
     <g id="line2d_23">
      <g>
       <use xlink:href="#m8e0b61b4e5" x="43.339375" y="285.636781" style="stroke: #000000; stroke-width: 0.8"/>
      </g>
     </g>
     <g id="text_8">
      <!-- −1.0 -->
      <g transform="translate(7.2 290.195843)scale(0.12 -0.12)">
       <use xlink:href="#DejaVuSans-2212"/>
       <use xlink:href="#DejaVuSans-31" x="83.789062"/>
       <use xlink:href="#DejaVuSans-2e" x="147.412109"/>
       <use xlink:href="#DejaVuSans-30" x="179.199219"/>
      </g>
     </g>
    </g>
    <g id="ytick_3">
     <g id="line2d_24">
      <g>
       <use xlink:href="#m8e0b61b4e5" x="43.339375" y="248.670676" style="stroke: #000000; stroke-width: 0.8"/>
      </g>
     </g>
     <g id="text_9">
      <!-- −0.5 -->
      <g transform="translate(7.2 253.229739)scale(0.12 -0.12)">
       <use xlink:href="#DejaVuSans-2212"/>
       <use xlink:href="#DejaVuSans-30" x="83.789062"/>
       <use xlink:href="#DejaVuSans-2e" x="147.412109"/>
       <use xlink:href="#DejaVuSans-35" x="179.199219"/>
      </g>
     </g>
    </g>
    <g id="ytick_4">
     <g id="line2d_25">
      <g>
       <use xlink:href="#m8e0b61b4e5" x="43.339375" y="211.704571" style="stroke: #000000; stroke-width: 0.8"/>
      </g>
     </g>
    </g>
    <g id="ytick_5">
     <g id="line2d_26">
      <g>
       <use xlink:href="#m8e0b61b4e5" x="43.339375" y="174.738466" style="stroke: #000000; stroke-width: 0.8"/>
      </g>
     </g>
     <g id="text_10">
      <!-- 0.5 -->
      <g transform="translate(17.255625 179.297529)scale(0.12 -0.12)">
       <use xlink:href="#DejaVuSans-30"/>
       <use xlink:href="#DejaVuSans-2e" x="63.623047"/>
       <use xlink:href="#DejaVuSans-35" x="95.410156"/>
      </g>
     </g>
    </g>
    <g id="ytick_6">
     <g id="line2d_27">
      <g>
       <use xlink:href="#m8e0b61b4e5" x="43.339375" y="137.772361" style="stroke: #000000; stroke-width: 0.8"/>
      </g>
     </g>
     <g id="text_11">
      <!-- 1.0 -->
      <g transform="translate(17.255625 142.331424)scale(0.12 -0.12)">
       <use xlink:href="#DejaVuSans-31"/>
       <use xlink:href="#DejaVuSans-2e" x="63.623047"/>
       <use xlink:href="#DejaVuSans-30" x="95.410156"/>
      </g>
     </g>
    </g>
    <g id="ytick_7">
     <g id="line2d_28">
      <g>
       <use xlink:href="#m8e0b61b4e5" x="43.339375" y="100.806256" style="stroke: #000000; stroke-width: 0.8"/>
      </g>
     </g>
     <g id="text_12">
      <!-- 1.5 -->
      <g transform="translate(17.255625 105.365319)scale(0.12 -0.12)">
       <use xlink:href="#DejaVuSans-31"/>
       <use xlink:href="#DejaVuSans-2e" x="63.623047"/>
       <use xlink:href="#DejaVuSans-35" x="95.410156"/>
      </g>
     </g>
    </g>
    <g id="ytick_8">
     <g id="line2d_29">
      <g>
       <use xlink:href="#m8e0b61b4e5" x="43.339375" y="63.840152" style="stroke: #000000; stroke-width: 0.8"/>
      </g>
     </g>
     <g id="text_13">
      <!-- 2.0 -->
      <g transform="translate(17.255625 68.399214)scale(0.12 -0.12)">
       <use xlink:href="#DejaVuSans-32"/>
       <use xlink:href="#DejaVuSans-2e" x="63.623047"/>
       <use xlink:href="#DejaVuSans-30" x="95.410156"/>
      </g>
     </g>
    </g>
    <g id="ytick_9">
     <g id="line2d_30">
      <g>
       <use xlink:href="#m8e0b61b4e5" x="43.339375" y="26.874047" style="stroke: #000000; stroke-width: 0.8"/>
      </g>
     </g>
     <g id="text_14">
      <!-- 2.5 -->
      <g transform="translate(17.255625 31.433109)scale(0.12 -0.12)">
       <use xlink:href="#DejaVuSans-32"/>
       <use xlink:href="#DejaVuSans-2e" x="63.623047"/>
       <use xlink:href="#DejaVuSans-35" x="95.410156"/>
      </g>
     </g>
    </g>
    <g id="ytick_10">
     <g id="line2d_31">
      <defs>
       <path id="mad49ae68da" d="M 0 0 
L -2 0 
" style="stroke: #000000; stroke-width: 0.6"/>
      </defs>
      <g>
       <use xlink:href="#mad49ae68da" x="43.339375" y="329.996107" style="stroke: #000000; stroke-width: 0.6"/>
      </g>
     </g>
    </g>
    <g id="ytick_11">
     <g id="line2d_32">
      <g>
       <use xlink:href="#mad49ae68da" x="43.339375" y="315.209665" style="stroke: #000000; stroke-width: 0.6"/>
      </g>
     </g>
    </g>
    <g id="ytick_12">
     <g id="line2d_33">
      <g>
       <use xlink:href="#mad49ae68da" x="43.339375" y="307.816444" style="stroke: #000000; stroke-width: 0.6"/>
      </g>
     </g>
    </g>
    <g id="ytick_13">
     <g id="line2d_34">
      <g>
       <use xlink:href="#mad49ae68da" x="43.339375" y="300.423223" style="stroke: #000000; stroke-width: 0.6"/>
      </g>
     </g>
    </g>
    <g id="ytick_14">
     <g id="line2d_35">
      <g>
       <use xlink:href="#mad49ae68da" x="43.339375" y="293.030002" style="stroke: #000000; stroke-width: 0.6"/>
      </g>
     </g>
    </g>
    <g id="ytick_15">
     <g id="line2d_36">
      <g>
       <use xlink:href="#mad49ae68da" x="43.339375" y="278.24356" style="stroke: #000000; stroke-width: 0.6"/>
      </g>
     </g>
    </g>
    <g id="ytick_16">
     <g id="line2d_37">
      <g>
       <use xlink:href="#mad49ae68da" x="43.339375" y="270.850339" style="stroke: #000000; stroke-width: 0.6"/>
      </g>
     </g>
    </g>
    <g id="ytick_17">
     <g id="line2d_38">
      <g>
       <use xlink:href="#mad49ae68da" x="43.339375" y="263.457118" style="stroke: #000000; stroke-width: 0.6"/>
      </g>
     </g>
    </g>
    <g id="ytick_18">
     <g id="line2d_39">
      <g>
       <use xlink:href="#mad49ae68da" x="43.339375" y="256.063897" style="stroke: #000000; stroke-width: 0.6"/>
      </g>
     </g>
    </g>
    <g id="ytick_19">
     <g id="line2d_40">
      <g>
       <use xlink:href="#mad49ae68da" x="43.339375" y="241.277455" style="stroke: #000000; stroke-width: 0.6"/>
      </g>
     </g>
    </g>
    <g id="ytick_20">
     <g id="line2d_41">
      <g>
       <use xlink:href="#mad49ae68da" x="43.339375" y="233.884234" style="stroke: #000000; stroke-width: 0.6"/>
      </g>
     </g>
    </g>
    <g id="ytick_21">
     <g id="line2d_42">
      <g>
       <use xlink:href="#mad49ae68da" x="43.339375" y="226.491013" style="stroke: #000000; stroke-width: 0.6"/>
      </g>
     </g>
    </g>
    <g id="ytick_22">
     <g id="line2d_43">
      <g>
       <use xlink:href="#mad49ae68da" x="43.339375" y="219.097792" style="stroke: #000000; stroke-width: 0.6"/>
      </g>
     </g>
    </g>
    <g id="ytick_23">
     <g id="line2d_44">
      <g>
       <use xlink:href="#mad49ae68da" x="43.339375" y="204.31135" style="stroke: #000000; stroke-width: 0.6"/>
      </g>
     </g>
    </g>
    <g id="ytick_24">
     <g id="line2d_45">
      <g>
       <use xlink:href="#mad49ae68da" x="43.339375" y="196.918129" style="stroke: #000000; stroke-width: 0.6"/>
      </g>
     </g>
    </g>
    <g id="ytick_25">
     <g id="line2d_46">
      <g>
       <use xlink:href="#mad49ae68da" x="43.339375" y="189.524908" style="stroke: #000000; stroke-width: 0.6"/>
      </g>
     </g>
    </g>
    <g id="ytick_26">
     <g id="line2d_47">
      <g>
       <use xlink:href="#mad49ae68da" x="43.339375" y="182.131687" style="stroke: #000000; stroke-width: 0.6"/>
      </g>
     </g>
    </g>
    <g id="ytick_27">
     <g id="line2d_48">
      <g>
       <use xlink:href="#mad49ae68da" x="43.339375" y="167.345245" style="stroke: #000000; stroke-width: 0.6"/>
      </g>
     </g>
    </g>
    <g id="ytick_28">
     <g id="line2d_49">
      <g>
       <use xlink:href="#mad49ae68da" x="43.339375" y="159.952024" style="stroke: #000000; stroke-width: 0.6"/>
      </g>
     </g>
    </g>
    <g id="ytick_29">
     <g id="line2d_50">
      <g>
       <use xlink:href="#mad49ae68da" x="43.339375" y="152.558803" style="stroke: #000000; stroke-width: 0.6"/>
      </g>
     </g>
    </g>
    <g id="ytick_30">
     <g id="line2d_51">
      <g>
       <use xlink:href="#mad49ae68da" x="43.339375" y="145.165582" style="stroke: #000000; stroke-width: 0.6"/>
      </g>
     </g>
    </g>
    <g id="ytick_31">
     <g id="line2d_52">
      <g>
       <use xlink:href="#mad49ae68da" x="43.339375" y="130.37914" style="stroke: #000000; stroke-width: 0.6"/>
      </g>
     </g>
    </g>
    <g id="ytick_32">
     <g id="line2d_53">
      <g>
       <use xlink:href="#mad49ae68da" x="43.339375" y="122.985919" style="stroke: #000000; stroke-width: 0.6"/>
      </g>
     </g>
    </g>
    <g id="ytick_33">
     <g id="line2d_54">
      <g>
       <use xlink:href="#mad49ae68da" x="43.339375" y="115.592698" style="stroke: #000000; stroke-width: 0.6"/>
      </g>
     </g>
    </g>
    <g id="ytick_34">
     <g id="line2d_55">
      <g>
       <use xlink:href="#mad49ae68da" x="43.339375" y="108.199477" style="stroke: #000000; stroke-width: 0.6"/>
      </g>
     </g>
    </g>
    <g id="ytick_35">
     <g id="line2d_56">
      <g>
       <use xlink:href="#mad49ae68da" x="43.339375" y="93.413035" style="stroke: #000000; stroke-width: 0.6"/>
      </g>
     </g>
    </g>
    <g id="ytick_36">
     <g id="line2d_57">
      <g>
       <use xlink:href="#mad49ae68da" x="43.339375" y="86.019814" style="stroke: #000000; stroke-width: 0.6"/>
      </g>
     </g>
    </g>
    <g id="ytick_37">
     <g id="line2d_58">
      <g>
       <use xlink:href="#mad49ae68da" x="43.339375" y="78.626594" style="stroke: #000000; stroke-width: 0.6"/>
      </g>
     </g>
    </g>
    <g id="ytick_38">
     <g id="line2d_59">
      <g>
       <use xlink:href="#mad49ae68da" x="43.339375" y="71.233373" style="stroke: #000000; stroke-width: 0.6"/>
      </g>
     </g>
    </g>
    <g id="ytick_39">
     <g id="line2d_60">
      <g>
       <use xlink:href="#mad49ae68da" x="43.339375" y="56.446931" style="stroke: #000000; stroke-width: 0.6"/>
      </g>
     </g>
    </g>
    <g id="ytick_40">
     <g id="line2d_61">
      <g>
       <use xlink:href="#mad49ae68da" x="43.339375" y="49.05371" style="stroke: #000000; stroke-width: 0.6"/>
      </g>
     </g>
    </g>
    <g id="ytick_41">
     <g id="line2d_62">
      <g>
       <use xlink:href="#mad49ae68da" x="43.339375" y="41.660489" style="stroke: #000000; stroke-width: 0.6"/>
      </g>
     </g>
    </g>
    <g id="ytick_42">
     <g id="line2d_63">
      <g>
       <use xlink:href="#mad49ae68da" x="43.339375" y="34.267268" style="stroke: #000000; stroke-width: 0.6"/>
      </g>
     </g>
    </g>
    <g id="ytick_43">
     <g id="line2d_64">
      <g>
       <use xlink:href="#mad49ae68da" x="43.339375" y="19.480826" style="stroke: #000000; stroke-width: 0.6"/>
      </g>
     </g>
    </g>
    <g id="ytick_44">
     <g id="line2d_65">
      <g>
       <use xlink:href="#mad49ae68da" x="43.339375" y="12.087605" style="stroke: #000000; stroke-width: 0.6"/>
      </g>
     </g>
    </g>
   </g>
   <g id="line2d_66">
    <path d="M 43.339375 174.738466 
L 44.639257 173.624151 
L 45.939139 172.767273 
L 47.490375 172.030967 
L 49.162732 171.528558 
L 51.014908 171.259108 
L 52.19773 171.216522 
L 55.17804 171.455179 
L 58.150778 172.052046 
L 62.086004 173.181426 
L 67.693645 175.115333 
L 77.542876 178.624726 
L 84.596905 180.901073 
L 88.802818 182.122124 
L 96.487893 184.083995 
L 102.045541 185.298249 
L 108.223957 186.467324 
L 116.025164 187.705966 
L 123.752387 188.711677 
L 133.561329 189.730325 
L 145.128466 190.640948 
L 156.059075 191.282331 
L 168.469928 191.819706 
L 185.020985 192.312173 
L 206.746036 192.706289 
L 235.841866 192.980771 
L 280.512206 193.14666 
L 373.078698 193.214866 
L 425.743406 193.21984 
L 425.743406 193.21984 
" clip-path="url(#pdba7d131ad)" style="fill: none; stroke: #0000ff; stroke-linecap: square"/>
   </g>
   <g id="line2d_67">
    <path d="M 43.339375 174.738466 
L 45.045197 185.207617 
L 46.516369 192.695107 
L 47.965062 198.886919 
L 49.603448 204.690655 
L 50.49492 207.385973 
L 52.300117 211.990703 
L 53.563725 214.625509 
L 54.827333 216.847301 
L 56.616809 219.390843 
L 57.87336 220.817122 
L 59.848673 222.562161 
L 60.979754 223.329577 
L 62.110836 223.953687 
L 63.451443 224.531992 
L 65.477705 225.127203 
L 67.761925 225.476622 
L 71.074238 225.539723 
L 74.262969 225.260243 
L 78.838238 224.510548 
L 83.106868 223.617071 
L 98.90379 220.128357 
L 108.114544 218.414654 
L 116.077546 217.185097 
L 125.379116 216.016662 
L 133.430096 215.203271 
L 145.012892 214.291615 
L 155.916125 213.650594 
L 170.470334 213.03485 
L 188.6692 212.531161 
L 209.818309 212.180025 
L 240.691076 211.916646 
L 286.88582 211.767937 
L 392.992992 211.708523 
L 425.743406 211.706249 
L 425.743406 211.706249 
" clip-path="url(#pdba7d131ad)" style="fill: none; stroke: #ff0000; stroke-linecap: square"/>
   </g>
   <g id="line2d_68">
    <path d="M 43.339375 137.772361 
L 44.513584 135.768583 
L 45.99368 133.927114 
L 47.473776 132.732536 
L 48.680629 132.162202 
L 49.887483 131.90009 
L 50.885733 131.88467 
L 52.029185 132.060674 
L 53.172638 132.415348 
L 54.295739 132.912474 
L 56.057159 133.937654 
L 57.96264 135.313003 
L 61.424376 138.295439 
L 64.754385 141.505485 
L 75.633388 152.327477 
L 80.528951 156.828669 
L 85.272618 160.832355 
L 89.535691 164.11264 
L 92.856174 166.461327 
L 96.35939 168.750653 
L 100.87302 171.430467 
L 106.548386 174.403474 
L 111.629548 176.728213 
L 117.306739 178.99317 
L 122.329036 180.738963 
L 126.941009 182.154183 
L 133.854603 183.98223 
L 139.020409 185.148742 
L 145.011221 186.318728 
L 153.163939 187.643686 
L 159.861903 188.539737 
L 169.723966 189.603931 
L 180.044037 190.459544 
L 191.988501 191.200504 
L 205.597056 191.805663 
L 221.153041 192.278868 
L 241.458903 192.667227 
L 267.667876 192.94221 
L 307.623647 193.123274 
L 385.188868 193.208595 
L 425.743406 193.217043 
L 425.743406 193.217043 
" clip-path="url(#pdba7d131ad)" style="fill: none; stroke: #0000ff; stroke-linecap: square"/>
   </g>
   <g id="line2d_69">
    <path d="M 43.339375 137.772361 
L 44.825136 158.846372 
L 46.184516 175.109052 
L 47.575194 189.18386 
L 48.986738 201.189848 
L 50.262785 210.338929 
L 51.538833 218.087674 
L 52.952685 225.259016 
L 54.101657 230.136576 
L 55.547168 235.230005 
L 57.060979 239.495142 
L 58.696779 243.070027 
L 59.58659 244.628317 
L 60.476402 245.948157 
L 61.366214 247.053037 
L 62.425595 248.117643 
L 63.484976 248.940181 
L 64.718664 249.631288 
L 66.490321 250.197859 
L 67.484924 250.329626 
L 68.479527 250.34734 
L 70.940985 249.986334 
L 73.399128 249.184262 
L 75.672348 248.165479 
L 77.322835 247.307058 
L 81.521087 244.845399 
L 95.615417 236.100002 
L 99.48231 233.925879 
L 105.492511 230.850039 
L 107.775506 229.780496 
L 112.096927 227.901375 
L 118.361562 225.496706 
L 123.418287 223.807683 
L 129.202706 222.121105 
L 135.773158 220.484015 
L 142.372885 219.096065 
L 150.373194 217.702797 
L 159.176949 216.470247 
L 167.43747 215.544748 
L 177.953573 214.621632 
L 188.553299 213.915507 
L 200.152759 213.337047 
L 217.124055 212.751958 
L 235.338658 212.355068 
L 260.541779 212.041094 
L 296.526555 211.835893 
L 360.620891 211.729142 
L 425.743406 211.709047 
L 425.743406 211.709047 
" clip-path="url(#pdba7d131ad)" style="fill: none; stroke: #ff0000; stroke-linecap: square"/>
   </g>
   <g id="line2d_70">
    <path d="M 43.339375 100.806256 
L 44.476691 97.898963 
L 45.614007 95.706688 
L 46.363389 94.608148 
L 47.112772 93.756418 
L 47.83844 93.1463 
L 48.564108 92.728917 
L 49.234513 92.499962 
L 49.904918 92.408763 
L 50.575323 92.443868 
L 51.872605 92.831494 
L 52.499482 93.153312 
L 53.753236 94.024225 
L 55.708146 95.887467 
L 57.733144 98.318568 
L 60.586246 102.34267 
L 63.983493 107.679609 
L 74.633533 125.121022 
L 77.965542 130.26247 
L 81.286774 135.118861 
L 84.972207 140.165318 
L 87.011255 142.798271 
L 92.316386 149.121578 
L 94.762544 151.788093 
L 98.360596 155.438815 
L 103.177215 159.850742 
L 105.866358 162.093848 
L 109.67361 165.020798 
L 114.540437 168.372518 
L 117.561514 170.252401 
L 122.880123 173.22627 
L 126.192994 174.882135 
L 130.777768 176.951083 
L 135.456356 178.822797 
L 141.740894 181.003446 
L 146.424416 182.411231 
L 153.349532 184.20139 
L 157.786039 185.18927 
L 164.342143 186.454629 
L 172.800767 187.797369 
L 180.334447 188.767263 
L 188.878861 189.659152 
L 199.531921 190.525311 
L 211.159102 191.232199 
L 225.601859 191.857943 
L 241.191893 192.314484 
L 262.194003 192.697793 
L 288.501167 192.958289 
L 332.299825 193.137782 
L 417.362089 193.212464 
L 425.743406 193.214246 
L 425.743406 193.214246 
" clip-path="url(#pdba7d131ad)" style="fill: none; stroke: #0000ff; stroke-linecap: square"/>
   </g>
   <g id="line2d_71">
    <path d="M 43.339375 100.806256 
L 44.840466 134.031385 
L 46.130086 158.161966 
L 47.431537 178.946519 
L 48.76848 197.060656 
L 50.224947 213.576115 
L 51.638147 226.84985 
L 52.917399 236.859726 
L 54.182638 245.140663 
L 55.128064 250.405534 
L 56.303698 255.982487 
L 57.479331 260.609693 
L 58.396499 263.637265 
L 59.746203 267.278927 
L 61.195352 270.254031 
L 62.644501 272.409364 
L 64.082521 273.866231 
L 64.854725 274.407018 
L 65.62693 274.798603 
L 66.399134 275.054707 
L 67.171338 275.187944 
L 68.285058 275.186929 
L 69.530036 274.950086 
L 70.767713 274.504634 
L 72.00539 273.882869 
L 73.439507 272.979569 
L 75.338941 271.542898 
L 77.129732 269.998146 
L 79.285188 267.966154 
L 86.139273 260.928546 
L 90.602351 256.31623 
L 96.940828 250.143439 
L 100.168995 247.236432 
L 105.065815 243.165071 
L 108.580068 240.496303 
L 112.797558 237.564083 
L 117.19784 234.802601 
L 122.076558 232.069474 
L 125.112528 230.529245 
L 130.368079 228.127391 
L 135.618485 226.029365 
L 141.343642 224.042979 
L 146.633034 222.451939 
L 152.256119 220.983981 
L 158.279627 219.632605 
L 165.843779 218.210356 
L 174.754245 216.858385 
L 181.688711 216.003741 
L 192.24958 214.966341 
L 202.372576 214.207741 
L 214.768795 213.514697 
L 229.671094 212.930499 
L 247.70408 212.469578 
L 270.218883 212.129157 
L 302.813982 211.885615 
L 355.626179 211.75007 
L 425.743406 211.711844 
L 425.743406 211.711844 
" clip-path="url(#pdba7d131ad)" style="fill: none; stroke: #ff0000; stroke-linecap: square"/>
   </g>
   <g id="line2d_72">
    <path d="M 43.339375 63.840152 
L 44.480609 59.962575 
L 45.621843 57.063395 
L 46.629973 55.215121 
L 47.638103 53.954469 
L 48.355909 53.376545 
L 49.073715 53.038501 
L 49.687383 52.923786 
L 50.301051 52.956779 
L 50.949722 53.1396 
L 51.598392 53.46212 
L 52.895734 54.480211 
L 54.119025 55.833966 
L 55.342315 57.507143 
L 56.53262 59.390843 
L 58.028435 62.049232 
L 60.1829 66.312773 
L 62.855906 72.081262 
L 67.791723 83.364263 
L 74.343147 98.236777 
L 78.972029 108.092239 
L 81.923169 113.989445 
L 86.302959 122.140298 
L 90.490854 129.254433 
L 94.260285 135.104399 
L 97.321025 139.486242 
L 100.92473 144.245764 
L 105.609965 149.832385 
L 107.762706 152.187359 
L 109.978011 154.48049 
L 112.515683 156.953275 
L 116.312827 160.366038 
L 121.041192 164.17519 
L 123.097756 165.692183 
L 128.75148 169.468928 
L 131.665458 171.209363 
L 135.284754 173.19515 
L 139.256075 175.169084 
L 144.298191 177.397943 
L 148.415285 179.012466 
L 153.467281 180.770485 
L 158.727148 182.370259 
L 165.725094 184.184737 
L 172.088374 185.569939 
L 180.106489 187.017213 
L 187.176793 188.064511 
L 195.718708 189.096853 
L 205.132129 189.996876 
L 216.431404 190.821821 
L 229.017686 191.494827 
L 242.416939 192.00522 
L 259.840642 192.450331 
L 282.694583 192.797281 
L 314.274321 193.035756 
L 365.447124 193.172789 
L 425.743406 193.211449 
L 425.743406 193.211449 
" clip-path="url(#pdba7d131ad)" style="fill: none; stroke: #0000ff; stroke-linecap: square"/>
   </g>
   <g id="line2d_73">
    <path d="M 43.339375 63.840152 
L 44.827083 108.649818 
L 46.297901 145.716985 
L 47.76872 176.654276 
L 49.183222 201.469564 
L 50.544874 221.440485 
L 51.690464 235.664957 
L 53.130026 250.651281 
L 54.302022 260.785102 
L 55.397237 268.795097 
L 56.492453 275.561919 
L 57.850221 282.441207 
L 59.162556 287.714036 
L 60.143993 290.889537 
L 61.129155 293.495688 
L 62.114318 295.583169 
L 63.017421 297.090313 
L 63.920523 298.249955 
L 65.097762 299.299393 
L 66.275 299.89144 
L 67.385344 300.087597 
L 68.495687 299.979894 
L 69.356268 299.713915 
L 70.957965 298.857389 
L 72.559661 297.611234 
L 74.512887 295.681572 
L 75.8656 294.140939 
L 79.516804 289.420488 
L 84.939544 281.671782 
L 92.384874 271.028198 
L 97.342402 264.433968 
L 100.703587 260.273468 
L 104.119574 256.319908 
L 108.817131 251.337176 
L 113.572088 246.810963 
L 117.493018 243.446737 
L 121.588166 240.262219 
L 125.633637 237.42062 
L 129.122686 235.192904 
L 135.062986 231.828425 
L 138.891808 229.91702 
L 144.70813 227.352613 
L 150.16464 225.274556 
L 156.680626 223.150316 
L 162.304395 221.585794 
L 167.398545 220.353808 
L 173.229729 219.130812 
L 181.381712 217.705247 
L 190.005541 216.493814 
L 199.23081 215.467271 
L 208.664638 214.64467 
L 220.248778 213.876284 
L 234.043446 213.218611 
L 250.343271 212.693173 
L 270.856956 212.282732 
L 297.389998 211.993449 
L 338.398861 211.803421 
L 415.657781 211.71768 
L 425.743406 211.714641 
L 425.743406 211.714641 
" clip-path="url(#pdba7d131ad)" style="fill: none; stroke: #ff0000; stroke-linecap: square"/>
   </g>
   <g id="line2d_74">
    <path d="M 43.339375 26.874047 
L 44.340094 22.560506 
L 45.340812 19.214105 
L 46.410727 16.581797 
L 47.480641 14.809152 
L 48.187917 14.056674 
L 48.764847 13.666692 
L 49.341776 13.462497 
L 49.918706 13.430769 
L 50.495635 13.559006 
L 51.236679 13.939645 
L 51.977723 14.541767 
L 52.718767 15.344058 
L 54.035829 17.203934 
L 55.187864 19.221366 
L 56.5207 21.931498 
L 58.179175 25.756953 
L 60.03724 30.496387 
L 63.410062 39.889436 
L 76.771767 78.538809 
L 80.363264 88.026889 
L 83.562325 95.971989 
L 87.614735 105.323618 
L 90.231577 110.939741 
L 94.444552 119.304634 
L 97.051684 124.079696 
L 100.147434 129.371983 
L 104.015276 135.441487 
L 106.776951 139.430001 
L 111.23941 145.314389 
L 115.350332 150.173484 
L 119.398163 154.481993 
L 123.965638 158.832464 
L 127.308616 161.705719 
L 132.348325 165.592 
L 134.629024 167.190042 
L 139.205033 170.123685 
L 143.213072 172.420799 
L 147.946829 174.84178 
L 152.004848 176.691782 
L 158.356526 179.220998 
L 161.795236 180.424876 
L 168.564082 182.500665 
L 174.816777 184.117742 
L 181.261332 185.529622 
L 187.598527 186.70428 
L 194.319179 187.754654 
L 202.044882 188.754698 
L 210.228106 189.615215 
L 221.469424 190.533728 
L 234.30249 191.299972 
L 246.153529 191.812037 
L 263.159506 192.318029 
L 282.929124 192.682752 
L 311.462605 192.966044 
L 354.326388 193.138238 
L 425.743406 193.208652 
L 425.743406 193.208652 
" clip-path="url(#pdba7d131ad)" style="fill: none; stroke: #0000ff; stroke-linecap: square"/>
   </g>
   <g id="line2d_75">
    <path d="M 43.339375 26.874047 
L 44.614631 76.05195 
L 45.894415 118.37102 
L 47.180991 154.731441 
L 48.602487 188.664093 
L 50.02519 216.979349 
L 51.447893 240.46163 
L 52.749834 258.315053 
L 53.963376 272.252411 
L 55.176918 283.919353 
L 56.190207 292.132525 
L 57.334657 299.936024 
L 58.479108 306.36148 
L 59.7922 312.255111 
L 60.918586 316.215097 
L 62.071108 319.357573 
L 63.268617 321.773997 
L 63.889864 322.725433 
L 64.549182 323.531175 
L 65.208499 324.142979 
L 65.867816 324.576169 
L 67.015551 324.946031 
L 67.503969 324.969231 
L 68.405639 324.823582 
L 69.307309 324.456876 
L 70.208979 323.894465 
L 71.827519 322.465387 
L 73.015543 321.129185 
L 74.203567 319.594073 
L 75.904514 317.116892 
L 78.786015 312.379335 
L 82.272087 306.116593 
L 93.071998 286.323714 
L 96.218498 280.949001 
L 100.676122 273.817097 
L 104.946307 267.550643 
L 108.27398 263.053152 
L 112.330831 258.013526 
L 115.981389 253.874999 
L 121.314832 248.454961 
L 125.245697 244.897103 
L 130.578421 240.603054 
L 135.407855 237.188649 
L 139.878322 234.385095 
L 144.469582 231.824292 
L 149.170665 229.500118 
L 154.636013 227.132359 
L 159.081653 225.44021 
L 164.452031 223.641314 
L 170.243118 221.96431 
L 176.821387 220.343123 
L 182.828709 219.087415 
L 190.22317 217.789433 
L 196.324399 216.892118 
L 204.435411 215.90069 
L 213.915701 214.979348 
L 225.166902 214.144645 
L 237.661926 213.464511 
L 252.222309 212.907213 
L 271.219973 212.436352 
L 293.146439 212.117013 
L 326.897055 211.875203 
L 382.062808 211.744893 
L 425.743406 211.717438 
L 425.743406 211.717438 
" clip-path="url(#pdba7d131ad)" style="fill: none; stroke: #ff0000; stroke-linecap: square"/>
   </g>
   <g id="patch_3">
    <path d="M 43.339375 331.2 
L 43.339375 7.2 
" style="fill: none; stroke: #000000; stroke-width: 0.8; stroke-linejoin: miter; stroke-linecap: square"/>
   </g>
   <g id="patch_4">
    <path d="M 35.691294 211.704571 
L 433.391487 211.704571 
" style="fill: none; stroke: #000000; stroke-width: 0.8; stroke-linejoin: miter; stroke-linecap: square"/>
   </g>
   <g id="legend_1">
    <g id="patch_5">
     <path d="M 388.091487 46.596875 
L 430.391487 46.596875 
L 430.391487 14.2 
L 388.091487 14.2 
z
" style="fill: #4c4c4c; opacity: 0.5; stroke: #4c4c4c; stroke-linejoin: miter"/>
    </g>
    <g id="patch_6">
     <path d="M 386.091487 44.596875 
L 428.391487 44.596875 
L 428.391487 12.2 
L 386.091487 12.2 
z
" style="fill: #ffffff; stroke: #cccccc; stroke-linejoin: miter"/>
    </g>
    <g id="line2d_76">
     <path d="M 395.091487 22.298438 
L 389.591487 22.298438 
" style="fill: none; stroke: #0000ff; stroke-linecap: square"/>
    </g>
    <g id="text_15">
     <!-- $x(t)$ -->
     <g transform="translate(397.591487 25.798438)scale(0.1 -0.1)">
      <defs>
       <path id="Cmmi10-78" d="M 500 184 
Q 613 97 819 97 
Q 1019 97 1172 289 
Q 1325 481 1381 709 
L 1672 1844 
Q 1741 2153 1741 2266 
Q 1741 2425 1652 2544 
Q 1563 2663 1403 2663 
Q 1200 2663 1022 2536 
Q 844 2409 722 2214 
Q 600 2019 550 1819 
Q 538 1778 500 1778 
L 422 1778 
Q 372 1778 372 1838 
L 372 1856 
Q 434 2094 584 2320 
Q 734 2547 951 2687 
Q 1169 2828 1416 2828 
Q 1650 2828 1839 2703 
Q 2028 2578 2106 2363 
Q 2216 2559 2386 2693 
Q 2556 2828 2759 2828 
Q 2897 2828 3040 2779 
Q 3184 2731 3275 2631 
Q 3366 2531 3366 2381 
Q 3366 2219 3261 2101 
Q 3156 1984 2994 1984 
Q 2891 1984 2822 2050 
Q 2753 2116 2753 2216 
Q 2753 2350 2845 2451 
Q 2938 2553 3066 2572 
Q 2950 2663 2747 2663 
Q 2541 2663 2389 2472 
Q 2238 2281 2175 2047 
L 1894 916 
Q 1825 659 1825 494 
Q 1825 331 1917 214 
Q 2009 97 2163 97 
Q 2463 97 2698 361 
Q 2934 625 3009 941 
Q 3022 978 3059 978 
L 3138 978 
Q 3163 978 3178 961 
Q 3194 944 3194 922 
Q 3194 916 3188 903 
Q 3097 522 2806 225 
Q 2516 -72 2150 -72 
Q 1916 -72 1727 54 
Q 1538 181 1459 397 
Q 1359 209 1182 68 
Q 1006 -72 806 -72 
Q 669 -72 523 -23 
Q 378 25 287 125 
Q 197 225 197 378 
Q 197 528 301 651 
Q 406 775 563 775 
Q 669 775 741 711 
Q 813 647 813 544 
Q 813 409 723 309 
Q 634 209 500 184 
z
" transform="scale(0.015625)"/>
       <path id="Cmr10-28" d="M 1984 -1588 
Q 1628 -1306 1370 -942 
Q 1113 -578 948 -165 
Q 784 247 703 697 
Q 622 1147 622 1600 
Q 622 2059 703 2509 
Q 784 2959 951 3375 
Q 1119 3791 1378 4153 
Q 1638 4516 1984 4788 
Q 1984 4800 2016 4800 
L 2075 4800 
Q 2094 4800 2109 4783 
Q 2125 4766 2125 4744 
Q 2125 4716 2113 4703 
Q 1800 4397 1592 4047 
Q 1384 3697 1257 3301 
Q 1131 2906 1075 2482 
Q 1019 2059 1019 1600 
Q 1019 -434 2106 -1491 
Q 2125 -1509 2125 -1544 
Q 2125 -1559 2108 -1579 
Q 2091 -1600 2075 -1600 
L 2016 -1600 
Q 1984 -1600 1984 -1588 
z
" transform="scale(0.015625)"/>
       <path id="Cmr10-29" d="M 416 -1600 
Q 359 -1600 359 -1544 
Q 359 -1516 372 -1503 
Q 1466 -434 1466 1600 
Q 1466 3634 384 4691 
Q 359 4706 359 4744 
Q 359 4766 376 4783 
Q 394 4800 416 4800 
L 475 4800 
Q 494 4800 506 4788 
Q 966 4425 1272 3906 
Q 1578 3388 1720 2800 
Q 1863 2213 1863 1600 
Q 1863 1147 1786 708 
Q 1709 269 1542 -157 
Q 1375 -584 1119 -945 
Q 863 -1306 506 -1588 
Q 494 -1600 475 -1600 
L 416 -1600 
z
" transform="scale(0.015625)"/>
      </defs>
      <use xlink:href="#Cmmi10-78"/>
      <use xlink:href="#Cmr10-28" transform="translate(57.080078 0)"/>
      <use xlink:href="#Cmmi10-74" transform="translate(95.898438 0)"/>
      <use xlink:href="#Cmr10-29" transform="translate(131.982422 0)"/>
     </g>
    </g>
    <g id="line2d_77">
     <path d="M 395.091487 32.596875 
L 389.591487 32.596875 
" style="fill: none; stroke: #ff0000; stroke-linecap: square"/>
    </g>
    <g id="text_16">
     <!-- $dx/dt$ -->
     <g transform="translate(397.591487 36.096875)scale(0.1 -0.1)">
      <defs>
       <path id="Cmmi10-64" d="M 1113 -72 
Q 709 -72 476 233 
Q 244 538 244 953 
Q 244 1363 456 1803 
Q 669 2244 1030 2536 
Q 1391 2828 1806 2828 
Q 1994 2828 2145 2723 
Q 2297 2619 2381 2444 
L 2741 3872 
Q 2766 3981 2772 4044 
Q 2772 4147 2356 4147 
Q 2291 4147 2291 4231 
Q 2294 4247 2305 4287 
Q 2316 4328 2333 4350 
Q 2350 4372 2381 4372 
L 3244 4441 
Q 3322 4441 3322 4359 
L 2400 678 
Q 2356 572 2356 372 
Q 2356 97 2541 97 
Q 2741 97 2845 351 
Q 2950 606 3022 941 
Q 3034 978 3072 978 
L 3150 978 
Q 3175 978 3190 956 
Q 3206 934 3206 916 
Q 3094 469 2961 198 
Q 2828 -72 2528 -72 
Q 2313 -72 2147 54 
Q 1981 181 1941 391 
Q 1528 -72 1113 -72 
z
M 1119 97 
Q 1350 97 1567 270 
Q 1784 444 1941 678 
Q 1947 684 1947 703 
L 2297 2113 
Q 2259 2338 2131 2500 
Q 2003 2663 1791 2663 
Q 1575 2663 1389 2486 
Q 1203 2309 1075 2069 
Q 950 1813 836 1366 
Q 722 919 722 672 
Q 722 450 817 273 
Q 913 97 1119 97 
z
" transform="scale(0.015625)"/>
       <path id="Cmmi10-3d" d="M 359 -1472 
Q 359 -1453 366 -1447 
L 2591 4722 
Q 2603 4759 2634 4779 
Q 2666 4800 2706 4800 
Q 2763 4800 2798 4765 
Q 2834 4731 2834 4672 
L 2834 4647 
L 609 -1522 
Q 572 -1600 488 -1600 
Q 434 -1600 396 -1562 
Q 359 -1525 359 -1472 
z
" transform="scale(0.015625)"/>
      </defs>
      <use xlink:href="#Cmmi10-64"/>
      <use xlink:href="#Cmmi10-78" transform="translate(52.001953 0)"/>
      <use xlink:href="#Cmmi10-3d" transform="translate(109.082031 0)"/>
      <use xlink:href="#Cmmi10-64" transform="translate(159.082031 0)"/>
      <use xlink:href="#Cmmi10-74" transform="translate(211.083984 0)"/>
     </g>
    </g>
   </g>
  </g>
 </g>
 <defs>
  <clipPath id="pdba7d131ad">
   <rect x="35.691294" y="7.2" width="397.700192" height="324"/>
  </clipPath>
 </defs>
</svg>
