<?xml version="1.0" encoding="utf-8" standalone="no"?>
<!DOCTYPE svg PUBLIC "-//W3C//DTD SVG 1.1//EN"
  "http://www.w3.org/Graphics/SVG/1.1/DTD/svg11.dtd">
<svg xmlns:xlink="http://www.w3.org/1999/xlink" width="455.621487pt" height="338.4pt" viewBox="0 0 455.621487 338.4" xmlns="http://www.w3.org/2000/svg" version="1.1">
 <metadata>
  <rdf:RDF xmlns:dc="http://purl.org/dc/elements/1.1/" xmlns:cc="http://creativecommons.org/ns#" xmlns:rdf="http://www.w3.org/1999/02/22-rdf-syntax-ns#">
   <cc:Work>
    <dc:type rdf:resource="http://purl.org/dc/dcmitype/StillImage"/>
    <dc:date>2024-01-20T22:26:53.288041</dc:date>
    <dc:format>image/svg+xml</dc:format>
    <dc:creator>
     <cc:Agent>
      <dc:title>Matplotlib v3.5.1, https://matplotlib.org/</dc:title>
     </cc:Agent>
    </dc:creator>
   </cc:Work>
  </rdf:RDF>
 </metadata>
 <defs>
  <style type="text/css">*{stroke-linejoin: round; stroke-linecap: butt}</style>
 </defs>
 <g id="figure_1">
  <g id="patch_1">
   <path d="M 0 338.4 
L 455.621487 338.4 
L 455.621487 0 
L 0 0 
z
" style="fill: #ffffff"/>
  </g>
  <g id="axes_1">
   <g id="patch_2">
    <path d="M 35.691294 331.2 
L 433.391487 331.2 
L 433.391487 7.2 
L 35.691294 7.2 
z
" style="fill: #ffffff"/>
   </g>
   <g id="matplotlib.axis_1">
    <g id="xtick_1">
     <g id="line2d_1">
      <defs>
       <path id="m396385b9f5" d="M 0 0 
L 0 3.5 
" style="stroke: #000000; stroke-width: 0.8"/>
      </defs>
      <g>
       <use xlink:href="#m396385b9f5" x="43.339375" y="208.805236" style="stroke: #000000; stroke-width: 0.8"/>
      </g>
     </g>
    </g>
    <g id="xtick_2">
     <g id="line2d_2">
      <g>
       <use xlink:href="#m396385b9f5" x="119.820181" y="208.805236" style="stroke: #000000; stroke-width: 0.8"/>
      </g>
     </g>
     <g id="text_1">
      <!-- 2 -->
      <g transform="translate(116.002681 224.923361)scale(0.12 -0.12)">
       <defs>
        <path id="DejaVuSans-32" d="M 1228 531 
L 3431 531 
L 3431 0 
L 469 0 
L 469 531 
Q 828 903 1448 1529 
Q 2069 2156 2228 2338 
Q 2531 2678 2651 2914 
Q 2772 3150 2772 3378 
Q 2772 3750 2511 3984 
Q 2250 4219 1831 4219 
Q 1534 4219 1204 4116 
Q 875 4013 500 3803 
L 500 4441 
Q 881 4594 1212 4672 
Q 1544 4750 1819 4750 
Q 2544 4750 2975 4387 
Q 3406 4025 3406 3419 
Q 3406 3131 3298 2873 
Q 3191 2616 2906 2266 
Q 2828 2175 2409 1742 
Q 1991 1309 1228 531 
z
" transform="scale(0.015625)"/>
       </defs>
       <use xlink:href="#DejaVuSans-32"/>
      </g>
     </g>
    </g>
    <g id="xtick_3">
     <g id="line2d_3">
      <g>
       <use xlink:href="#m396385b9f5" x="196.300987" y="208.805236" style="stroke: #000000; stroke-width: 0.8"/>
      </g>
     </g>
     <g id="text_2">
      <!-- 4 -->
      <g transform="translate(192.483487 224.923361)scale(0.12 -0.12)">
       <defs>
        <path id="DejaVuSans-34" d="M 2419 4116 
L 825 1625 
L 2419 1625 
L 2419 4116 
z
M 2253 4666 
L 3047 4666 
L 3047 1625 
L 3713 1625 
L 3713 1100 
L 3047 1100 
L 3047 0 
L 2419 0 
L 2419 1100 
L 313 1100 
L 313 1709 
L 2253 4666 
z
" transform="scale(0.015625)"/>
       </defs>
       <use xlink:href="#DejaVuSans-34"/>
      </g>
     </g>
    </g>
    <g id="xtick_4">
     <g id="line2d_4">
      <g>
       <use xlink:href="#m396385b9f5" x="272.781794" y="208.805236" style="stroke: #000000; stroke-width: 0.8"/>
      </g>
     </g>
     <g id="text_3">
      <!-- 6 -->
      <g transform="translate(268.964294 224.923361)scale(0.12 -0.12)">
       <defs>
        <path id="DejaVuSans-36" d="M 2113 2584 
Q 1688 2584 1439 2293 
Q 1191 2003 1191 1497 
Q 1191 994 1439 701 
Q 1688 409 2113 409 
Q 2538 409 2786 701 
Q 3034 994 3034 1497 
Q 3034 2003 2786 2293 
Q 2538 2584 2113 2584 
z
M 3366 4563 
L 3366 3988 
Q 3128 4100 2886 4159 
Q 2644 4219 2406 4219 
Q 1781 4219 1451 3797 
Q 1122 3375 1075 2522 
Q 1259 2794 1537 2939 
Q 1816 3084 2150 3084 
Q 2853 3084 3261 2657 
Q 3669 2231 3669 1497 
Q 3669 778 3244 343 
Q 2819 -91 2113 -91 
Q 1303 -91 875 529 
Q 447 1150 447 2328 
Q 447 3434 972 4092 
Q 1497 4750 2381 4750 
Q 2619 4750 2861 4703 
Q 3103 4656 3366 4563 
z
" transform="scale(0.015625)"/>
       </defs>
       <use xlink:href="#DejaVuSans-36"/>
      </g>
     </g>
    </g>
    <g id="xtick_5">
     <g id="line2d_5">
      <g>
       <use xlink:href="#m396385b9f5" x="349.2626" y="208.805236" style="stroke: #000000; stroke-width: 0.8"/>
      </g>
     </g>
     <g id="text_4">
      <!-- 8 -->
      <g transform="translate(345.4451 224.923361)scale(0.12 -0.12)">
       <defs>
        <path id="DejaVuSans-38" d="M 2034 2216 
Q 1584 2216 1326 1975 
Q 1069 1734 1069 1313 
Q 1069 891 1326 650 
Q 1584 409 2034 409 
Q 2484 409 2743 651 
Q 3003 894 3003 1313 
Q 3003 1734 2745 1975 
Q 2488 2216 2034 2216 
z
M 1403 2484 
Q 997 2584 770 2862 
Q 544 3141 544 3541 
Q 544 4100 942 4425 
Q 1341 4750 2034 4750 
Q 2731 4750 3128 4425 
Q 3525 4100 3525 3541 
Q 3525 3141 3298 2862 
Q 3072 2584 2669 2484 
Q 3125 2378 3379 2068 
Q 3634 1759 3634 1313 
Q 3634 634 3220 271 
Q 2806 -91 2034 -91 
Q 1263 -91 848 271 
Q 434 634 434 1313 
Q 434 1759 690 2068 
Q 947 2378 1403 2484 
z
M 1172 3481 
Q 1172 3119 1398 2916 
Q 1625 2713 2034 2713 
Q 2441 2713 2670 2916 
Q 2900 3119 2900 3481 
Q 2900 3844 2670 4047 
Q 2441 4250 2034 4250 
Q 1625 4250 1398 4047 
Q 1172 3844 1172 3481 
z
" transform="scale(0.015625)"/>
       </defs>
       <use xlink:href="#DejaVuSans-38"/>
      </g>
     </g>
    </g>
    <g id="xtick_6">
     <g id="line2d_6">
      <g>
       <use xlink:href="#m396385b9f5" x="425.743406" y="208.805236" style="stroke: #000000; stroke-width: 0.8"/>
      </g>
     </g>
     <g id="text_5">
      <!-- 10 -->
      <g transform="translate(418.108406 224.923361)scale(0.12 -0.12)">
       <defs>
        <path id="DejaVuSans-31" d="M 794 531 
L 1825 531 
L 1825 4091 
L 703 3866 
L 703 4441 
L 1819 4666 
L 2450 4666 
L 2450 531 
L 3481 531 
L 3481 0 
L 794 0 
L 794 531 
z
" transform="scale(0.015625)"/>
        <path id="DejaVuSans-30" d="M 2034 4250 
Q 1547 4250 1301 3770 
Q 1056 3291 1056 2328 
Q 1056 1369 1301 889 
Q 1547 409 2034 409 
Q 2525 409 2770 889 
Q 3016 1369 3016 2328 
Q 3016 3291 2770 3770 
Q 2525 4250 2034 4250 
z
M 2034 4750 
Q 2819 4750 3233 4129 
Q 3647 3509 3647 2328 
Q 3647 1150 3233 529 
Q 2819 -91 2034 -91 
Q 1250 -91 836 529 
Q 422 1150 422 2328 
Q 422 3509 836 4129 
Q 1250 4750 2034 4750 
z
" transform="scale(0.015625)"/>
       </defs>
       <use xlink:href="#DejaVuSans-31"/>
       <use xlink:href="#DejaVuSans-30" x="63.623047"/>
      </g>
     </g>
    </g>
    <g id="xtick_7">
     <g id="line2d_7">
      <defs>
       <path id="mca5fc26989" d="M 0 0 
L 0 2 
" style="stroke: #000000; stroke-width: 0.6"/>
      </defs>
      <g>
       <use xlink:href="#mca5fc26989" x="62.459577" y="208.805236" style="stroke: #000000; stroke-width: 0.6"/>
      </g>
     </g>
    </g>
    <g id="xtick_8">
     <g id="line2d_8">
      <g>
       <use xlink:href="#mca5fc26989" x="81.579778" y="208.805236" style="stroke: #000000; stroke-width: 0.6"/>
      </g>
     </g>
    </g>
    <g id="xtick_9">
     <g id="line2d_9">
      <g>
       <use xlink:href="#mca5fc26989" x="100.69998" y="208.805236" style="stroke: #000000; stroke-width: 0.6"/>
      </g>
     </g>
    </g>
    <g id="xtick_10">
     <g id="line2d_10">
      <g>
       <use xlink:href="#mca5fc26989" x="138.940383" y="208.805236" style="stroke: #000000; stroke-width: 0.6"/>
      </g>
     </g>
    </g>
    <g id="xtick_11">
     <g id="line2d_11">
      <g>
       <use xlink:href="#mca5fc26989" x="158.060584" y="208.805236" style="stroke: #000000; stroke-width: 0.6"/>
      </g>
     </g>
    </g>
    <g id="xtick_12">
     <g id="line2d_12">
      <g>
       <use xlink:href="#mca5fc26989" x="177.180786" y="208.805236" style="stroke: #000000; stroke-width: 0.6"/>
      </g>
     </g>
    </g>
    <g id="xtick_13">
     <g id="line2d_13">
      <g>
       <use xlink:href="#mca5fc26989" x="215.421189" y="208.805236" style="stroke: #000000; stroke-width: 0.6"/>
      </g>
     </g>
    </g>
    <g id="xtick_14">
     <g id="line2d_14">
      <g>
       <use xlink:href="#mca5fc26989" x="234.541391" y="208.805236" style="stroke: #000000; stroke-width: 0.6"/>
      </g>
     </g>
    </g>
    <g id="xtick_15">
     <g id="line2d_15">
      <g>
       <use xlink:href="#mca5fc26989" x="253.661592" y="208.805236" style="stroke: #000000; stroke-width: 0.6"/>
      </g>
     </g>
    </g>
    <g id="xtick_16">
     <g id="line2d_16">
      <g>
       <use xlink:href="#mca5fc26989" x="291.901995" y="208.805236" style="stroke: #000000; stroke-width: 0.6"/>
      </g>
     </g>
    </g>
    <g id="xtick_17">
     <g id="line2d_17">
      <g>
       <use xlink:href="#mca5fc26989" x="311.022197" y="208.805236" style="stroke: #000000; stroke-width: 0.6"/>
      </g>
     </g>
    </g>
    <g id="xtick_18">
     <g id="line2d_18">
      <g>
       <use xlink:href="#mca5fc26989" x="330.142398" y="208.805236" style="stroke: #000000; stroke-width: 0.6"/>
      </g>
     </g>
    </g>
    <g id="xtick_19">
     <g id="line2d_19">
      <g>
       <use xlink:href="#mca5fc26989" x="368.382801" y="208.805236" style="stroke: #000000; stroke-width: 0.6"/>
      </g>
     </g>
    </g>
    <g id="xtick_20">
     <g id="line2d_20">
      <g>
       <use xlink:href="#mca5fc26989" x="387.503003" y="208.805236" style="stroke: #000000; stroke-width: 0.6"/>
      </g>
     </g>
    </g>
    <g id="xtick_21">
     <g id="line2d_21">
      <g>
       <use xlink:href="#mca5fc26989" x="406.623205" y="208.805236" style="stroke: #000000; stroke-width: 0.6"/>
      </g>
     </g>
    </g>
    <g id="text_6">
     <!-- $t$ -->
     <g transform="translate(441.391487 208.805236)scale(0.19 -0.19)">
      <defs>
       <path id="Cmmi10-74" d="M 397 519 
Q 397 613 416 697 
L 878 2534 
L 206 2534 
Q 141 2534 141 2619 
Q 166 2759 225 2759 
L 934 2759 
L 1191 3803 
Q 1216 3888 1291 3947 
Q 1366 4006 1459 4006 
Q 1541 4006 1595 3957 
Q 1650 3909 1650 3828 
Q 1650 3809 1648 3798 
Q 1647 3788 1644 3775 
L 1388 2759 
L 2047 2759 
Q 2113 2759 2113 2675 
Q 2109 2659 2100 2621 
Q 2091 2584 2075 2559 
Q 2059 2534 2028 2534 
L 1331 2534 
L 872 684 
Q 825 503 825 372 
Q 825 97 1013 97 
Q 1294 97 1511 361 
Q 1728 625 1844 941 
Q 1869 978 1894 978 
L 1972 978 
Q 1997 978 2012 961 
Q 2028 944 2028 922 
Q 2028 909 2022 903 
Q 1881 516 1612 222 
Q 1344 -72 997 -72 
Q 744 -72 570 93 
Q 397 259 397 519 
z
" transform="scale(0.015625)"/>
      </defs>
      <use xlink:href="#Cmmi10-74" transform="translate(0 0.40625)"/>
     </g>
    </g>
   </g>
   <g id="matplotlib.axis_2">
    <g id="ytick_1">
     <g id="line2d_22">
      <defs>
       <path id="m0dc8811f97" d="M 0 0 
L -3.5 0 
" style="stroke: #000000; stroke-width: 0.8"/>
      </defs>
      <g>
       <use xlink:href="#m0dc8811f97" x="43.339375" y="318.114702" style="stroke: #000000; stroke-width: 0.8"/>
      </g>
     </g>
     <g id="text_7">
      <!-- −1.5 -->
      <g transform="translate(7.2 322.673764)scale(0.12 -0.12)">
       <defs>
        <path id="DejaVuSans-2212" d="M 678 2272 
L 4684 2272 
L 4684 1741 
L 678 1741 
L 678 2272 
z
" transform="scale(0.015625)"/>
        <path id="DejaVuSans-2e" d="M 684 794 
L 1344 794 
L 1344 0 
L 684 0 
L 684 794 
z
" transform="scale(0.015625)"/>
        <path id="DejaVuSans-35" d="M 691 4666 
L 3169 4666 
L 3169 4134 
L 1269 4134 
L 1269 2991 
Q 1406 3038 1543 3061 
Q 1681 3084 1819 3084 
Q 2600 3084 3056 2656 
Q 3513 2228 3513 1497 
Q 3513 744 3044 326 
Q 2575 -91 1722 -91 
Q 1428 -91 1123 -41 
Q 819 9 494 109 
L 494 744 
Q 775 591 1075 516 
Q 1375 441 1709 441 
Q 2250 441 2565 725 
Q 2881 1009 2881 1497 
Q 2881 1984 2565 2268 
Q 2250 2553 1709 2553 
Q 1456 2553 1204 2497 
Q 953 2441 691 2322 
L 691 4666 
z
" transform="scale(0.015625)"/>
       </defs>
       <use xlink:href="#DejaVuSans-2212"/>
       <use xlink:href="#DejaVuSans-31" x="83.789062"/>
       <use xlink:href="#DejaVuSans-2e" x="147.412109"/>
       <use xlink:href="#DejaVuSans-35" x="179.199219"/>
      </g>
     </g>
    </g>
    <g id="ytick_2">
     <g id="line2d_23">
      <g>
       <use xlink:href="#m0dc8811f97" x="43.339375" y="281.678213" style="stroke: #000000; stroke-width: 0.8"/>
      </g>
     </g>
     <g id="text_8">
      <!-- −1.0 -->
      <g transform="translate(7.2 286.237276)scale(0.12 -0.12)">
       <use xlink:href="#DejaVuSans-2212"/>
       <use xlink:href="#DejaVuSans-31" x="83.789062"/>
       <use xlink:href="#DejaVuSans-2e" x="147.412109"/>
       <use xlink:href="#DejaVuSans-30" x="179.199219"/>
      </g>
     </g>
    </g>
    <g id="ytick_3">
     <g id="line2d_24">
      <g>
       <use xlink:href="#m0dc8811f97" x="43.339375" y="245.241725" style="stroke: #000000; stroke-width: 0.8"/>
      </g>
     </g>
     <g id="text_9">
      <!-- −0.5 -->
      <g transform="translate(7.2 249.800787)scale(0.12 -0.12)">
       <use xlink:href="#DejaVuSans-2212"/>
       <use xlink:href="#DejaVuSans-30" x="83.789062"/>
       <use xlink:href="#DejaVuSans-2e" x="147.412109"/>
       <use xlink:href="#DejaVuSans-35" x="179.199219"/>
      </g>
     </g>
    </g>
    <g id="ytick_4">
     <g id="line2d_25">
      <g>
       <use xlink:href="#m0dc8811f97" x="43.339375" y="208.805236" style="stroke: #000000; stroke-width: 0.8"/>
      </g>
     </g>
    </g>
    <g id="ytick_5">
     <g id="line2d_26">
      <g>
       <use xlink:href="#m0dc8811f97" x="43.339375" y="172.368748" style="stroke: #000000; stroke-width: 0.8"/>
      </g>
     </g>
     <g id="text_10">
      <!-- 0.5 -->
      <g transform="translate(17.255625 176.92781)scale(0.12 -0.12)">
       <use xlink:href="#DejaVuSans-30"/>
       <use xlink:href="#DejaVuSans-2e" x="63.623047"/>
       <use xlink:href="#DejaVuSans-35" x="95.410156"/>
      </g>
     </g>
    </g>
    <g id="ytick_6">
     <g id="line2d_27">
      <g>
       <use xlink:href="#m0dc8811f97" x="43.339375" y="135.93226" style="stroke: #000000; stroke-width: 0.8"/>
      </g>
     </g>
     <g id="text_11">
      <!-- 1.0 -->
      <g transform="translate(17.255625 140.491322)scale(0.12 -0.12)">
       <use xlink:href="#DejaVuSans-31"/>
       <use xlink:href="#DejaVuSans-2e" x="63.623047"/>
       <use xlink:href="#DejaVuSans-30" x="95.410156"/>
      </g>
     </g>
    </g>
    <g id="ytick_7">
     <g id="line2d_28">
      <g>
       <use xlink:href="#m0dc8811f97" x="43.339375" y="99.495771" style="stroke: #000000; stroke-width: 0.8"/>
      </g>
     </g>
     <g id="text_12">
      <!-- 1.5 -->
      <g transform="translate(17.255625 104.054834)scale(0.12 -0.12)">
       <use xlink:href="#DejaVuSans-31"/>
       <use xlink:href="#DejaVuSans-2e" x="63.623047"/>
       <use xlink:href="#DejaVuSans-35" x="95.410156"/>
      </g>
     </g>
    </g>
    <g id="ytick_8">
     <g id="line2d_29">
      <g>
       <use xlink:href="#m0dc8811f97" x="43.339375" y="63.059283" style="stroke: #000000; stroke-width: 0.8"/>
      </g>
     </g>
     <g id="text_13">
      <!-- 2.0 -->
      <g transform="translate(17.255625 67.618345)scale(0.12 -0.12)">
       <use xlink:href="#DejaVuSans-32"/>
       <use xlink:href="#DejaVuSans-2e" x="63.623047"/>
       <use xlink:href="#DejaVuSans-30" x="95.410156"/>
      </g>
     </g>
    </g>
    <g id="ytick_9">
     <g id="line2d_30">
      <g>
       <use xlink:href="#m0dc8811f97" x="43.339375" y="26.622794" style="stroke: #000000; stroke-width: 0.8"/>
      </g>
     </g>
     <g id="text_14">
      <!-- 2.5 -->
      <g transform="translate(17.255625 31.181857)scale(0.12 -0.12)">
       <use xlink:href="#DejaVuSans-32"/>
       <use xlink:href="#DejaVuSans-2e" x="63.623047"/>
       <use xlink:href="#DejaVuSans-35" x="95.410156"/>
      </g>
     </g>
    </g>
    <g id="ytick_10">
     <g id="line2d_31">
      <defs>
       <path id="m86514b7884" d="M 0 0 
L -2 0 
" style="stroke: #000000; stroke-width: 0.6"/>
      </defs>
      <g>
       <use xlink:href="#m86514b7884" x="43.339375" y="325.402" style="stroke: #000000; stroke-width: 0.6"/>
      </g>
     </g>
    </g>
    <g id="ytick_11">
     <g id="line2d_32">
      <g>
       <use xlink:href="#m86514b7884" x="43.339375" y="310.827404" style="stroke: #000000; stroke-width: 0.6"/>
      </g>
     </g>
    </g>
    <g id="ytick_12">
     <g id="line2d_33">
      <g>
       <use xlink:href="#m86514b7884" x="43.339375" y="303.540106" style="stroke: #000000; stroke-width: 0.6"/>
      </g>
     </g>
    </g>
    <g id="ytick_13">
     <g id="line2d_34">
      <g>
       <use xlink:href="#m86514b7884" x="43.339375" y="296.252809" style="stroke: #000000; stroke-width: 0.6"/>
      </g>
     </g>
    </g>
    <g id="ytick_14">
     <g id="line2d_35">
      <g>
       <use xlink:href="#m86514b7884" x="43.339375" y="288.965511" style="stroke: #000000; stroke-width: 0.6"/>
      </g>
     </g>
    </g>
    <g id="ytick_15">
     <g id="line2d_36">
      <g>
       <use xlink:href="#m86514b7884" x="43.339375" y="274.390916" style="stroke: #000000; stroke-width: 0.6"/>
      </g>
     </g>
    </g>
    <g id="ytick_16">
     <g id="line2d_37">
      <g>
       <use xlink:href="#m86514b7884" x="43.339375" y="267.103618" style="stroke: #000000; stroke-width: 0.6"/>
      </g>
     </g>
    </g>
    <g id="ytick_17">
     <g id="line2d_38">
      <g>
       <use xlink:href="#m86514b7884" x="43.339375" y="259.81632" style="stroke: #000000; stroke-width: 0.6"/>
      </g>
     </g>
    </g>
    <g id="ytick_18">
     <g id="line2d_39">
      <g>
       <use xlink:href="#m86514b7884" x="43.339375" y="252.529023" style="stroke: #000000; stroke-width: 0.6"/>
      </g>
     </g>
    </g>
    <g id="ytick_19">
     <g id="line2d_40">
      <g>
       <use xlink:href="#m86514b7884" x="43.339375" y="237.954427" style="stroke: #000000; stroke-width: 0.6"/>
      </g>
     </g>
    </g>
    <g id="ytick_20">
     <g id="line2d_41">
      <g>
       <use xlink:href="#m86514b7884" x="43.339375" y="230.66713" style="stroke: #000000; stroke-width: 0.6"/>
      </g>
     </g>
    </g>
    <g id="ytick_21">
     <g id="line2d_42">
      <g>
       <use xlink:href="#m86514b7884" x="43.339375" y="223.379832" style="stroke: #000000; stroke-width: 0.6"/>
      </g>
     </g>
    </g>
    <g id="ytick_22">
     <g id="line2d_43">
      <g>
       <use xlink:href="#m86514b7884" x="43.339375" y="216.092534" style="stroke: #000000; stroke-width: 0.6"/>
      </g>
     </g>
    </g>
    <g id="ytick_23">
     <g id="line2d_44">
      <g>
       <use xlink:href="#m86514b7884" x="43.339375" y="201.517939" style="stroke: #000000; stroke-width: 0.6"/>
      </g>
     </g>
    </g>
    <g id="ytick_24">
     <g id="line2d_45">
      <g>
       <use xlink:href="#m86514b7884" x="43.339375" y="194.230641" style="stroke: #000000; stroke-width: 0.6"/>
      </g>
     </g>
    </g>
    <g id="ytick_25">
     <g id="line2d_46">
      <g>
       <use xlink:href="#m86514b7884" x="43.339375" y="186.943343" style="stroke: #000000; stroke-width: 0.6"/>
      </g>
     </g>
    </g>
    <g id="ytick_26">
     <g id="line2d_47">
      <g>
       <use xlink:href="#m86514b7884" x="43.339375" y="179.656046" style="stroke: #000000; stroke-width: 0.6"/>
      </g>
     </g>
    </g>
    <g id="ytick_27">
     <g id="line2d_48">
      <g>
       <use xlink:href="#m86514b7884" x="43.339375" y="165.08145" style="stroke: #000000; stroke-width: 0.6"/>
      </g>
     </g>
    </g>
    <g id="ytick_28">
     <g id="line2d_49">
      <g>
       <use xlink:href="#m86514b7884" x="43.339375" y="157.794153" style="stroke: #000000; stroke-width: 0.6"/>
      </g>
     </g>
    </g>
    <g id="ytick_29">
     <g id="line2d_50">
      <g>
       <use xlink:href="#m86514b7884" x="43.339375" y="150.506855" style="stroke: #000000; stroke-width: 0.6"/>
      </g>
     </g>
    </g>
    <g id="ytick_30">
     <g id="line2d_51">
      <g>
       <use xlink:href="#m86514b7884" x="43.339375" y="143.219557" style="stroke: #000000; stroke-width: 0.6"/>
      </g>
     </g>
    </g>
    <g id="ytick_31">
     <g id="line2d_52">
      <g>
       <use xlink:href="#m86514b7884" x="43.339375" y="128.644962" style="stroke: #000000; stroke-width: 0.6"/>
      </g>
     </g>
    </g>
    <g id="ytick_32">
     <g id="line2d_53">
      <g>
       <use xlink:href="#m86514b7884" x="43.339375" y="121.357664" style="stroke: #000000; stroke-width: 0.6"/>
      </g>
     </g>
    </g>
    <g id="ytick_33">
     <g id="line2d_54">
      <g>
       <use xlink:href="#m86514b7884" x="43.339375" y="114.070366" style="stroke: #000000; stroke-width: 0.6"/>
      </g>
     </g>
    </g>
    <g id="ytick_34">
     <g id="line2d_55">
      <g>
       <use xlink:href="#m86514b7884" x="43.339375" y="106.783069" style="stroke: #000000; stroke-width: 0.6"/>
      </g>
     </g>
    </g>
    <g id="ytick_35">
     <g id="line2d_56">
      <g>
       <use xlink:href="#m86514b7884" x="43.339375" y="92.208473" style="stroke: #000000; stroke-width: 0.6"/>
      </g>
     </g>
    </g>
    <g id="ytick_36">
     <g id="line2d_57">
      <g>
       <use xlink:href="#m86514b7884" x="43.339375" y="84.921176" style="stroke: #000000; stroke-width: 0.6"/>
      </g>
     </g>
    </g>
    <g id="ytick_37">
     <g id="line2d_58">
      <g>
       <use xlink:href="#m86514b7884" x="43.339375" y="77.633878" style="stroke: #000000; stroke-width: 0.6"/>
      </g>
     </g>
    </g>
    <g id="ytick_38">
     <g id="line2d_59">
      <g>
       <use xlink:href="#m86514b7884" x="43.339375" y="70.34658" style="stroke: #000000; stroke-width: 0.6"/>
      </g>
     </g>
    </g>
    <g id="ytick_39">
     <g id="line2d_60">
      <g>
       <use xlink:href="#m86514b7884" x="43.339375" y="55.771985" style="stroke: #000000; stroke-width: 0.6"/>
      </g>
     </g>
    </g>
    <g id="ytick_40">
     <g id="line2d_61">
      <g>
       <use xlink:href="#m86514b7884" x="43.339375" y="48.484687" style="stroke: #000000; stroke-width: 0.6"/>
      </g>
     </g>
    </g>
    <g id="ytick_41">
     <g id="line2d_62">
      <g>
       <use xlink:href="#m86514b7884" x="43.339375" y="41.197389" style="stroke: #000000; stroke-width: 0.6"/>
      </g>
     </g>
    </g>
    <g id="ytick_42">
     <g id="line2d_63">
      <g>
       <use xlink:href="#m86514b7884" x="43.339375" y="33.910092" style="stroke: #000000; stroke-width: 0.6"/>
      </g>
     </g>
    </g>
    <g id="ytick_43">
     <g id="line2d_64">
      <g>
       <use xlink:href="#m86514b7884" x="43.339375" y="19.335496" style="stroke: #000000; stroke-width: 0.6"/>
      </g>
     </g>
    </g>
    <g id="ytick_44">
     <g id="line2d_65">
      <g>
       <use xlink:href="#m86514b7884" x="43.339375" y="12.048199" style="stroke: #000000; stroke-width: 0.6"/>
      </g>
     </g>
    </g>
   </g>
   <g id="line2d_66">
    <path d="M 43.339375 172.368748 
L 44.685934 171.236411 
L 46.032492 170.377737 
L 47.526904 169.699812 
L 49.698897 169.143916 
L 50.212667 169.076009 
L 51.777884 168.996733 
L 54.494877 169.24002 
L 57.740969 170.00383 
L 57.860916 170.039708 
L 62.089548 171.556662 
L 67.070936 173.757984 
L 76.741273 178.465744 
L 84.1401 182.007365 
L 91.73796 185.391332 
L 98.483302 188.129208 
L 106.314037 190.980518 
L 113.538856 193.309196 
L 122.082639 195.715481 
L 129.485704 197.523526 
L 138.360141 199.389481 
L 147.437751 200.999803 
L 155.245314 202.175388 
L 163.720754 203.262139 
L 174.20153 204.373608 
L 185.457947 205.32973 
L 198.106563 206.16815 
L 212.772859 206.897271 
L 229.930841 207.504218 
L 250.449618 207.986534 
L 277.231302 208.361286 
L 311.543377 208.604641 
L 368.815842 208.753055 
L 425.743406 208.791819 
L 425.743406 208.791819 
" clip-path="url(#pdb4aa29543)" style="fill: none; stroke: #0000ff; stroke-linecap: square"/>
   </g>
   <g id="line2d_67">
    <path d="M 43.339375 172.368748 
L 44.75865 181.141673 
L 46.177926 188.655967 
L 47.554567 194.905085 
L 49.077956 200.792504 
L 50.470626 205.360076 
L 52.321509 210.408527 
L 54.008698 214.153105 
L 55.695888 217.215225 
L 56.580075 218.584968 
L 57.881855 220.344516 
L 60.013925 222.655806 
L 61.625794 224.008206 
L 63.378502 225.160156 
L 65.663494 226.252155 
L 67.668138 226.900963 
L 70.125117 227.385379 
L 73.180741 227.621635 
L 76.669398 227.532174 
L 80.014595 227.197329 
L 83.470715 226.679851 
L 89.602203 225.510123 
L 120.006003 219.159548 
L 129.622739 217.505813 
L 138.840967 216.127162 
L 149.993111 214.711856 
L 161.819859 213.479996 
L 174.154533 212.447351 
L 187.9873 211.54191 
L 203.064097 210.797221 
L 219.445852 210.207184 
L 239.802363 209.704438 
L 263.490194 209.336782 
L 297.137267 209.05376 
L 347.430907 208.883189 
L 425.743406 208.817551 
L 425.743406 208.817551 
" clip-path="url(#pdb4aa29543)" style="fill: none; stroke: #ff0000; stroke-linecap: square"/>
   </g>
   <g id="line2d_68">
    <path d="M 43.339375 135.93226 
L 44.193155 134.445927 
L 45.046935 133.223258 
L 46.543505 131.642589 
L 47.29179 131.090275 
L 48.704474 130.421877 
L 49.368873 130.258618 
L 50.489508 130.175523 
L 52.061626 130.413551 
L 53.633743 130.997609 
L 55.669204 132.16418 
L 57.902194 133.852412 
L 58.994941 134.798359 
L 62.584496 138.291748 
L 67.266113 143.355475 
L 76.987174 154.114164 
L 82.954197 160.287085 
L 86.634779 163.839318 
L 92.358104 168.944771 
L 97.412248 173.030186 
L 101.968583 176.386138 
L 107.89432 180.316084 
L 112.356828 182.97527 
L 117.737791 185.868426 
L 123.829519 188.769071 
L 129.785073 191.261264 
L 133.482502 192.654685 
L 140.700642 195.072178 
L 146.413363 196.732395 
L 153.851751 198.60356 
L 162.017562 200.33212 
L 170.695547 201.855086 
L 179.424823 203.11564 
L 189.197507 204.261819 
L 199.696772 205.240885 
L 209.753228 205.982811 
L 222.071748 206.687052 
L 238.086893 207.349345 
L 254.255376 207.810007 
L 275.589943 208.204347 
L 305.212708 208.508332 
L 347.566846 208.697717 
L 425.743406 208.789062 
L 425.743406 208.789062 
" clip-path="url(#pdb4aa29543)" style="fill: none; stroke: #0000ff; stroke-linecap: square"/>
   </g>
   <g id="line2d_69">
    <path d="M 43.339375 135.93226 
L 44.682755 154.910788 
L 46.026693 171.161786 
L 47.371467 185.049281 
L 48.495493 195.066691 
L 49.988521 206.427784 
L 51.427048 215.557515 
L 52.767161 222.686621 
L 53.964944 228.085311 
L 55.460676 233.7118 
L 56.956408 238.274145 
L 58.107322 241.162242 
L 59.242461 243.549452 
L 60.3776 245.532964 
L 61.490425 247.131962 
L 62.60325 248.429353 
L 63.758509 249.495373 
L 64.913768 250.31028 
L 65.897303 250.829757 
L 66.880839 251.20729 
L 68.340842 251.538885 
L 69.925162 251.635135 
L 72.40022 251.346538 
L 74.886215 250.64742 
L 77.69689 249.50766 
L 81.981097 247.320643 
L 87.561228 244.077776 
L 97.86826 237.989235 
L 103.461132 234.921494 
L 108.759795 232.23963 
L 115.516132 229.153955 
L 120.017508 227.301778 
L 125.726672 225.173665 
L 131.272883 223.326126 
L 137.781453 221.408874 
L 143.394222 219.951357 
L 150.027197 218.436781 
L 157.298411 217.004392 
L 165.427471 215.646681 
L 174.693007 214.364424 
L 185.043284 213.207907 
L 195.038347 212.315475 
L 206.721461 211.49489 
L 220.633577 210.76028 
L 235.780418 210.183632 
L 255.476747 209.677536 
L 278.448349 209.31481 
L 310.569779 209.044055 
L 359.61473 208.879441 
L 425.743406 208.820308 
L 425.743406 208.820308 
" clip-path="url(#pdb4aa29543)" style="fill: none; stroke: #ff0000; stroke-linecap: square"/>
   </g>
   <g id="line2d_70">
    <path d="M 43.339375 99.495771 
L 44.323633 96.97282 
L 45.557356 94.563828 
L 46.791079 92.886758 
L 47.575883 92.154325 
L 48.360686 91.653973 
L 49.14549 91.3644 
L 49.930294 91.266033 
L 50.949072 91.394243 
L 52.53462 92.091806 
L 53.549533 92.809948 
L 55.407298 94.573552 
L 57.15452 96.658837 
L 59.414379 99.813038 
L 62.653549 104.93801 
L 67.474141 113.226164 
L 76.290579 128.483636 
L 80.048041 134.609246 
L 84.934897 142.073814 
L 90.55064 149.8931 
L 94.453639 154.84737 
L 98.289468 159.345595 
L 103.302567 164.699736 
L 106.880681 168.18073 
L 111.789659 172.530629 
L 117.380996 176.937234 
L 122.066502 180.224753 
L 127.260937 183.482274 
L 132.265285 186.274952 
L 136.411589 188.357622 
L 139.752181 189.896744 
L 144.987872 192.082336 
L 151.284264 194.382822 
L 156.184261 195.954374 
L 160.210898 197.118237 
L 166.367631 198.699398 
L 171.537785 199.862391 
L 179.29105 201.362791 
L 186.518701 202.535898 
L 196.694492 203.883467 
L 206.978103 204.953499 
L 217.438078 205.805245 
L 230.175367 206.594004 
L 245.285063 207.266927 
L 262.1235 207.779802 
L 283.142764 208.188171 
L 310.410423 208.486737 
L 350.587753 208.685584 
L 423.209952 208.785086 
L 425.743406 208.786305 
L 425.743406 208.786305 
" clip-path="url(#pdb4aa29543)" style="fill: none; stroke: #0000ff; stroke-linecap: square"/>
   </g>
   <g id="line2d_71">
    <path d="M 43.339375 99.495771 
L 44.698729 129.440443 
L 46.060001 154.990857 
L 47.421273 176.703814 
L 48.677562 193.789894 
L 49.933852 208.410562 
L 51.381329 222.605618 
L 52.581514 232.507111 
L 53.7817 240.936316 
L 55.067444 248.53865 
L 56.261493 254.443378 
L 57.455542 259.376749 
L 58.655523 263.478266 
L 59.845523 266.804381 
L 61.035523 269.485648 
L 62.239862 271.626474 
L 63.444202 273.265626 
L 64.22075 274.08762 
L 65.643603 275.175626 
L 66.289908 275.510322 
L 67.133502 275.813963 
L 68.717621 276.024292 
L 69.458146 275.981429 
L 71.345162 275.532053 
L 72.967566 274.820873 
L 75.335819 273.369923 
L 77.338568 271.856642 
L 78.992373 270.463246 
L 82.850229 266.887057 
L 96.699446 253.336129 
L 100.210011 250.148453 
L 106.501872 244.865871 
L 112.200464 240.579975 
L 117.667533 236.902575 
L 121.987305 234.280157 
L 127.574612 231.230576 
L 132.689648 228.748161 
L 136.916545 226.899329 
L 142.791195 224.604201 
L 148.999679 222.487994 
L 154.640576 220.807793 
L 159.918383 219.420146 
L 167.89954 217.616265 
L 176.281347 216.046828 
L 184.725066 214.745126 
L 193.998312 213.580683 
L 203.643757 212.608696 
L 214.005866 211.781781 
L 225.962508 211.046599 
L 240.949385 210.374117 
L 257.843776 209.853155 
L 280.69104 209.41106 
L 308.452866 209.115562 
L 350.053015 208.91848 
L 425.743406 208.823065 
L 425.743406 208.823065 
" clip-path="url(#pdb4aa29543)" style="fill: none; stroke: #ff0000; stroke-linecap: square"/>
   </g>
   <g id="line2d_72">
    <path d="M 43.339375 63.059283 
L 44.396258 59.485372 
L 45.453142 56.748191 
L 46.517965 54.736477 
L 47.582788 53.383664 
L 48.411649 52.734845 
L 49.240509 52.402172 
L 50.167121 52.366162 
L 51.093732 52.646527 
L 51.768148 53.028847 
L 53.11698 54.189169 
L 54.475443 55.815659 
L 56.253818 58.507752 
L 58.494957 62.597415 
L 60.530918 66.798892 
L 62.600738 71.392334 
L 69.383526 87.441429 
L 75.748241 102.373027 
L 79.200596 110.051397 
L 83.071153 118.192625 
L 86.444117 124.851538 
L 89.197451 129.979286 
L 93.716217 137.800824 
L 97.461627 143.741961 
L 100.667577 148.456126 
L 105.814398 155.353205 
L 110.530489 161.002758 
L 114.673962 165.484393 
L 118.260446 169.030066 
L 123.351299 173.578723 
L 128.142309 177.389828 
L 132.387934 180.425139 
L 137.042281 183.420214 
L 140.442476 185.408397 
L 145.37475 188.021303 
L 150.74549 190.538346 
L 156.285178 192.817952 
L 162.816057 195.145294 
L 167.188868 196.512304 
L 172.93418 198.103955 
L 179.054751 199.574881 
L 185.847545 200.973236 
L 192.33788 202.112066 
L 201.032892 203.38393 
L 210.612751 204.508638 
L 220.694601 205.442407 
L 231.242628 206.203842 
L 244.496861 206.9221 
L 260.621793 207.535101 
L 278.793516 207.991064 
L 303.040207 208.356067 
L 335.253718 208.601887 
L 385.065426 208.745799 
L 425.743406 208.783548 
L 425.743406 208.783548 
" clip-path="url(#pdb4aa29543)" style="fill: none; stroke: #0000ff; stroke-linecap: square"/>
   </g>
   <g id="line2d_73">
    <path d="M 43.339375 63.059283 
L 44.717945 104.291482 
L 46.201317 141.735674 
L 47.61791 171.74711 
L 49.138228 198.627174 
L 50.569999 219.633105 
L 52.003744 237.096265 
L 53.316723 250.396551 
L 54.824814 262.95592 
L 56.170866 272.061529 
L 57.263872 278.194968 
L 58.523814 284.044874 
L 59.639546 288.267899 
L 60.755278 291.703651 
L 61.499099 293.604096 
L 62.921241 296.472353 
L 63.978433 298.030298 
L 65.035625 299.162718 
L 66.296729 300.027453 
L 67.434447 300.413435 
L 68.703112 300.465259 
L 69.402918 300.344165 
L 70.480142 299.975472 
L 72.39669 298.854787 
L 74.148712 297.411112 
L 75.06141 296.532095 
L 77.854898 293.432199 
L 82.162819 287.875994 
L 87.186846 280.908651 
L 94.607721 270.743107 
L 100.901316 262.783439 
L 104.918138 258.12142 
L 107.86791 254.915578 
L 111.567797 251.153378 
L 116.901062 246.219699 
L 121.465159 242.429539 
L 125.319862 239.516108 
L 127.138074 238.227677 
L 132.874481 234.496998 
L 138.700475 231.181696 
L 144.485601 228.306268 
L 151.431021 225.331823 
L 157.077647 223.247688 
L 163.3294 221.242526 
L 168.072986 219.907385 
L 173.986115 218.440352 
L 182.14772 216.726219 
L 187.995138 215.687656 
L 195.479275 214.553295 
L 204.083418 213.476836 
L 214.559107 212.433022 
L 225.864428 211.565229 
L 237.84001 210.870168 
L 252.833957 210.24016 
L 270.045652 209.749211 
L 291.466642 209.365045 
L 319.204676 209.08924 
L 361.970151 208.904592 
L 425.743406 208.825822 
L 425.743406 208.825822 
" clip-path="url(#pdb4aa29543)" style="fill: none; stroke: #ff0000; stroke-linecap: square"/>
   </g>
   <g id="line2d_74">
    <path d="M 43.339375 26.622794 
L 44.30905 22.488219 
L 45.278726 19.253069 
L 46.351856 16.602997 
L 47.067277 15.322102 
L 47.782697 14.392078 
L 48.140407 14.049279 
L 48.706541 13.662289 
L 49.272676 13.454425 
L 50.002448 13.430769 
L 50.732219 13.659431 
L 51.805529 14.406522 
L 52.878839 15.584273 
L 53.953608 17.136359 
L 55.690697 20.302542 
L 57.427786 24.119049 
L 59.497659 29.301083 
L 62.976889 39.02851 
L 68.851121 56.687033 
L 74.492148 73.537726 
L 77.360577 81.749853 
L 81.789172 93.770928 
L 85.297891 102.666178 
L 89.148682 111.763761 
L 93.194164 120.577611 
L 96.662105 127.546402 
L 100.145916 134.027539 
L 104.186081 140.929391 
L 107.793884 146.571811 
L 110.706304 150.792484 
L 113.528077 154.614975 
L 117.425885 159.49215 
L 121.033083 163.619795 
L 123.860651 166.615463 
L 128.583127 171.187137 
L 131.210504 173.514637 
L 135.371931 176.91238 
L 138.935721 179.562814 
L 142.521051 182.008527 
L 147.181274 184.88616 
L 150.746381 186.878318 
L 156.180499 189.601988 
L 159.684687 191.177073 
L 163.630122 192.797164 
L 169.547062 194.95328 
L 175.674043 196.881688 
L 182.736719 198.775272 
L 189.952258 200.400855 
L 196.621472 201.668948 
L 205.773145 203.104693 
L 214.266735 204.178313 
L 223.922165 205.156202 
L 234.867614 206.018027 
L 247.004695 206.738516 
L 261.176983 207.348326 
L 278.383204 207.852821 
L 298.644862 208.228334 
L 326.954381 208.519261 
L 370.930569 208.709368 
L 425.743406 208.780791 
L 425.743406 208.780791 
" clip-path="url(#pdb4aa29543)" style="fill: none; stroke: #0000ff; stroke-linecap: square"/>
   </g>
   <g id="line2d_75">
    <path d="M 43.339375 26.622794 
L 44.645163 76.20802 
L 46.134168 124.093941 
L 47.607313 163.679804 
L 48.799172 190.826532 
L 50.290626 219.50587 
L 51.779286 243.088704 
L 52.966859 258.800329 
L 54.351806 274.12842 
L 55.680636 286.210534 
L 56.914663 295.443344 
L 57.959199 301.952351 
L 59.310888 308.825449 
L 60.232345 312.627641 
L 61.216913 315.992293 
L 62.201481 318.712286 
L 63.394496 321.24473 
L 64.189839 322.519991 
L 64.58751 323.04507 
L 65.494285 323.984555 
L 66.485692 324.638058 
L 67.477099 324.94516 
L 68.266614 324.969231 
L 69.056129 324.818158 
L 69.845644 324.509049 
L 71.363846 323.527077 
L 72.092532 322.89798 
L 73.44141 321.50531 
L 74.790288 319.861615 
L 77.72824 315.628885 
L 80.641524 310.843072 
L 83.078224 306.58719 
L 92.858089 289.168419 
L 98.273599 280.141449 
L 103.172146 272.621938 
L 107.692724 266.270592 
L 111.603924 261.229503 
L 115.837062 256.230654 
L 119.98875 251.764303 
L 124.237931 247.609797 
L 127.850522 244.384999 
L 131.979509 241.018015 
L 136.673345 237.568388 
L 140.432842 235.069742 
L 145.947415 231.787371 
L 150.083866 229.594756 
L 153.893784 227.759183 
L 158.307037 225.833047 
L 163.820898 223.697437 
L 170.447978 221.479976 
L 176.255435 219.808503 
L 182.825081 218.180491 
L 190.393799 216.599836 
L 197.65744 215.332992 
L 206.347472 214.083816 
L 214.319293 213.148444 
L 223.567128 212.268205 
L 235.251824 211.405537 
L 249.075611 210.65715 
L 264.823219 210.062575 
L 283.217957 209.604502 
L 308.084806 209.237928 
L 342.191991 208.991328 
L 397.553822 208.852324 
L 425.743406 208.828579 
L 425.743406 208.828579 
" clip-path="url(#pdb4aa29543)" style="fill: none; stroke: #ff0000; stroke-linecap: square"/>
   </g>
   <g id="patch_3">
    <path d="M 43.339375 331.2 
L 43.339375 7.2 
" style="fill: none; stroke: #000000; stroke-width: 0.8; stroke-linejoin: miter; stroke-linecap: square"/>
   </g>
   <g id="patch_4">
    <path d="M 35.691294 208.805236 
L 433.391487 208.805236 
" style="fill: none; stroke: #000000; stroke-width: 0.8; stroke-linejoin: miter; stroke-linecap: square"/>
   </g>
   <g id="legend_1">
    <g id="patch_5">
     <path d="M 388.091487 46.596875 
L 430.391487 46.596875 
L 430.391487 14.2 
L 388.091487 14.2 
z
" style="fill: #4c4c4c; opacity: 0.5; stroke: #4c4c4c; stroke-linejoin: miter"/>
    </g>
    <g id="patch_6">
     <path d="M 386.091487 44.596875 
L 428.391487 44.596875 
L 428.391487 12.2 
L 386.091487 12.2 
z
" style="fill: #ffffff; stroke: #cccccc; stroke-linejoin: miter"/>
    </g>
    <g id="line2d_76">
     <path d="M 395.091487 22.298437 
L 389.591487 22.298437 
" style="fill: none; stroke: #0000ff; stroke-linecap: square"/>
    </g>
    <g id="text_15">
     <!-- $x(t)$ -->
     <g transform="translate(397.591487 25.798437)scale(0.1 -0.1)">
      <defs>
       <path id="Cmmi10-78" d="M 500 184 
Q 613 97 819 97 
Q 1019 97 1172 289 
Q 1325 481 1381 709 
L 1672 1844 
Q 1741 2153 1741 2266 
Q 1741 2425 1652 2544 
Q 1563 2663 1403 2663 
Q 1200 2663 1022 2536 
Q 844 2409 722 2214 
Q 600 2019 550 1819 
Q 538 1778 500 1778 
L 422 1778 
Q 372 1778 372 1838 
L 372 1856 
Q 434 2094 584 2320 
Q 734 2547 951 2687 
Q 1169 2828 1416 2828 
Q 1650 2828 1839 2703 
Q 2028 2578 2106 2363 
Q 2216 2559 2386 2693 
Q 2556 2828 2759 2828 
Q 2897 2828 3040 2779 
Q 3184 2731 3275 2631 
Q 3366 2531 3366 2381 
Q 3366 2219 3261 2101 
Q 3156 1984 2994 1984 
Q 2891 1984 2822 2050 
Q 2753 2116 2753 2216 
Q 2753 2350 2845 2451 
Q 2938 2553 3066 2572 
Q 2950 2663 2747 2663 
Q 2541 2663 2389 2472 
Q 2238 2281 2175 2047 
L 1894 916 
Q 1825 659 1825 494 
Q 1825 331 1917 214 
Q 2009 97 2163 97 
Q 2463 97 2698 361 
Q 2934 625 3009 941 
Q 3022 978 3059 978 
L 3138 978 
Q 3163 978 3178 961 
Q 3194 944 3194 922 
Q 3194 916 3188 903 
Q 3097 522 2806 225 
Q 2516 -72 2150 -72 
Q 1916 -72 1727 54 
Q 1538 181 1459 397 
Q 1359 209 1182 68 
Q 1006 -72 806 -72 
Q 669 -72 523 -23 
Q 378 25 287 125 
Q 197 225 197 378 
Q 197 528 301 651 
Q 406 775 563 775 
Q 669 775 741 711 
Q 813 647 813 544 
Q 813 409 723 309 
Q 634 209 500 184 
z
" transform="scale(0.015625)"/>
       <path id="Cmr10-28" d="M 1984 -1588 
Q 1628 -1306 1370 -942 
Q 1113 -578 948 -165 
Q 784 247 703 697 
Q 622 1147 622 1600 
Q 622 2059 703 2509 
Q 784 2959 951 3375 
Q 1119 3791 1378 4153 
Q 1638 4516 1984 4788 
Q 1984 4800 2016 4800 
L 2075 4800 
Q 2094 4800 2109 4783 
Q 2125 4766 2125 4744 
Q 2125 4716 2113 4703 
Q 1800 4397 1592 4047 
Q 1384 3697 1257 3301 
Q 1131 2906 1075 2482 
Q 1019 2059 1019 1600 
Q 1019 -434 2106 -1491 
Q 2125 -1509 2125 -1544 
Q 2125 -1559 2108 -1579 
Q 2091 -1600 2075 -1600 
L 2016 -1600 
Q 1984 -1600 1984 -1588 
z
" transform="scale(0.015625)"/>
       <path id="Cmr10-29" d="M 416 -1600 
Q 359 -1600 359 -1544 
Q 359 -1516 372 -1503 
Q 1466 -434 1466 1600 
Q 1466 3634 384 4691 
Q 359 4706 359 4744 
Q 359 4766 376 4783 
Q 394 4800 416 4800 
L 475 4800 
Q 494 4800 506 4788 
Q 966 4425 1272 3906 
Q 1578 3388 1720 2800 
Q 1863 2213 1863 1600 
Q 1863 1147 1786 708 
Q 1709 269 1542 -157 
Q 1375 -584 1119 -945 
Q 863 -1306 506 -1588 
Q 494 -1600 475 -1600 
L 416 -1600 
z
" transform="scale(0.015625)"/>
      </defs>
      <use xlink:href="#Cmmi10-78"/>
      <use xlink:href="#Cmr10-28" transform="translate(57.080078 0)"/>
      <use xlink:href="#Cmmi10-74" transform="translate(95.898438 0)"/>
      <use xlink:href="#Cmr10-29" transform="translate(131.982422 0)"/>
     </g>
    </g>
    <g id="line2d_77">
     <path d="M 395.091487 32.596875 
L 389.591487 32.596875 
" style="fill: none; stroke: #ff0000; stroke-linecap: square"/>
    </g>
    <g id="text_16">
     <!-- $dx/dt$ -->
     <g transform="translate(397.591487 36.096875)scale(0.1 -0.1)">
      <defs>
       <path id="Cmmi10-64" d="M 1113 -72 
Q 709 -72 476 233 
Q 244 538 244 953 
Q 244 1363 456 1803 
Q 669 2244 1030 2536 
Q 1391 2828 1806 2828 
Q 1994 2828 2145 2723 
Q 2297 2619 2381 2444 
L 2741 3872 
Q 2766 3981 2772 4044 
Q 2772 4147 2356 4147 
Q 2291 4147 2291 4231 
Q 2294 4247 2305 4287 
Q 2316 4328 2333 4350 
Q 2350 4372 2381 4372 
L 3244 4441 
Q 3322 4441 3322 4359 
L 2400 678 
Q 2356 572 2356 372 
Q 2356 97 2541 97 
Q 2741 97 2845 351 
Q 2950 606 3022 941 
Q 3034 978 3072 978 
L 3150 978 
Q 3175 978 3190 956 
Q 3206 934 3206 916 
Q 3094 469 2961 198 
Q 2828 -72 2528 -72 
Q 2313 -72 2147 54 
Q 1981 181 1941 391 
Q 1528 -72 1113 -72 
z
M 1119 97 
Q 1350 97 1567 270 
Q 1784 444 1941 678 
Q 1947 684 1947 703 
L 2297 2113 
Q 2259 2338 2131 2500 
Q 2003 2663 1791 2663 
Q 1575 2663 1389 2486 
Q 1203 2309 1075 2069 
Q 950 1813 836 1366 
Q 722 919 722 672 
Q 722 450 817 273 
Q 913 97 1119 97 
z
" transform="scale(0.015625)"/>
       <path id="Cmmi10-3d" d="M 359 -1472 
Q 359 -1453 366 -1447 
L 2591 4722 
Q 2603 4759 2634 4779 
Q 2666 4800 2706 4800 
Q 2763 4800 2798 4765 
Q 2834 4731 2834 4672 
L 2834 4647 
L 609 -1522 
Q 572 -1600 488 -1600 
Q 434 -1600 396 -1562 
Q 359 -1525 359 -1472 
z
" transform="scale(0.015625)"/>
      </defs>
      <use xlink:href="#Cmmi10-64"/>
      <use xlink:href="#Cmmi10-78" transform="translate(52.001953 0)"/>
      <use xlink:href="#Cmmi10-3d" transform="translate(109.082031 0)"/>
      <use xlink:href="#Cmmi10-64" transform="translate(159.082031 0)"/>
      <use xlink:href="#Cmmi10-74" transform="translate(211.083984 0)"/>
     </g>
    </g>
   </g>
  </g>
 </g>
 <defs>
  <clipPath id="pdb4aa29543">
   <rect x="35.691294" y="7.2" width="397.700192" height="324"/>
  </clipPath>
 </defs>
</svg>
